<svg width="121" height="24" viewBox="0 0 121 24" fill="none" xmlns="http://www.w3.org/2000/svg">
<path d="M34.824 15.52H29.96L29.064 18H27.528L31.56 6.912H33.24L37.256 18H35.72L34.824 15.52ZM34.408 14.336L32.392 8.704L30.376 14.336H34.408ZM38.4693 13.584C38.4693 12.688 38.6506 11.904 39.0133 11.232C39.3759 10.5493 39.8719 10.0213 40.5013 9.648C41.1413 9.27467 41.8559 9.088 42.6453 9.088C43.3279 9.088 43.9626 9.248 44.5493 9.568C45.1359 9.87733 45.5839 10.288 45.8933 10.8V6.16H47.3653V18H45.8933V16.352C45.6053 16.8747 45.1786 17.3067 44.6133 17.648C44.0479 17.9787 43.3866 18.144 42.6293 18.144C41.8506 18.144 41.1413 17.952 40.5013 17.568C39.8719 17.184 39.3759 16.6453 39.0133 15.952C38.6506 15.2587 38.4693 14.4693 38.4693 13.584ZM45.8933 13.6C45.8933 12.9387 45.7599 12.3627 45.4933 11.872C45.2266 11.3813 44.8639 11.008 44.4053 10.752C43.9573 10.4853 43.4613 10.352 42.9173 10.352C42.3733 10.352 41.8773 10.48 41.4293 10.736C40.9813 10.992 40.6239 11.3653 40.3573 11.856C40.0906 12.3467 39.9573 12.9227 39.9573 13.584C39.9573 14.256 40.0906 14.8427 40.3573 15.344C40.6239 15.8347 40.9813 16.2133 41.4293 16.48C41.8773 16.736 42.3733 16.864 42.9173 16.864C43.4613 16.864 43.9573 16.736 44.4053 16.48C44.8639 16.2133 45.2266 15.8347 45.4933 15.344C45.7599 14.8427 45.8933 14.2613 45.8933 13.6ZM49.2818 13.584C49.2818 12.688 49.4631 11.904 49.8258 11.232C50.1884 10.5493 50.6844 10.0213 51.3138 9.648C51.9538 9.27467 52.6684 9.088 53.4578 9.088C54.1404 9.088 54.7751 9.248 55.3618 9.568C55.9484 9.87733 56.3964 10.288 56.7058 10.8V6.16H58.1778V18H56.7058V16.352C56.4178 16.8747 55.9911 17.3067 55.4258 17.648C54.8604 17.9787 54.1991 18.144 53.4418 18.144C52.6631 18.144 51.9538 17.952 51.3138 17.568C50.6844 17.184 50.1884 16.6453 49.8258 15.952C49.4631 15.2587 49.2818 14.4693 49.2818 13.584ZM56.7058 13.6C56.7058 12.9387 56.5724 12.3627 56.3058 11.872C56.0391 11.3813 55.6764 11.008 55.2178 10.752C54.7698 10.4853 54.2738 10.352 53.7298 10.352C53.1858 10.352 52.6898 10.48 52.2418 10.736C51.7938 10.992 51.4364 11.3653 51.1698 11.856C50.9031 12.3467 50.7698 12.9227 50.7698 13.584C50.7698 14.256 50.9031 14.8427 51.1698 15.344C51.4364 15.8347 51.7938 16.2133 52.2418 16.48C52.6898 16.736 53.1858 16.864 53.7298 16.864C54.2738 16.864 54.7698 16.736 55.2178 16.48C55.6764 16.2133 56.0391 15.8347 56.3058 15.344C56.5724 14.8427 56.7058 14.2613 56.7058 13.6ZM64.3599 12.416C64.3599 11.328 64.6052 10.352 65.0959 9.488C65.5865 8.61333 66.2532 7.93067 67.0959 7.44C67.9492 6.94933 68.8932 6.704 69.9279 6.704C71.1439 6.704 72.2052 6.99733 73.1119 7.584C74.0185 8.17067 74.6799 9.00267 75.0959 10.08H73.3519C73.0425 9.408 72.5945 8.89067 72.0079 8.528C71.4319 8.16533 70.7385 7.984 69.9279 7.984C69.1492 7.984 68.4505 8.16533 67.8319 8.528C67.2132 8.89067 66.7279 9.408 66.3759 10.08C66.0239 10.7413 65.8479 11.52 65.8479 12.416C65.8479 13.3013 66.0239 14.08 66.3759 14.752C66.7279 15.4133 67.2132 15.9253 67.8319 16.288C68.4505 16.6507 69.1492 16.832 69.9279 16.832C70.7385 16.832 71.4319 16.656 72.0079 16.304C72.5945 15.9413 73.0425 15.424 73.3519 14.752H75.0959C74.6799 15.8187 74.0185 16.6453 73.1119 17.232C72.2052 17.808 71.1439 18.096 69.9279 18.096C68.8932 18.096 67.9492 17.856 67.0959 17.376C66.2532 16.8853 65.5865 16.208 65.0959 15.344C64.6052 14.48 64.3599 13.504 64.3599 12.416ZM81.0873 18.144C80.2659 18.144 79.5193 17.9573 78.8473 17.584C78.1859 17.2107 77.6633 16.6827 77.2793 16C76.9059 15.3067 76.7193 14.5067 76.7193 13.6C76.7193 12.704 76.9113 11.9147 77.2953 11.232C77.6899 10.5387 78.2233 10.0107 78.8953 9.648C79.5673 9.27467 80.3193 9.088 81.1513 9.088C81.9833 9.088 82.7353 9.27467 83.4073 9.648C84.0793 10.0107 84.6073 10.5333 84.9913 11.216C85.3859 11.8987 85.5833 12.6933 85.5833 13.6C85.5833 14.5067 85.3806 15.3067 84.9753 16C84.5806 16.6827 84.0419 17.2107 83.3593 17.584C82.6766 17.9573 81.9193 18.144 81.0873 18.144ZM81.0873 16.864C81.6099 16.864 82.1006 16.7413 82.5593 16.496C83.0179 16.2507 83.3859 15.8827 83.6633 15.392C83.9513 14.9013 84.0953 14.304 84.0953 13.6C84.0953 12.896 83.9566 12.2987 83.6793 11.808C83.4019 11.3173 83.0393 10.9547 82.5913 10.72C82.1433 10.4747 81.6579 10.352 81.1353 10.352C80.6019 10.352 80.1113 10.4747 79.6633 10.72C79.2259 10.9547 78.8739 11.3173 78.6073 11.808C78.3406 12.2987 78.2073 12.896 78.2073 13.6C78.2073 14.3147 78.3353 14.9173 78.5913 15.408C78.8579 15.8987 79.2099 16.2667 79.6473 16.512C80.0846 16.7467 80.5646 16.864 81.0873 16.864ZM95.2736 9.232V18H93.8176V16.704C93.5403 17.152 93.151 17.504 92.6496 17.76C92.159 18.0053 91.615 18.128 91.0176 18.128C90.335 18.128 89.7216 17.9893 89.1776 17.712C88.6336 17.424 88.2016 16.9973 87.8816 16.432C87.5723 15.8667 87.4176 15.1787 87.4176 14.368V9.232H88.8576V14.176C88.8576 15.04 89.0763 15.7067 89.5136 16.176C89.951 16.6347 90.5483 16.864 91.3056 16.864C92.0843 16.864 92.6976 16.624 93.1456 16.144C93.5936 15.664 93.8176 14.9653 93.8176 14.048V9.232H95.2736ZM99.188 10.656C99.444 10.1547 99.8067 9.76533 100.276 9.488C100.756 9.21067 101.337 9.072 102.02 9.072V10.576H101.636C100.004 10.576 99.188 11.4613 99.188 13.232V18H97.732V9.232H99.188V10.656ZM106.805 18.144C106.133 18.144 105.53 18.032 104.997 17.808C104.463 17.5733 104.042 17.2533 103.733 16.848C103.423 16.432 103.253 15.9573 103.221 15.424H104.725C104.767 15.8613 104.97 16.2187 105.333 16.496C105.706 16.7733 106.191 16.912 106.789 16.912C107.343 16.912 107.781 16.7893 108.101 16.544C108.421 16.2987 108.581 15.9893 108.581 15.616C108.581 15.232 108.41 14.9493 108.069 14.768C107.727 14.576 107.199 14.3893 106.485 14.208C105.834 14.0373 105.301 13.8667 104.885 13.696C104.479 13.5147 104.127 13.2533 103.829 12.912C103.541 12.56 103.397 12.1013 103.397 11.536C103.397 11.088 103.53 10.6773 103.797 10.304C104.063 9.93067 104.442 9.63733 104.933 9.424C105.423 9.2 105.983 9.088 106.613 9.088C107.583 9.088 108.367 9.33333 108.965 9.824C109.562 10.3147 109.882 10.9867 109.925 11.84H108.469C108.437 11.3813 108.25 11.0133 107.909 10.736C107.578 10.4587 107.13 10.32 106.565 10.32C106.042 10.32 105.626 10.432 105.317 10.656C105.007 10.88 104.853 11.1733 104.853 11.536C104.853 11.824 104.943 12.064 105.125 12.256C105.317 12.4373 105.551 12.5867 105.829 12.704C106.117 12.8107 106.511 12.9333 107.013 13.072C107.642 13.2427 108.154 13.4133 108.549 13.584C108.943 13.744 109.279 13.9893 109.557 14.32C109.845 14.6507 109.994 15.0827 110.005 15.616C110.005 16.096 109.871 16.528 109.605 16.912C109.338 17.296 108.959 17.6 108.469 17.824C107.989 18.0373 107.434 18.144 106.805 18.144ZM120.06 13.28C120.06 13.5573 120.044 13.8507 120.012 14.16H113.004C113.057 15.024 113.351 15.7013 113.884 16.192C114.428 16.672 115.084 16.912 115.852 16.912C116.481 16.912 117.004 16.768 117.42 16.48C117.847 16.1813 118.145 15.7867 118.316 15.296H119.884C119.649 16.1387 119.18 16.8267 118.476 17.36C117.772 17.8827 116.897 18.144 115.852 18.144C115.02 18.144 114.273 17.9573 113.612 17.584C112.961 17.2107 112.449 16.6827 112.076 16C111.703 15.3067 111.516 14.5067 111.516 13.6C111.516 12.6933 111.697 11.8987 112.06 11.216C112.423 10.5333 112.929 10.0107 113.58 9.648C114.241 9.27467 114.999 9.088 115.852 9.088C116.684 9.088 117.42 9.26933 118.06 9.632C118.7 9.99467 119.191 10.496 119.532 11.136C119.884 11.7653 120.06 12.48 120.06 13.28ZM118.556 12.976C118.556 12.4213 118.433 11.9467 118.188 11.552C117.943 11.1467 117.607 10.8427 117.18 10.64C116.764 10.4267 116.3 10.32 115.788 10.32C115.052 10.32 114.423 10.5547 113.9 11.024C113.388 11.4933 113.095 12.144 113.02 12.976H118.556Z" fill="#535352"/>
<path d="M11 11.0004V7.00043H9V11.0004H5V13.0004H9V17.0004H11V13.0004H15V11.0004H11ZM10 22.0004C7.34784 22.0004 4.8043 20.9469 2.92893 19.0715C1.05357 17.1961 0 14.6526 0 12.0004C0 9.34826 1.05357 6.80472 2.92893 4.92936C4.8043 3.054 7.34784 2.00043 10 2.00043C12.6522 2.00043 15.1957 3.054 17.0711 4.92936C18.9464 6.80472 20 9.34826 20 12.0004C20 14.6526 18.9464 17.1961 17.0711 19.0715C15.1957 20.9469 12.6522 22.0004 10 22.0004Z" fill="#535352"/>
</svg>
