<svg width="165" height="24" viewBox="0 0 165 24" fill="none" xmlns="http://www.w3.org/2000/svg">
<path d="M34.824 15.52H29.96L29.064 18H27.528L31.56 6.912H33.24L37.256 18H35.72L34.824 15.52ZM34.408 14.336L32.392 8.704L30.376 14.336H34.408ZM38.4693 13.584C38.4693 12.688 38.6506 11.904 39.0133 11.232C39.3759 10.5493 39.8719 10.0213 40.5013 9.648C41.1413 9.27467 41.8559 9.088 42.6453 9.088C43.3279 9.088 43.9626 9.248 44.5493 9.568C45.1359 9.87733 45.5839 10.288 45.8933 10.8V6.16H47.3653V18H45.8933V16.352C45.6053 16.8747 45.1786 17.3067 44.6133 17.648C44.0479 17.9787 43.3866 18.144 42.6293 18.144C41.8506 18.144 41.1413 17.952 40.5013 17.568C39.8719 17.184 39.3759 16.6453 39.0133 15.952C38.6506 15.2587 38.4693 14.4693 38.4693 13.584ZM45.8933 13.6C45.8933 12.9387 45.7599 12.3627 45.4933 11.872C45.2266 11.3813 44.8639 11.008 44.4053 10.752C43.9573 10.4853 43.4613 10.352 42.9173 10.352C42.3733 10.352 41.8773 10.48 41.4293 10.736C40.9813 10.992 40.6239 11.3653 40.3573 11.856C40.0906 12.3467 39.9573 12.9227 39.9573 13.584C39.9573 14.256 40.0906 14.8427 40.3573 15.344C40.6239 15.8347 40.9813 16.2133 41.4293 16.48C41.8773 16.736 42.3733 16.864 42.9173 16.864C43.4613 16.864 43.9573 16.736 44.4053 16.48C44.8639 16.2133 45.2266 15.8347 45.4933 15.344C45.7599 14.8427 45.8933 14.2613 45.8933 13.6ZM49.2818 13.584C49.2818 12.688 49.4631 11.904 49.8258 11.232C50.1884 10.5493 50.6844 10.0213 51.3138 9.648C51.9538 9.27467 52.6684 9.088 53.4578 9.088C54.1404 9.088 54.7751 9.248 55.3618 9.568C55.9484 9.87733 56.3964 10.288 56.7058 10.8V6.16H58.1778V18H56.7058V16.352C56.4178 16.8747 55.9911 17.3067 55.4258 17.648C54.8604 17.9787 54.1991 18.144 53.4418 18.144C52.6631 18.144 51.9538 17.952 51.3138 17.568C50.6844 17.184 50.1884 16.6453 49.8258 15.952C49.4631 15.2587 49.2818 14.4693 49.2818 13.584ZM56.7058 13.6C56.7058 12.9387 56.5724 12.3627 56.3058 11.872C56.0391 11.3813 55.6764 11.008 55.2178 10.752C54.7698 10.4853 54.2738 10.352 53.7298 10.352C53.1858 10.352 52.6898 10.48 52.2418 10.736C51.7938 10.992 51.4364 11.3653 51.1698 11.856C50.9031 12.3467 50.7698 12.9227 50.7698 13.584C50.7698 14.256 50.9031 14.8427 51.1698 15.344C51.4364 15.8347 51.7938 16.2133 52.2418 16.48C52.6898 16.736 53.1858 16.864 53.7298 16.864C54.2738 16.864 54.7698 16.736 55.2178 16.48C55.6764 16.2133 56.0391 15.8347 56.3058 15.344C56.5724 14.8427 56.7058 14.2613 56.7058 13.6ZM66.3599 8.032V11.76H70.4239V12.96H66.3599V16.8H70.9039V18H64.9039V6.832H70.9039V8.032H66.3599ZM83.651 9.072C84.3337 9.072 84.9417 9.216 85.475 9.504C86.0083 9.78133 86.4297 10.2027 86.739 10.768C87.0483 11.3333 87.203 12.0213 87.203 12.832V18H85.763V13.04C85.763 12.1653 85.5443 11.4987 85.107 11.04C84.6803 10.5707 84.099 10.336 83.363 10.336C82.6057 10.336 82.003 10.5813 81.555 11.072C81.107 11.552 80.883 12.2507 80.883 13.168V18H79.443V13.04C79.443 12.1653 79.2243 11.4987 78.787 11.04C78.3603 10.5707 77.779 10.336 77.043 10.336C76.2857 10.336 75.683 10.5813 75.235 11.072C74.787 11.552 74.563 12.2507 74.563 13.168V18H73.107V9.232H74.563V10.496C74.851 10.0373 75.235 9.68533 75.715 9.44C76.2057 9.19467 76.7443 9.072 77.331 9.072C78.067 9.072 78.7177 9.23733 79.283 9.568C79.8483 9.89867 80.2697 10.384 80.547 11.024C80.7923 10.4053 81.1977 9.92533 81.763 9.584C82.3283 9.24267 82.9577 9.072 83.651 9.072ZM91.0474 10.848C91.3354 10.3467 91.762 9.93067 92.3274 9.6C92.9034 9.25867 93.57 9.088 94.3274 9.088C95.106 9.088 95.81 9.27467 96.4394 9.648C97.0794 10.0213 97.5807 10.5493 97.9434 11.232C98.306 11.904 98.4874 12.688 98.4874 13.584C98.4874 14.4693 98.306 15.2587 97.9434 15.952C97.5807 16.6453 97.0794 17.184 96.4394 17.568C95.81 17.952 95.106 18.144 94.3274 18.144C93.5807 18.144 92.9194 17.9787 92.3434 17.648C91.778 17.3067 91.346 16.8853 91.0474 16.384V22.16H89.5914V9.232H91.0474V10.848ZM96.9994 13.584C96.9994 12.9227 96.866 12.3467 96.5994 11.856C96.3327 11.3653 95.97 10.992 95.5114 10.736C95.0634 10.48 94.5674 10.352 94.0234 10.352C93.49 10.352 92.994 10.4853 92.5354 10.752C92.0874 11.008 91.7247 11.3867 91.4474 11.888C91.1807 12.3787 91.0474 12.9493 91.0474 13.6C91.0474 14.2613 91.1807 14.8427 91.4474 15.344C91.7247 15.8347 92.0874 16.2133 92.5354 16.48C92.994 16.736 93.49 16.864 94.0234 16.864C94.5674 16.864 95.0634 16.736 95.5114 16.48C95.97 16.2133 96.3327 15.8347 96.5994 15.344C96.866 14.8427 96.9994 14.256 96.9994 13.584ZM101.86 6.16V18H100.404V6.16H101.86ZM108.165 18.144C107.344 18.144 106.597 17.9573 105.925 17.584C105.264 17.2107 104.741 16.6827 104.357 16C103.984 15.3067 103.797 14.5067 103.797 13.6C103.797 12.704 103.989 11.9147 104.373 11.232C104.768 10.5387 105.301 10.0107 105.973 9.648C106.645 9.27467 107.397 9.088 108.229 9.088C109.061 9.088 109.813 9.27467 110.485 9.648C111.157 10.0107 111.685 10.5333 112.069 11.216C112.464 11.8987 112.661 12.6933 112.661 13.6C112.661 14.5067 112.459 15.3067 112.053 16C111.659 16.6827 111.12 17.2107 110.437 17.584C109.755 17.9573 108.997 18.144 108.165 18.144ZM108.165 16.864C108.688 16.864 109.179 16.7413 109.637 16.496C110.096 16.2507 110.464 15.8827 110.741 15.392C111.029 14.9013 111.173 14.304 111.173 13.6C111.173 12.896 111.035 12.2987 110.757 11.808C110.48 11.3173 110.117 10.9547 109.669 10.72C109.221 10.4747 108.736 10.352 108.213 10.352C107.68 10.352 107.189 10.4747 106.741 10.72C106.304 10.9547 105.952 11.3173 105.685 11.808C105.419 12.2987 105.285 12.896 105.285 13.6C105.285 14.3147 105.413 14.9173 105.669 15.408C105.936 15.8987 106.288 16.2667 106.725 16.512C107.163 16.7467 107.643 16.864 108.165 16.864ZM122.128 9.232L116.848 22.128H115.344L117.072 17.904L113.536 9.232H115.152L117.904 16.336L120.624 9.232H122.128ZM134.135 9.072C134.818 9.072 135.426 9.216 135.959 9.504C136.493 9.78133 136.914 10.2027 137.223 10.768C137.533 11.3333 137.687 12.0213 137.687 12.832V18H136.247V13.04C136.247 12.1653 136.029 11.4987 135.591 11.04C135.165 10.5707 134.583 10.336 133.847 10.336C133.09 10.336 132.487 10.5813 132.039 11.072C131.591 11.552 131.367 12.2507 131.367 13.168V18H129.927V13.04C129.927 12.1653 129.709 11.4987 129.271 11.04C128.845 10.5707 128.263 10.336 127.527 10.336C126.77 10.336 126.167 10.5813 125.719 11.072C125.271 11.552 125.047 12.2507 125.047 13.168V18H123.591V9.232H125.047V10.496C125.335 10.0373 125.719 9.68533 126.199 9.44C126.69 9.19467 127.229 9.072 127.815 9.072C128.551 9.072 129.202 9.23733 129.767 9.568C130.333 9.89867 130.754 10.384 131.031 11.024C131.277 10.4053 131.682 9.92533 132.247 9.584C132.813 9.24267 133.442 9.072 134.135 9.072ZM148.076 13.28C148.076 13.5573 148.06 13.8507 148.028 14.16H141.02C141.073 15.024 141.366 15.7013 141.9 16.192C142.444 16.672 143.1 16.912 143.868 16.912C144.497 16.912 145.02 16.768 145.436 16.48C145.862 16.1813 146.161 15.7867 146.332 15.296H147.9C147.665 16.1387 147.196 16.8267 146.492 17.36C145.788 17.8827 144.913 18.144 143.868 18.144C143.036 18.144 142.289 17.9573 141.628 17.584C140.977 17.2107 140.465 16.6827 140.092 16C139.718 15.3067 139.532 14.5067 139.532 13.6C139.532 12.6933 139.713 11.8987 140.076 11.216C140.438 10.5333 140.945 10.0107 141.596 9.648C142.257 9.27467 143.014 9.088 143.868 9.088C144.7 9.088 145.436 9.26933 146.076 9.632C146.716 9.99467 147.206 10.496 147.548 11.136C147.9 11.7653 148.076 12.48 148.076 13.28ZM146.572 12.976C146.572 12.4213 146.449 11.9467 146.204 11.552C145.958 11.1467 145.622 10.8427 145.196 10.64C144.78 10.4267 144.316 10.32 143.804 10.32C143.068 10.32 142.438 10.5547 141.916 11.024C141.404 11.4933 141.11 12.144 141.036 12.976H146.572ZM154.27 9.072C155.336 9.072 156.2 9.39733 156.862 10.048C157.523 10.688 157.854 11.616 157.854 12.832V18H156.414V13.04C156.414 12.1653 156.195 11.4987 155.758 11.04C155.32 10.5707 154.723 10.336 153.966 10.336C153.198 10.336 152.584 10.576 152.126 11.056C151.678 11.536 151.454 12.2347 151.454 13.152V18H149.998V9.232H151.454V10.48C151.742 10.032 152.131 9.68533 152.622 9.44C153.123 9.19467 153.672 9.072 154.27 9.072ZM162.008 10.432V15.6C162.008 16.0267 162.099 16.3307 162.28 16.512C162.461 16.6827 162.776 16.768 163.224 16.768H164.296V18H162.984C162.173 18 161.565 17.8133 161.16 17.44C160.755 17.0667 160.552 16.4533 160.552 15.6V10.432H159.416V9.232H160.552V7.024H162.008V9.232H164.296V10.432H162.008Z" fill="#535352"/>
<path d="M11 11.0004V7.00043H9V11.0004H5V13.0004H9V17.0004H11V13.0004H15V11.0004H11ZM10 22.0004C7.34784 22.0004 4.8043 20.9469 2.92893 19.0715C1.05357 17.1961 0 14.6526 0 12.0004C0 9.34826 1.05357 6.80472 2.92893 4.92936C4.8043 3.054 7.34784 2.00043 10 2.00043C12.6522 2.00043 15.1957 3.054 17.0711 4.92936C18.9464 6.80472 20 9.34826 20 12.0004C20 14.6526 18.9464 17.1961 17.0711 19.0715C15.1957 20.9469 12.6522 22.0004 10 22.0004Z" fill="#535352"/>
</svg>
