<svg width="114" height="38" viewBox="0 0 114 38" fill="none" xmlns="http://www.w3.org/2000/svg">
<path d="M0 19C0 8.50659 8.50659 0 19 0H114V38H19C8.50659 38 0 29.4934 0 19Z" fill="#232725"/>
<path d="M20.576 15.4V13.336H24.432V25H22.128V15.4H20.576ZM26.6449 19.016C26.6449 17.1707 26.9755 15.7253 27.6369 14.68C28.3089 13.6347 29.4182 13.112 30.9649 13.112C32.5115 13.112 33.6155 13.6347 34.2769 14.68C34.9489 15.7253 35.2849 17.1707 35.2849 19.016C35.2849 20.872 34.9489 22.328 34.2769 23.384C33.6155 24.44 32.5115 24.968 30.9649 24.968C29.4182 24.968 28.3089 24.44 27.6369 23.384C26.9755 22.328 26.6449 20.872 26.6449 19.016ZM33.0769 19.016C33.0769 18.2267 33.0235 17.5653 32.9169 17.032C32.8209 16.488 32.6182 16.0453 32.3089 15.704C32.0102 15.3627 31.5622 15.192 30.9649 15.192C30.3675 15.192 29.9142 15.3627 29.6049 15.704C29.3062 16.0453 29.1035 16.488 28.9969 17.032C28.9009 17.5653 28.8529 18.2267 28.8529 19.016C28.8529 19.8267 28.9009 20.5093 28.9969 21.064C29.0929 21.608 29.2955 22.0507 29.6049 22.392C29.9142 22.7227 30.3675 22.888 30.9649 22.888C31.5622 22.888 32.0155 22.7227 32.3249 22.392C32.6342 22.0507 32.8369 21.608 32.9329 21.064C33.0289 20.5093 33.0769 19.8267 33.0769 19.016ZM36.9886 19.016C36.9886 17.1707 37.3193 15.7253 37.9806 14.68C38.6526 13.6347 39.762 13.112 41.3086 13.112C42.8553 13.112 43.9593 13.6347 44.6206 14.68C45.2926 15.7253 45.6286 17.1707 45.6286 19.016C45.6286 20.872 45.2926 22.328 44.6206 23.384C43.9593 24.44 42.8553 24.968 41.3086 24.968C39.762 24.968 38.6526 24.44 37.9806 23.384C37.3193 22.328 36.9886 20.872 36.9886 19.016ZM43.4206 19.016C43.4206 18.2267 43.3673 17.5653 43.2606 17.032C43.1646 16.488 42.962 16.0453 42.6526 15.704C42.354 15.3627 41.906 15.192 41.3086 15.192C40.7113 15.192 40.258 15.3627 39.9486 15.704C39.65 16.0453 39.4473 16.488 39.3406 17.032C39.2446 17.5653 39.1966 18.2267 39.1966 19.016C39.1966 19.8267 39.2446 20.5093 39.3406 21.064C39.4366 21.608 39.6393 22.0507 39.9486 22.392C40.258 22.7227 40.7113 22.888 41.3086 22.888C41.906 22.888 42.3593 22.7227 42.6686 22.392C42.978 22.0507 43.1806 21.608 43.2766 21.064C43.3726 20.5093 43.4206 19.8267 43.4206 19.016ZM47.3324 19.016C47.3324 17.1707 47.663 15.7253 48.3244 14.68C48.9964 13.6347 50.1057 13.112 51.6524 13.112C53.199 13.112 54.303 13.6347 54.9644 14.68C55.6364 15.7253 55.9724 17.1707 55.9724 19.016C55.9724 20.872 55.6364 22.328 54.9644 23.384C54.303 24.44 53.199 24.968 51.6524 24.968C50.1057 24.968 48.9964 24.44 48.3244 23.384C47.663 22.328 47.3324 20.872 47.3324 19.016ZM53.7644 19.016C53.7644 18.2267 53.711 17.5653 53.6044 17.032C53.5084 16.488 53.3057 16.0453 52.9964 15.704C52.6977 15.3627 52.2497 15.192 51.6524 15.192C51.055 15.192 50.6017 15.3627 50.2924 15.704C49.9937 16.0453 49.791 16.488 49.6844 17.032C49.5884 17.5653 49.5404 18.2267 49.5404 19.016C49.5404 19.8267 49.5884 20.5093 49.6844 21.064C49.7804 21.608 49.983 22.0507 50.2924 22.392C50.6017 22.7227 51.055 22.888 51.6524 22.888C52.2497 22.888 52.703 22.7227 53.0124 22.392C53.3217 22.0507 53.5244 21.608 53.6204 21.064C53.7164 20.5093 53.7644 19.8267 53.7644 19.016ZM63.9526 13.832V20.744C63.9526 21.5013 64.15 22.0827 64.5446 22.488C64.9393 22.8827 65.494 23.08 66.2086 23.08C66.934 23.08 67.494 22.8827 67.8886 22.488C68.2833 22.0827 68.4806 21.5013 68.4806 20.744V13.832H70.7366V20.728C70.7366 21.6773 70.5286 22.4827 70.1126 23.144C69.7073 23.7947 69.158 24.2853 68.4646 24.616C67.782 24.9467 67.0193 25.112 66.1766 25.112C65.3446 25.112 64.5873 24.9467 63.9046 24.616C63.2326 24.2853 62.6993 23.7947 62.3046 23.144C61.91 22.4827 61.7126 21.6773 61.7126 20.728V13.832H63.9526ZM76.7569 25.112C75.9782 25.112 75.2742 24.9787 74.6449 24.712C74.0262 24.4453 73.5355 24.0613 73.1729 23.56C72.8102 23.0587 72.6235 22.4667 72.6129 21.784H75.0129C75.0449 22.2427 75.2049 22.6053 75.4929 22.872C75.7915 23.1387 76.1969 23.272 76.7089 23.272C77.2315 23.272 77.6422 23.1493 77.9409 22.904C78.2395 22.648 78.3889 22.3173 78.3889 21.912C78.3889 21.5813 78.2875 21.3093 78.0849 21.096C77.8822 20.8827 77.6262 20.7173 77.3169 20.6C77.0182 20.472 76.6022 20.3333 76.0689 20.184C75.3435 19.9707 74.7515 19.7627 74.2929 19.56C73.8449 19.3467 73.4555 19.032 73.1249 18.616C72.8049 18.1893 72.6449 17.624 72.6449 16.92C72.6449 16.2587 72.8102 15.6827 73.1409 15.192C73.4715 14.7013 73.9355 14.328 74.5329 14.072C75.1302 13.8053 75.8129 13.672 76.5809 13.672C77.7329 13.672 78.6662 13.9547 79.3809 14.52C80.1062 15.0747 80.5062 15.8533 80.5809 16.856H78.1169C78.0955 16.472 77.9302 16.1573 77.6209 15.912C77.3222 15.656 76.9222 15.528 76.4209 15.528C75.9835 15.528 75.6315 15.64 75.3649 15.864C75.1089 16.088 74.9809 16.4133 74.9809 16.84C74.9809 17.1387 75.0769 17.3893 75.2689 17.592C75.4715 17.784 75.7169 17.944 76.0049 18.072C76.3035 18.1893 76.7195 18.328 77.2529 18.488C77.9782 18.7013 78.5702 18.9147 79.0289 19.128C79.4875 19.3413 79.8822 19.6613 80.2129 20.088C80.5435 20.5147 80.7089 21.0747 80.7089 21.768C80.7089 22.3653 80.5542 22.92 80.2449 23.432C79.9355 23.944 79.4822 24.3547 78.8849 24.664C78.2875 24.9627 77.5782 25.112 76.7569 25.112ZM86.5549 13.832C87.7282 13.832 88.7575 14.0613 89.6429 14.52C90.5389 14.9787 91.2269 15.6347 91.7069 16.488C92.1975 17.3307 92.4429 18.312 92.4429 19.432C92.4429 20.552 92.1975 21.5333 91.7069 22.376C91.2269 23.208 90.5389 23.8533 89.6429 24.312C88.7575 24.7707 87.7282 25 86.5549 25H82.6509V13.832H86.5549ZM86.4749 23.096C87.6482 23.096 88.5549 22.776 89.1949 22.136C89.8349 21.496 90.1549 20.5947 90.1549 19.432C90.1549 18.2693 89.8349 17.3627 89.1949 16.712C88.5549 16.0507 87.6482 15.72 86.4749 15.72H84.8909V23.096H86.4749Z" fill="white"/>
</svg>
