<svg width="210" height="56" viewBox="0 0 210 56" fill="none" xmlns="http://www.w3.org/2000/svg">
<circle cx="27.5" cy="27.5" r="27.5" fill="#DE4A2C"/>
<path d="M26.692 39V17.75H23.53V14.214H30.602V39H26.692Z" fill="white"/>
<circle cx="182.5" cy="27.5" r="27.5" fill="#DE4A2C"/>
<path d="M174.734 38.66V35.838C180.582 30.704 186.736 26.216 186.736 21.354C186.736 18.77 185.614 17.002 182.724 17.002C180.004 17.002 178.542 18.906 178.44 21.694H174.7C174.836 16.322 178.304 13.704 182.69 13.704C187.722 13.704 190.578 16.73 190.578 21.184C190.578 27.202 184.458 31.792 180.48 35.43H191.258V38.66H174.734Z" fill="white"/>
<path d="M65 53H145" stroke="#DE4A2C" stroke-width="5" stroke-linecap="round"/>
</svg>
