<svg width="80" height="87" viewBox="0 0 80 87" fill="none" xmlns="http://www.w3.org/2000/svg">
<path d="M52.6667 10.3158V2M52.6667 10.3158V18.6316M52.6667 10.3158H33.6667M2 25.2632V72.6842C2 74.8897 2.88968 77.0048 4.47332 78.5644C6.05696 80.1239 8.20484 81 10.4444 81H69.5556C71.7952 81 73.943 80.1239 75.5267 78.5644C77.1103 77.0048 78 74.8897 78 72.6842V25.2632M2 25.2632H78M2 25.2632V18.6316C2 16.4261 2.88968 14.3109 4.47332 12.7514C6.05696 11.1919 8.20484 10.3158 10.4444 10.3158H18.8889M78 25.2632V18.6316C78 16.4261 77.1103 14.3109 75.5267 12.7514C73.943 11.1919 71.7952 10.3158 69.5556 10.3158H67.4444M18.8889 2V18.6316" stroke="#E6E6E6" stroke-width="3" stroke-linecap="round" stroke-linejoin="round"/>
<path d="M13.025 68.55V63.87C20.45 57.57 28.235 51.765 28.235 45.735C28.235 42.81 26.93 40.83 23.825 40.83C20.81 40.83 19.145 42.99 19.1 46.455H12.98C13.205 38.94 18.02 35.475 23.915 35.475C30.98 35.475 34.535 39.66 34.535 45.375C34.535 52.98 27.2 58.92 21.98 63.33H35.255V68.55H13.025ZM42.2848 36.105H62.6248V41.64H48.0448V49.335C49.2598 47.85 51.7348 46.68 54.4798 46.68C62.1298 46.68 64.7398 52.44 64.7398 57.525C64.7398 64.23 60.8698 69 53.3998 69C46.3348 69 42.2848 65.085 41.7448 59.73H47.8648C48.4048 62.025 50.2498 63.69 53.3098 63.69C56.9998 63.69 58.6648 61.08 58.6648 57.615C58.6648 53.925 56.8198 51.9 53.2648 51.9C50.6548 51.9 48.9898 53.34 48.3148 55.365H42.2848V36.105Z" fill="#82D0FC"/>
</svg>
