<svg width="20" height="20" viewBox="0 0 20 20" fill="none" xmlns="http://www.w3.org/2000/svg">
<path d="M12.6667 19.3333H12C12 19.4571 12.0345 19.5785 12.0996 19.6838C12.1647 19.7891 12.2578 19.8742 12.3685 19.9296C12.4793 19.985 12.6032 20.0084 12.7265 19.9973C12.8498 19.9862 12.9676 19.941 13.0667 19.8667L12.6667 19.3333ZM15.3333 17.3333L15.7333 16.8C15.6179 16.7135 15.4776 16.6667 15.3333 16.6667C15.1891 16.6667 15.0487 16.7135 14.9333 16.8L15.3333 17.3333ZM18 19.3333L17.6 19.8667C17.699 19.941 17.8168 19.9862 17.9401 19.9973C18.0634 20.0084 18.1874 19.985 18.2981 19.9296C18.4089 19.8742 18.502 19.7891 18.5671 19.6838C18.6322 19.5785 18.6667 19.4571 18.6667 19.3333H18ZM15.3333 14.6667C14.4493 14.6667 13.6014 14.3155 12.9763 13.6904C12.3512 13.0652 12 12.2174 12 11.3333H10.6667C10.6667 12.571 11.1583 13.758 12.0335 14.6332C12.9087 15.5083 14.0957 16 15.3333 16V14.6667ZM18.6667 11.3333C18.6667 12.2174 18.3155 13.0652 17.6904 13.6904C17.0652 14.3155 16.2174 14.6667 15.3333 14.6667V16C16.571 16 17.758 15.5083 18.6332 14.6332C19.5083 13.758 20 12.571 20 11.3333H18.6667ZM15.3333 8C16.2174 8 17.0652 8.35119 17.6904 8.97631C18.3155 9.60143 18.6667 10.4493 18.6667 11.3333H20C20 10.0957 19.5083 8.90867 18.6332 8.0335C17.758 7.15833 16.571 6.66667 15.3333 6.66667V8ZM15.3333 6.66667C14.0957 6.66667 12.9087 7.15833 12.0335 8.0335C11.1583 8.90867 10.6667 10.0957 10.6667 11.3333H12C12 10.4493 12.3512 9.60143 12.9763 8.97631C13.6014 8.35119 14.4493 8 15.3333 8V6.66667ZM12 14V19.3333H13.3333V14H12ZM13.0667 19.8667L15.7333 17.8667L14.9333 16.8L12.2667 18.8L13.0667 19.8667ZM14.9333 17.8667L17.6 19.8667L18.4 18.8L15.7333 16.8L14.9333 17.8667ZM18.6667 19.3333V14H17.3333V19.3333H18.6667ZM20 6.66667V2H18.6667V6.66667H20ZM18 0H2V1.33333H18V0ZM0 2V18H1.33333V2H0ZM2 20H10.6667V18.6667H2V20ZM0 18C0 18.5304 0.210714 19.0391 0.585786 19.4142C0.960859 19.7893 1.46957 20 2 20V18.6667C1.82319 18.6667 1.65362 18.5964 1.5286 18.4714C1.40357 18.3464 1.33333 18.1768 1.33333 18H0ZM2 0C1.46957 0 0.960859 0.210714 0.585786 0.585786C0.210714 0.960859 0 1.46957 0 2H1.33333C1.33333 1.82319 1.40357 1.65362 1.5286 1.5286C1.65362 1.40357 1.82319 1.33333 2 1.33333V0ZM20 2C20 1.46957 19.7893 0.960859 19.4142 0.585786C19.0391 0.210714 18.5304 0 18 0V1.33333C18.1768 1.33333 18.3464 1.40357 18.4714 1.5286C18.5964 1.65362 18.6667 1.82319 18.6667 2H20ZM4 6.66667H10.6667V5.33333H4V6.66667ZM4 10.6667H8V9.33333H4V10.6667Z" fill="white"/>
</svg>
