<svg width="19" height="19" viewBox="0 0 19 19" fill="none" xmlns="http://www.w3.org/2000/svg">
<path d="M0 15.8333H7.91667V17.4167H0V15.8333ZM0 11.0833H7.91667V12.6667H0V11.0833ZM17.4167 7.91667H1.58333C1.16341 7.91667 0.76068 7.74985 0.463748 7.45292C0.166815 7.15599 0 6.75326 0 6.33333V1.58333C0 1.16341 0.166815 0.76068 0.463748 0.463748C0.76068 0.166815 1.16341 0 1.58333 0H17.4167C17.8366 0 18.2393 0.166815 18.5363 0.463748C18.8332 0.76068 19 1.16341 19 1.58333V6.33333C19 6.75326 18.8332 7.15599 18.5363 7.45292C18.2393 7.74985 17.8366 7.91667 17.4167 7.91667ZM1.58333 1.58333V6.33333H17.4167V1.58333H1.58333ZM17.4167 19H12.6667C12.2467 19 11.844 18.8332 11.5471 18.5363C11.2501 18.2393 11.0833 17.8366 11.0833 17.4167V12.6667C11.0833 12.2467 11.2501 11.844 11.5471 11.5471C11.844 11.2501 12.2467 11.0833 12.6667 11.0833H17.4167C17.8366 11.0833 18.2393 11.2501 18.5363 11.5471C18.8332 11.844 19 12.2467 19 12.6667V17.4167C19 17.8366 18.8332 18.2393 18.5363 18.5363C18.2393 18.8332 17.8366 19 17.4167 19ZM12.6667 12.6667V17.4167H17.4167V12.6667H12.6667Z" fill="white"/>
</svg>
