<svg width="62" height="62" viewBox="0 0 62 62" fill="none" xmlns="http://www.w3.org/2000/svg">
<path d="M19.6528 11.3466C22.3387 9.79587 25.1753 8.84648 28.1624 8.49841C31.1496 8.15034 34.0505 8.35341 36.8653 9.10762C39.68 9.86183 42.2939 11.1364 44.7068 12.9315C47.1197 14.7265 49.1015 16.9669 50.6522 19.6528C52.2218 22.3715 53.1758 25.2159 53.514 28.186C53.8522 31.1561 53.6446 34.0492 52.8912 36.8653C52.1377 39.6813 50.8631 42.2952 49.0673 44.7068C47.2716 47.1184 45.0311 49.1002 42.346 50.6522C41.7892 50.9737 41.2131 51.0547 40.618 50.8952C40.0228 50.7358 39.5655 50.3779 39.246 49.8216C38.9266 49.2653 38.8456 48.6893 39.003 48.0936C39.1605 47.4978 39.5183 47.0405 40.0767 46.7217C44.433 44.2065 47.2586 40.533 48.5532 35.7013C49.8479 30.8695 49.2374 26.2765 46.7217 21.9221C44.206 17.5678 40.5325 14.7423 35.7013 13.4456C30.8701 12.1488 26.277 12.7594 21.9222 15.2771C17.5673 17.7949 14.7414 21.4677 13.4445 26.2956C12.1475 31.1234 12.7584 35.7171 15.2772 40.0766C15.5986 40.6335 15.6793 41.2088 15.519 41.8027C15.3588 42.3966 15.0013 42.8545 14.4465 43.1766C13.8918 43.4986 13.3158 43.5796 12.7185 43.4196C12.1213 43.2596 11.6639 42.9017 11.3466 42.346C9.7959 39.6601 8.84651 36.8235 8.49844 33.8364C8.15037 30.8492 8.35306 27.9476 9.10651 25.1315C9.85996 22.3155 11.1267 19.7062 12.9068 17.3036C14.6868 14.9011 16.9355 12.9154 19.6528 11.3466Z" fill="#E3E3E3"/>
<path d="M30.9988 53.999C27.8555 53.999 24.8847 53.3949 22.0863 52.1866C19.288 50.9784 16.8446 49.33 14.7562 47.2416C12.6678 45.1532 11.0195 42.7099 9.81124 39.9115C8.60297 37.1132 7.99884 34.1424 7.99884 30.999C7.99884 27.8174 8.60297 24.8373 9.81124 22.0589C11.0195 19.2805 12.6678 16.8464 14.7562 14.7564C16.8446 12.6665 19.288 11.0182 22.0863 9.81142C24.8847 8.60469 27.8555 8.00056 30.9988 7.99902C31.6505 7.99902 32.1971 8.21982 32.6387 8.66142C33.0803 9.10302 33.3004 9.64889 33.2988 10.299C33.2973 10.9492 33.0765 11.4958 32.6364 11.9389C32.1964 12.3821 31.6505 12.6021 30.9988 12.599C25.9005 12.599 21.5589 14.3915 17.9739 17.9764C14.389 21.5614 12.5973 25.9022 12.5988 30.999C12.6004 36.0958 14.3928 40.4375 17.9762 44.0239C21.5596 47.6104 25.9005 49.4021 30.9988 49.399C36.0972 49.396 40.4388 47.6043 44.0237 44.0239C47.6086 40.4436 49.4003 36.102 49.3988 30.999C49.3988 30.3474 49.6196 29.8015 50.0612 29.3614C50.5028 28.9214 51.0487 28.7006 51.6988 28.699C52.3489 28.6975 52.8956 28.9183 53.3387 29.3614C53.7818 29.8046 54.0019 30.3504 53.9988 30.999C53.9988 34.1424 53.3947 37.1132 52.1864 39.9115C50.9781 42.7099 49.3298 45.154 47.2414 47.2439C45.153 49.3339 42.7188 50.9822 39.9389 52.1889C37.159 53.3957 34.179 53.999 30.9988 53.999Z" fill="#0F9015"/>
<path d="M20.4898 25.8219H27.2378V27.2779L23.5138 35.9999H21.5258L25.2778 27.5019H20.4898V25.8219ZM29.5317 35.9999V27.5999H28.1737V25.7939H31.5477V35.9999H29.5317ZM33.26 28.2999C33.26 26.8439 34.212 26.0319 35.486 26.0319C36.76 26.0319 37.712 26.8439 37.712 28.2999C37.712 29.7699 36.76 30.5819 35.486 30.5819C34.212 30.5819 33.26 29.7699 33.26 28.2999ZM35.472 27.2079C34.996 27.2079 34.702 27.5299 34.702 28.2999C34.702 29.0699 34.996 29.4059 35.472 29.4059C35.962 29.4059 36.27 29.0699 36.27 28.2999C36.27 27.5299 35.962 27.2079 35.472 27.2079ZM34.842 35.9999L40.33 26.1999H42.248L36.746 35.9999H34.842ZM39.406 33.8859C39.406 32.4159 40.358 31.6179 41.632 31.6179C42.892 31.6179 43.83 32.4159 43.83 33.8859C43.83 35.3699 42.892 36.1679 41.632 36.1679C40.358 36.1679 39.406 35.3699 39.406 33.8859ZM41.618 32.7939C41.128 32.7939 40.82 33.1159 40.82 33.8859C40.82 34.6699 41.128 34.9919 41.618 34.9919C42.094 34.9919 42.402 34.6699 42.402 33.8859C42.402 33.1159 42.094 32.7939 41.618 32.7939Z" fill="black"/>
</svg>
