<svg width="207" height="44" viewBox="0 0 207 44" fill="none" xmlns="http://www.w3.org/2000/svg">
<path d="M0 22C0 9.84974 9.84974 0 22 0H207V44H22C9.84974 44 0 34.1503 0 22Z" fill="#8C2036"/>
<path d="M20.688 22.416C20.688 21.328 20.9333 20.352 21.424 19.488C21.9147 18.6133 22.5813 17.9307 23.424 17.44C24.2773 16.9493 25.2213 16.704 26.256 16.704C27.472 16.704 28.5333 16.9973 29.44 17.584C30.3467 18.1707 31.008 19.0027 31.424 20.08H29.68C29.3707 19.408 28.9227 18.8907 28.336 18.528C27.76 18.1653 27.0667 17.984 26.256 17.984C25.4773 17.984 24.7787 18.1653 24.16 18.528C23.5413 18.8907 23.056 19.408 22.704 20.08C22.352 20.7413 22.176 21.52 22.176 22.416C22.176 23.3013 22.352 24.08 22.704 24.752C23.056 25.4133 23.5413 25.9253 24.16 26.288C24.7787 26.6507 25.4773 26.832 26.256 26.832C27.0667 26.832 27.76 26.656 28.336 26.304C28.9227 25.9413 29.3707 25.424 29.68 24.752H31.424C31.008 25.8187 30.3467 26.6453 29.44 27.232C28.5333 27.808 27.472 28.096 26.256 28.096C25.2213 28.096 24.2773 27.856 23.424 27.376C22.5813 26.8853 21.9147 26.208 21.424 25.344C20.9333 24.48 20.688 23.504 20.688 22.416ZM37.4154 28.144C36.594 28.144 35.8474 27.9573 35.1754 27.584C34.514 27.2107 33.9914 26.6827 33.6074 26C33.234 25.3067 33.0474 24.5067 33.0474 23.6C33.0474 22.704 33.2394 21.9147 33.6234 21.232C34.018 20.5387 34.5514 20.0107 35.2234 19.648C35.8954 19.2747 36.6474 19.088 37.4794 19.088C38.3114 19.088 39.0634 19.2747 39.7354 19.648C40.4074 20.0107 40.9354 20.5333 41.3194 21.216C41.714 21.8987 41.9114 22.6933 41.9114 23.6C41.9114 24.5067 41.7087 25.3067 41.3034 26C40.9087 26.6827 40.37 27.2107 39.6874 27.584C39.0047 27.9573 38.2474 28.144 37.4154 28.144ZM37.4154 26.864C37.938 26.864 38.4287 26.7413 38.8874 26.496C39.346 26.2507 39.714 25.8827 39.9914 25.392C40.2794 24.9013 40.4234 24.304 40.4234 23.6C40.4234 22.896 40.2847 22.2987 40.0074 21.808C39.73 21.3173 39.3674 20.9547 38.9194 20.72C38.4714 20.4747 37.986 20.352 37.4634 20.352C36.93 20.352 36.4394 20.4747 35.9914 20.72C35.554 20.9547 35.202 21.3173 34.9354 21.808C34.6687 22.2987 34.5354 22.896 34.5354 23.6C34.5354 24.3147 34.6634 24.9173 34.9194 25.408C35.186 25.8987 35.538 26.2667 35.9754 26.512C36.4127 26.7467 36.8927 26.864 37.4154 26.864ZM48.0978 19.072C49.1644 19.072 50.0284 19.3973 50.6898 20.048C51.3511 20.688 51.6818 21.616 51.6818 22.832V28H50.2418V23.04C50.2418 22.1653 50.0231 21.4987 49.5858 21.04C49.1484 20.5707 48.5511 20.336 47.7938 20.336C47.0258 20.336 46.4124 20.576 45.9538 21.056C45.5058 21.536 45.2818 22.2347 45.2818 23.152V28H43.8258V19.232H45.2818V20.48C45.5698 20.032 45.9591 19.6853 46.4498 19.44C46.9511 19.1947 47.5004 19.072 48.0978 19.072ZM55.8361 20.432V25.6C55.8361 26.0267 55.9268 26.3307 56.1081 26.512C56.2895 26.6827 56.6041 26.768 57.0521 26.768H58.1241V28H56.8121C56.0015 28 55.3935 27.8133 54.9881 27.44C54.5828 27.0667 54.3801 26.4533 54.3801 25.6V20.432H53.2441V19.232H54.3801V17.024H55.8361V19.232H58.1241V20.432H55.8361ZM60.6403 17.808C60.3629 17.808 60.1283 17.712 59.9363 17.52C59.7443 17.328 59.6483 17.0933 59.6483 16.816C59.6483 16.5387 59.7443 16.304 59.9363 16.112C60.1283 15.92 60.3629 15.824 60.6403 15.824C60.9069 15.824 61.1309 15.92 61.3123 16.112C61.5043 16.304 61.6003 16.5387 61.6003 16.816C61.6003 17.0933 61.5043 17.328 61.3123 17.52C61.1309 17.712 60.9069 17.808 60.6403 17.808ZM61.3443 19.232V28H59.8883V19.232H61.3443ZM68.0978 19.072C69.1644 19.072 70.0284 19.3973 70.6898 20.048C71.3511 20.688 71.6818 21.616 71.6818 22.832V28H70.2418V23.04C70.2418 22.1653 70.0231 21.4987 69.5858 21.04C69.1484 20.5707 68.5511 20.336 67.7938 20.336C67.0258 20.336 66.4124 20.576 65.9538 21.056C65.5058 21.536 65.2818 22.2347 65.2818 23.152V28H63.8258V19.232H65.2818V20.48C65.5698 20.032 65.9591 19.6853 66.4498 19.44C66.9511 19.1947 67.5004 19.072 68.0978 19.072ZM81.8361 19.232V28H80.3801V26.704C80.1028 27.152 79.7135 27.504 79.2121 27.76C78.7215 28.0053 78.1775 28.128 77.5801 28.128C76.8975 28.128 76.2841 27.9893 75.7401 27.712C75.1961 27.424 74.7641 26.9973 74.4441 26.432C74.1348 25.8667 73.9801 25.1787 73.9801 24.368V19.232H75.4201V24.176C75.4201 25.04 75.6388 25.7067 76.0761 26.176C76.5135 26.6347 77.1108 26.864 77.8681 26.864C78.6468 26.864 79.2601 26.624 79.7081 26.144C80.1561 25.664 80.3801 24.9653 80.3801 24.048V19.232H81.8361ZM92.2945 23.28C92.2945 23.5573 92.2785 23.8507 92.2465 24.16H85.2385C85.2918 25.024 85.5852 25.7013 86.1185 26.192C86.6625 26.672 87.3185 26.912 88.0865 26.912C88.7158 26.912 89.2385 26.768 89.6545 26.48C90.0812 26.1813 90.3798 25.7867 90.5505 25.296H92.1185C91.8838 26.1387 91.4145 26.8267 90.7105 27.36C90.0065 27.8827 89.1318 28.144 88.0865 28.144C87.2545 28.144 86.5078 27.9573 85.8465 27.584C85.1958 27.2107 84.6838 26.6827 84.3105 26C83.9372 25.3067 83.7505 24.5067 83.7505 23.6C83.7505 22.6933 83.9318 21.8987 84.2945 21.216C84.6572 20.5333 85.1638 20.0107 85.8145 19.648C86.4758 19.2747 87.2332 19.088 88.0865 19.088C88.9185 19.088 89.6545 19.2693 90.2945 19.632C90.9345 19.9947 91.4252 20.496 91.7665 21.136C92.1185 21.7653 92.2945 22.48 92.2945 23.28ZM90.7905 22.976C90.7905 22.4213 90.6678 21.9467 90.4225 21.552C90.1772 21.1467 89.8412 20.8427 89.4145 20.64C88.9985 20.4267 88.5345 20.32 88.0225 20.32C87.2865 20.32 86.6572 20.5547 86.1345 21.024C85.6225 21.4933 85.3292 22.144 85.2545 22.976H90.7905ZM99.938 26.816H103.842V28H98.482V16.848H99.938V26.816ZM113.388 23.28C113.388 23.5573 113.372 23.8507 113.34 24.16H106.332C106.386 25.024 106.679 25.7013 107.212 26.192C107.756 26.672 108.412 26.912 109.18 26.912C109.81 26.912 110.332 26.768 110.748 26.48C111.175 26.1813 111.474 25.7867 111.644 25.296H113.212C112.978 26.1387 112.508 26.8267 111.804 27.36C111.1 27.8827 110.226 28.144 109.18 28.144C108.348 28.144 107.602 27.9573 106.94 27.584C106.29 27.2107 105.778 26.6827 105.404 26C105.031 25.3067 104.844 24.5067 104.844 23.6C104.844 22.6933 105.026 21.8987 105.388 21.216C105.751 20.5333 106.258 20.0107 106.908 19.648C107.57 19.2747 108.327 19.088 109.18 19.088C110.012 19.088 110.748 19.2693 111.388 19.632C112.028 19.9947 112.519 20.496 112.86 21.136C113.212 21.7653 113.388 22.48 113.388 23.28ZM111.884 22.976C111.884 22.4213 111.762 21.9467 111.516 21.552C111.271 21.1467 110.935 20.8427 110.508 20.64C110.092 20.4267 109.628 20.32 109.116 20.32C108.38 20.32 107.751 20.5547 107.228 21.024C106.716 21.4933 106.423 22.144 106.348 22.976H111.884ZM114.766 23.584C114.766 22.688 114.947 21.904 115.31 21.232C115.673 20.5493 116.169 20.0213 116.798 19.648C117.438 19.2747 118.147 19.088 118.926 19.088C119.694 19.088 120.361 19.2533 120.926 19.584C121.491 19.9147 121.913 20.3307 122.19 20.832V19.232H123.662V28H122.19V26.368C121.902 26.88 121.47 27.3067 120.894 27.648C120.329 27.9787 119.667 28.144 118.91 28.144C118.131 28.144 117.427 27.952 116.798 27.568C116.169 27.184 115.673 26.6453 115.31 25.952C114.947 25.2587 114.766 24.4693 114.766 23.584ZM122.19 23.6C122.19 22.9387 122.057 22.3627 121.79 21.872C121.523 21.3813 121.161 21.008 120.702 20.752C120.254 20.4853 119.758 20.352 119.214 20.352C118.67 20.352 118.174 20.48 117.726 20.736C117.278 20.992 116.921 21.3653 116.654 21.856C116.387 22.3467 116.254 22.9227 116.254 23.584C116.254 24.256 116.387 24.8427 116.654 25.344C116.921 25.8347 117.278 26.2133 117.726 26.48C118.174 26.736 118.67 26.864 119.214 26.864C119.758 26.864 120.254 26.736 120.702 26.48C121.161 26.2133 121.523 25.8347 121.79 25.344C122.057 24.8427 122.19 24.2613 122.19 23.6ZM127.579 20.656C127.835 20.1547 128.197 19.7653 128.667 19.488C129.147 19.2107 129.728 19.072 130.411 19.072V20.576H130.027C128.395 20.576 127.579 21.4613 127.579 23.232V28H126.123V19.232H127.579V20.656ZM136.363 19.072C137.43 19.072 138.294 19.3973 138.955 20.048C139.617 20.688 139.947 21.616 139.947 22.832V28H138.507V23.04C138.507 22.1653 138.289 21.4987 137.851 21.04C137.414 20.5707 136.817 20.336 136.059 20.336C135.291 20.336 134.678 20.576 134.219 21.056C133.771 21.536 133.547 22.2347 133.547 23.152V28H132.091V19.232H133.547V20.48C133.835 20.032 134.225 19.6853 134.715 19.44C135.217 19.1947 135.766 19.072 136.363 19.072ZM143.078 17.808C142.8 17.808 142.566 17.712 142.374 17.52C142.182 17.328 142.086 17.0933 142.086 16.816C142.086 16.5387 142.182 16.304 142.374 16.112C142.566 15.92 142.8 15.824 143.078 15.824C143.344 15.824 143.568 15.92 143.75 16.112C143.942 16.304 144.038 16.5387 144.038 16.816C144.038 17.0933 143.942 17.328 143.75 17.52C143.568 17.712 143.344 17.808 143.078 17.808ZM143.782 19.232V28H142.326V19.232H143.782ZM150.535 19.072C151.602 19.072 152.466 19.3973 153.127 20.048C153.789 20.688 154.119 21.616 154.119 22.832V28H152.679V23.04C152.679 22.1653 152.461 21.4987 152.023 21.04C151.586 20.5707 150.989 20.336 150.231 20.336C149.463 20.336 148.85 20.576 148.391 21.056C147.943 21.536 147.719 22.2347 147.719 23.152V28H146.263V19.232H147.719V20.48C148.007 20.032 148.397 19.6853 148.887 19.44C149.389 19.1947 149.938 19.072 150.535 19.072ZM160.114 19.088C160.871 19.088 161.532 19.2533 162.098 19.584C162.674 19.9147 163.1 20.3307 163.378 20.832V19.232H164.85V28.192C164.85 28.992 164.679 29.7013 164.338 30.32C163.996 30.9493 163.506 31.44 162.866 31.792C162.236 32.144 161.5 32.32 160.658 32.32C159.506 32.32 158.546 32.048 157.778 31.504C157.01 30.96 156.556 30.2187 156.418 29.28H157.858C158.018 29.8133 158.348 30.24 158.85 30.56C159.351 30.8907 159.954 31.056 160.658 31.056C161.458 31.056 162.108 30.8053 162.61 30.304C163.122 29.8027 163.378 29.0987 163.378 28.192V26.352C163.09 26.864 162.663 27.2907 162.098 27.632C161.532 27.9733 160.871 28.144 160.114 28.144C159.335 28.144 158.626 27.952 157.986 27.568C157.356 27.184 156.86 26.6453 156.498 25.952C156.135 25.2587 155.954 24.4693 155.954 23.584C155.954 22.688 156.135 21.904 156.498 21.232C156.86 20.5493 157.356 20.0213 157.986 19.648C158.626 19.2747 159.335 19.088 160.114 19.088ZM163.378 23.6C163.378 22.9387 163.244 22.3627 162.978 21.872C162.711 21.3813 162.348 21.008 161.89 20.752C161.442 20.4853 160.946 20.352 160.402 20.352C159.858 20.352 159.362 20.48 158.914 20.736C158.466 20.992 158.108 21.3653 157.842 21.856C157.575 22.3467 157.442 22.9227 157.442 23.584C157.442 24.256 157.575 24.8427 157.842 25.344C158.108 25.8347 158.466 26.2133 158.914 26.48C159.362 26.736 159.858 26.864 160.402 26.864C160.946 26.864 161.442 26.736 161.89 26.48C162.348 26.2133 162.711 25.8347 162.978 25.344C163.244 24.8427 163.378 24.2613 163.378 23.6Z" fill="white"/>
<path d="M186.764 22.4984L178.278 29.8099C178.136 29.9319 177.948 30 177.752 30C177.557 30 177.369 29.9319 177.227 29.8099L177.218 29.8016C177.149 29.7424 177.094 29.6712 177.057 29.5923C177.019 29.5133 177 29.4283 177 29.3424C177 29.2565 177.019 29.1715 177.057 29.0925C177.094 29.0136 177.149 28.9424 177.218 28.8832L185.209 21.9986L177.218 15.1168C177.149 15.0576 177.094 14.9864 177.057 14.9075C177.019 14.8285 177 14.7435 177 14.6576C177 14.5717 177.019 14.4867 177.057 14.4077C177.094 14.3288 177.149 14.2576 177.218 14.1984L177.227 14.1901C177.369 14.0681 177.557 14 177.752 14C177.948 14 178.136 14.0681 178.278 14.1901L186.764 21.5016C186.838 21.5659 186.898 21.6432 186.938 21.7289C186.979 21.8145 187 21.9068 187 22C187 22.0932 186.979 22.1855 186.938 22.2711C186.898 22.3568 186.838 22.4341 186.764 22.4984Z" fill="white"/>
</svg>
