<svg width="240" height="24" viewBox="0 0 240 24" fill="none" xmlns="http://www.w3.org/2000/svg">
<path d="M0 0H226.5L240 24H0V0Z" fill="#232725"/>
<path d="M28.49 12.1C28.49 9.174 30.632 7.102 33.446 7.102C35.616 7.102 37.38 8.264 38.038 10.266H35.784C35.322 9.328 34.482 8.866 33.432 8.866C31.724 8.866 30.506 10.112 30.506 12.1C30.506 14.074 31.724 15.334 33.432 15.334C34.482 15.334 35.322 14.872 35.784 13.92H38.038C37.38 15.936 35.616 17.084 33.446 17.084C30.632 17.084 28.49 15.026 28.49 12.1ZM47.2021 13.122C47.2021 15.558 45.4101 17.126 43.1561 17.126C40.9161 17.126 39.2221 15.558 39.2221 13.122C39.2221 10.672 40.9721 9.118 43.2121 9.118C45.4521 9.118 47.2021 10.672 47.2021 13.122ZM41.2101 13.122C41.2101 14.662 42.1061 15.418 43.1561 15.418C44.1921 15.418 45.1861 14.662 45.1861 13.122C45.1861 11.568 44.2201 10.826 43.1841 10.826C42.1481 10.826 41.2101 11.568 41.2101 13.122ZM55.9618 9.244V17H53.9878V16.02C53.4978 16.678 52.6438 17.098 51.6778 17.098C49.8718 17.098 48.5698 15.922 48.5698 13.794V9.244H50.5298V13.514C50.5298 14.76 51.2158 15.432 52.2518 15.432C53.3158 15.432 53.9878 14.76 53.9878 13.514V9.244H55.9618ZM59.8557 13.136V17H57.8957V9.244H59.8557V10.448C60.3457 9.65 61.1577 9.132 62.2357 9.132V11.19H61.7177C60.5557 11.19 59.8557 11.638 59.8557 13.136ZM69.5758 14.788C69.5758 16.118 68.4138 17.126 66.5238 17.126C64.5778 17.126 63.2198 15.992 63.1358 14.55H65.1098C65.1798 15.138 65.7258 15.586 66.5098 15.586C67.2798 15.586 67.6998 15.236 67.6998 14.788C67.6998 13.402 63.3178 14.284 63.3178 11.442C63.3178 10.154 64.4658 9.118 66.3838 9.118C68.2598 9.118 69.3938 10.14 69.5058 11.68H67.6298C67.5738 11.078 67.0978 10.672 66.3278 10.672C65.5998 10.672 65.2218 10.966 65.2218 11.414C65.2218 12.828 69.5198 11.946 69.5758 14.788ZM74.5168 10.728C73.5788 10.728 72.8368 11.33 72.6828 12.394H76.3648C76.3368 11.372 75.5248 10.728 74.5168 10.728ZM78.1988 14.564C77.7788 15.992 76.4908 17.126 74.5728 17.126C72.3188 17.126 70.6807 15.558 70.6807 13.122C70.6807 10.672 72.2767 9.118 74.5728 9.118C76.8128 9.118 78.3948 10.644 78.3948 12.954C78.3948 13.206 78.3808 13.458 78.3388 13.71H72.6688C72.7668 14.858 73.5508 15.502 74.5308 15.502C75.3708 15.502 75.8328 15.082 76.0848 14.564H78.1988ZM81.8834 15.95C81.8834 16.594 81.3794 17.098 80.6934 17.098C79.9794 17.098 79.4754 16.594 79.4754 15.95C79.4754 15.306 79.9794 14.802 80.6934 14.802C81.3794 14.802 81.8834 15.306 81.8834 15.95ZM81.8834 10.154C81.8834 10.798 81.3794 11.302 80.6934 11.302C79.9794 11.302 79.4754 10.798 79.4754 10.154C79.4754 9.51 79.9794 9.006 80.6934 9.006C81.3794 9.006 81.8834 9.51 81.8834 10.154Z" fill="white"/>
</svg>
