<svg width="21" height="22" viewBox="0 0 21 22" fill="none" xmlns="http://www.w3.org/2000/svg">
<path d="M5.013 1C3.709 1.129 2.831 1.419 2.175 2.076C1 3.253 1 5.148 1 8.939V12.959C1 16.749 1 18.645 2.175 19.823C3.35 21.001 5.242 21 9.025 21H11.032C14.815 21 16.707 21 17.882 19.823C18.949 18.753 19.048 17.106 19.057 13.977" stroke="white" stroke-width="1.5" stroke-linecap="round" stroke-linejoin="round"/>
<path d="M9.02498 5.99998L10.028 9.49998C10.588 10.61 11.291 10.9 13.038 11C14.427 10.966 15.233 10.802 15.921 10.204C16.39 9.79598 16.602 9.18098 16.705 8.56898L17.049 6.49998M19.557 4.49998V9.49998M7.09998 3.93298C8.68698 2.61598 10.101 1.90898 13.034 1.13098C13.3649 1.04362 13.713 1.04535 14.043 1.13598C16.639 1.84998 18.041 2.48398 19.919 3.89398C19.999 3.95398 20.023 4.06598 19.967 4.14898C19.354 5.05098 17.985 5.78198 14.627 7.08398C13.9276 7.35311 13.1524 7.34883 12.456 7.07198C8.87998 5.65198 7.23598 4.89198 7.03598 4.10298C7.02948 4.07149 7.03204 4.03881 7.04337 4.00872C7.0547 3.97863 7.07433 3.95237 7.09998 3.93298Z" stroke="white" stroke-width="1.5" stroke-linecap="round" stroke-linejoin="round"/>
</svg>
