<svg width="19" height="19" viewBox="0 0 19 19" fill="none" xmlns="http://www.w3.org/2000/svg">
<path d="M13.0845 3.33228L15.135 5.38286M14.4028 1.5258L8.85545 7.07311C8.56883 7.35933 8.37335 7.72401 8.29365 8.12116L7.78125 10.6861L10.3462 10.1727C10.7433 10.0933 11.1075 9.89859 11.3942 9.61187L16.9415 4.06456C17.1082 3.89786 17.2405 3.69996 17.3307 3.48216C17.4209 3.26436 17.4673 3.03092 17.4673 2.79518C17.4673 2.55943 17.4209 2.32599 17.3307 2.10819C17.2405 1.89039 17.1082 1.69249 16.9415 1.5258C16.7748 1.3591 16.5769 1.22687 16.3591 1.13665C16.1413 1.04643 15.9079 1 15.6721 1C15.4364 1 15.203 1.04643 14.9852 1.13665C14.7674 1.22687 14.5695 1.3591 14.4028 1.5258Z" stroke="#535352" stroke-width="2" stroke-linecap="round" stroke-linejoin="round"/>
<path d="M15.5294 12.6233V15.5292C15.5294 16.043 15.3253 16.5358 14.962 16.8991C14.5987 17.2624 14.1059 17.4665 13.5921 17.4665H2.93725C2.42346 17.4665 1.93071 17.2624 1.56741 16.8991C1.2041 16.5358 1 16.043 1 15.5292V4.87435C1 4.36056 1.2041 3.86781 1.56741 3.50451C1.93071 3.14121 2.42346 2.9371 2.93725 2.9371H5.84312" stroke="#535352" stroke-width="2" stroke-linecap="round" stroke-linejoin="round"/>
</svg>
