<svg width="62" height="18" viewBox="0 0 62 18" fill="none" xmlns="http://www.w3.org/2000/svg">
<path d="M25.508 4.648V5.764H22.268V8.212H25.148V9.328H22.268V11.884H25.508V13H20.9V4.648H25.508ZM26.773 6.388H28.237L30.109 11.776L31.981 6.388H33.433L30.913 13H29.281L26.773 6.388ZM37.611 7.432C36.687 7.432 35.943 8.056 35.799 9.1H39.459C39.435 8.08 38.631 7.432 37.611 7.432ZM40.707 11.032C40.335 12.184 39.291 13.108 37.671 13.108C35.775 13.108 34.371 11.764 34.371 9.688C34.371 7.612 35.715 6.28 37.671 6.28C39.555 6.28 40.887 7.588 40.887 9.532C40.887 9.76 40.875 9.976 40.839 10.204H35.787C35.883 11.296 36.663 11.956 37.671 11.956C38.511 11.956 38.979 11.548 39.231 11.032H40.707ZM47.2853 13V9.304C47.2853 8.092 46.6253 7.468 45.6293 7.468C44.6213 7.468 43.9613 8.092 43.9613 9.304V13H42.5933V6.388H43.9613V7.144C44.4053 6.604 45.1373 6.28 45.9293 6.28C47.4773 6.28 48.6413 7.252 48.6413 9.1V13H47.2853ZM50.9623 11.164V7.504H50.1823V6.388H50.9623V4.744H52.3423V6.388H53.9503V7.504H52.3423V11.164C52.3423 11.656 52.5343 11.86 53.1103 11.86H53.9503V13H52.8703C51.6943 13 50.9623 12.508 50.9623 11.164ZM60.5031 11.152C60.5031 12.268 59.5311 13.108 57.9711 13.108C56.3871 13.108 55.2711 12.172 55.2111 10.972H56.6271C56.6751 11.512 57.1911 11.956 57.9471 11.956C58.7391 11.956 59.1591 11.62 59.1591 11.164C59.1591 9.868 55.3191 10.612 55.3191 8.188C55.3191 7.132 56.3031 6.28 57.8631 6.28C59.3631 6.28 60.3471 7.084 60.4191 8.404H59.0511C59.0031 7.828 58.5591 7.432 57.8151 7.432C57.0831 7.432 56.6991 7.732 56.6991 8.176C56.6991 9.508 60.4311 8.764 60.5031 11.152Z" fill="black"/>
<rect y="1" width="15" height="15" fill="#82D0FC"/>
</svg>
