<svg width="24" height="24" viewBox="0 0 24 24" fill="none" xmlns="http://www.w3.org/2000/svg">
<path d="M2 10.8532V18.8465C2 21.7591 3.66943 22.4489 5.69332 20.3685L5.70473 20.3575C6.64235 19.4049 8.07165 19.4816 8.88349 20.5218L10.0384 22" stroke="white" stroke-width="1.5" stroke-linecap="round" stroke-linejoin="round"/>
<path d="M21.4385 11.1832V6.51867C21.4385 2.10593 20.3636 1 16.0414 1H7.39703C3.07483 1 2 2.10593 2 6.51867" stroke="white" stroke-width="1.5" stroke-linecap="round" stroke-linejoin="round"/>
<path d="M7.14551 6.47363H12.291" stroke="white" stroke-width="1.5" stroke-linecap="round" stroke-linejoin="round"/>
<path d="M15.1498 6.47363H17.4367" stroke="white" stroke-width="1.5" stroke-linecap="round" stroke-linejoin="round"/>
<path d="M8.28882 10.8532H15.1495" stroke="white" stroke-width="1.5" stroke-linecap="round" stroke-linejoin="round"/>
<path d="M18.8197 14.9799L14.7719 18.8561C14.6118 19.0094 14.4632 19.294 14.4289 19.5021L14.2116 20.9803C14.1316 21.5168 14.5203 21.8892 15.0806 21.8126L16.6243 21.6044C16.8415 21.5716 17.1503 21.4292 17.2989 21.2759L21.3467 17.3999C22.0442 16.7319 22.3758 15.9545 21.3467 14.969C20.329 13.9945 19.5172 14.3119 18.8197 14.9799Z" stroke="white" stroke-width="1.5" stroke-miterlimit="10" stroke-linecap="round" stroke-linejoin="round"/>
<path d="M18.2368 15.537C18.5798 16.7196 19.5403 17.6393 20.7753 17.9678" stroke="white" stroke-width="1.5" stroke-miterlimit="10" stroke-linecap="round" stroke-linejoin="round"/>
</svg>
