<svg width="169" height="36" viewBox="0 0 169 36" fill="none" xmlns="http://www.w3.org/2000/svg">
<path d="M54 12.436V14.47H48.762V17.692H52.776V19.69H48.762V25H46.242V12.436H54ZM58.3069 16.576C58.6309 16.048 59.0509 15.634 59.5669 15.334C60.0949 15.034 60.6949 14.884 61.3669 14.884V17.53H60.7009C59.9089 17.53 59.3089 17.716 58.9009 18.088C58.5049 18.46 58.3069 19.108 58.3069 20.032V25H55.7869V15.028H58.3069V16.576ZM72.3343 19.798C72.3343 20.158 72.3103 20.482 72.2623 20.77H64.9723C65.0323 21.49 65.2843 22.054 65.7283 22.462C66.1723 22.87 66.7183 23.074 67.3663 23.074C68.3023 23.074 68.9683 22.672 69.3643 21.868H72.0823C71.7943 22.828 71.2423 23.62 70.4263 24.244C69.6103 24.856 68.6083 25.162 67.4203 25.162C66.4603 25.162 65.5963 24.952 64.8283 24.532C64.0723 24.1 63.4783 23.494 63.0463 22.714C62.6263 21.934 62.4163 21.034 62.4163 20.014C62.4163 18.982 62.6263 18.076 63.0463 17.296C63.4663 16.516 64.0543 15.916 64.8103 15.496C65.5663 15.076 66.4363 14.866 67.4203 14.866C68.3683 14.866 69.2143 15.07 69.9583 15.478C70.7143 15.886 71.2963 16.468 71.7043 17.224C72.1243 17.968 72.3343 18.826 72.3343 19.798ZM69.7243 19.078C69.7123 18.43 69.4783 17.914 69.0223 17.53C68.5663 17.134 68.0083 16.936 67.3483 16.936C66.7243 16.936 66.1963 17.128 65.7643 17.512C65.3443 17.884 65.0863 18.406 64.9903 19.078H69.7243ZM83.4436 19.798C83.4436 20.158 83.4196 20.482 83.3716 20.77H76.0816C76.1416 21.49 76.3936 22.054 76.8376 22.462C77.2816 22.87 77.8276 23.074 78.4756 23.074C79.4116 23.074 80.0776 22.672 80.4736 21.868H83.1916C82.9036 22.828 82.3516 23.62 81.5356 24.244C80.7196 24.856 79.7176 25.162 78.5296 25.162C77.5696 25.162 76.7056 24.952 75.9376 24.532C75.1816 24.1 74.5876 23.494 74.1556 22.714C73.7356 21.934 73.5256 21.034 73.5256 20.014C73.5256 18.982 73.7356 18.076 74.1556 17.296C74.5756 16.516 75.1636 15.916 75.9196 15.496C76.6756 15.076 77.5456 14.866 78.5296 14.866C79.4776 14.866 80.3236 15.07 81.0676 15.478C81.8236 15.886 82.4056 16.468 82.8136 17.224C83.2336 17.968 83.4436 18.826 83.4436 19.798ZM80.8336 19.078C80.8216 18.43 80.5876 17.914 80.1316 17.53C79.6756 17.134 79.1176 16.936 78.4576 16.936C77.8336 16.936 77.3056 17.128 76.8736 17.512C76.4536 17.884 76.1956 18.406 76.0996 19.078H80.8336ZM92.0921 23.002H96.2321V25H89.5721V12.436H92.0921V23.002ZM107.104 19.798C107.104 20.158 107.08 20.482 107.032 20.77H99.7418C99.8018 21.49 100.054 22.054 100.498 22.462C100.942 22.87 101.488 23.074 102.136 23.074C103.072 23.074 103.738 22.672 104.134 21.868H106.852C106.564 22.828 106.012 23.62 105.196 24.244C104.38 24.856 103.378 25.162 102.19 25.162C101.23 25.162 100.366 24.952 99.5978 24.532C98.8418 24.1 98.2478 23.494 97.8158 22.714C97.3958 21.934 97.1858 21.034 97.1858 20.014C97.1858 18.982 97.3958 18.076 97.8158 17.296C98.2358 16.516 98.8238 15.916 99.5798 15.496C100.336 15.076 101.206 14.866 102.19 14.866C103.138 14.866 103.984 15.07 104.728 15.478C105.484 15.886 106.066 16.468 106.474 17.224C106.894 17.968 107.104 18.826 107.104 19.798ZM104.494 19.078C104.482 18.43 104.248 17.914 103.792 17.53C103.336 17.134 102.778 16.936 102.118 16.936C101.494 16.936 100.966 17.128 100.534 17.512C100.114 17.884 99.8558 18.406 99.7598 19.078H104.494ZM108.295 19.978C108.295 18.97 108.493 18.076 108.889 17.296C109.297 16.516 109.843 15.916 110.527 15.496C111.223 15.076 111.997 14.866 112.849 14.866C113.593 14.866 114.241 15.016 114.793 15.316C115.357 15.616 115.807 15.994 116.143 16.45V15.028H118.681V25H116.143V23.542C115.819 24.01 115.369 24.4 114.793 24.712C114.229 25.012 113.575 25.162 112.831 25.162C111.991 25.162 111.223 24.946 110.527 24.514C109.843 24.082 109.297 23.476 108.889 22.696C108.493 21.904 108.295 20.998 108.295 19.978ZM116.143 20.014C116.143 19.402 116.023 18.88 115.783 18.448C115.543 18.004 115.219 17.668 114.811 17.44C114.403 17.2 113.965 17.08 113.497 17.08C113.029 17.08 112.597 17.194 112.201 17.422C111.805 17.65 111.481 17.986 111.229 18.43C110.989 18.862 110.869 19.378 110.869 19.978C110.869 20.578 110.989 21.106 111.229 21.562C111.481 22.006 111.805 22.348 112.201 22.588C112.609 22.828 113.041 22.948 113.497 22.948C113.965 22.948 114.403 22.834 114.811 22.606C115.219 22.366 115.543 22.03 115.783 21.598C116.023 21.154 116.143 20.626 116.143 20.014ZM123.662 16.576C123.986 16.048 124.406 15.634 124.922 15.334C125.45 15.034 126.05 14.884 126.722 14.884V17.53H126.056C125.264 17.53 124.664 17.716 124.256 18.088C123.86 18.46 123.662 19.108 123.662 20.032V25H121.142V15.028H123.662V16.576ZM133.946 14.884C135.134 14.884 136.094 15.262 136.826 16.018C137.558 16.762 137.924 17.806 137.924 19.15V25H135.404V19.492C135.404 18.7 135.206 18.094 134.81 17.674C134.414 17.242 133.874 17.026 133.19 17.026C132.494 17.026 131.942 17.242 131.534 17.674C131.138 18.094 130.94 18.7 130.94 19.492V25H128.42V15.028H130.94V16.27C131.276 15.838 131.702 15.502 132.218 15.262C132.746 15.01 133.322 14.884 133.946 14.884ZM141.598 13.84C141.154 13.84 140.782 13.702 140.482 13.426C140.194 13.138 140.05 12.784 140.05 12.364C140.05 11.944 140.194 11.596 140.482 11.32C140.782 11.032 141.154 10.888 141.598 10.888C142.042 10.888 142.408 11.032 142.696 11.32C142.996 11.596 143.146 11.944 143.146 12.364C143.146 12.784 142.996 13.138 142.696 13.426C142.408 13.702 142.042 13.84 141.598 13.84ZM142.84 15.028V25H140.32V15.028H142.84ZM150.856 14.884C152.044 14.884 153.004 15.262 153.736 16.018C154.468 16.762 154.834 17.806 154.834 19.15V25H152.314V19.492C152.314 18.7 152.116 18.094 151.72 17.674C151.324 17.242 150.784 17.026 150.1 17.026C149.404 17.026 148.852 17.242 148.444 17.674C148.048 18.094 147.85 18.7 147.85 19.492V25H145.33V15.028H147.85V16.27C148.186 15.838 148.612 15.502 149.128 15.262C149.656 15.01 150.232 14.884 150.856 14.884ZM161.136 14.866C161.88 14.866 162.534 15.016 163.098 15.316C163.662 15.604 164.106 15.982 164.43 16.45V15.028H166.968V25.072C166.968 25.996 166.782 26.818 166.41 27.538C166.038 28.27 165.48 28.846 164.736 29.266C163.992 29.698 163.092 29.914 162.036 29.914C160.62 29.914 159.456 29.584 158.544 28.924C157.644 28.264 157.134 27.364 157.014 26.224H159.516C159.648 26.68 159.93 27.04 160.362 27.304C160.806 27.58 161.34 27.718 161.964 27.718C162.696 27.718 163.29 27.496 163.746 27.052C164.202 26.62 164.43 25.96 164.43 25.072V23.524C164.106 23.992 163.656 24.382 163.08 24.694C162.516 25.006 161.868 25.162 161.136 25.162C160.296 25.162 159.528 24.946 158.832 24.514C158.136 24.082 157.584 23.476 157.176 22.696C156.78 21.904 156.582 20.998 156.582 19.978C156.582 18.97 156.78 18.076 157.176 17.296C157.584 16.516 158.13 15.916 158.814 15.496C159.51 15.076 160.284 14.866 161.136 14.866ZM164.43 20.014C164.43 19.402 164.31 18.88 164.07 18.448C163.83 18.004 163.506 17.668 163.098 17.44C162.69 17.2 162.252 17.08 161.784 17.08C161.316 17.08 160.884 17.194 160.488 17.422C160.092 17.65 159.768 17.986 159.516 18.43C159.276 18.862 159.156 19.378 159.156 19.978C159.156 20.578 159.276 21.106 159.516 21.562C159.768 22.006 160.092 22.348 160.488 22.588C160.896 22.828 161.328 22.948 161.784 22.948C162.252 22.948 162.69 22.834 163.098 22.606C163.506 22.366 163.83 22.03 164.07 21.598C164.31 21.154 164.43 20.626 164.43 20.014Z" fill="#232725"/>
<path d="M1.7803 12.9C3.9512 6.0031 10.4112 1 18.0425 1C26.8791 1 34.1449 7.7099 35 16.3L31.6 15.6081M34.2197 23.1C33.1251 26.5541 30.9587 29.5696 28.0346 31.7093C25.1105 33.8491 21.5808 35.0017 17.9575 35C9.1209 35 1.8551 28.2901 1 19.7L4.4 20.3919" stroke="#232725" stroke-width="1.5" stroke-linecap="round" stroke-linejoin="round"/>
<path d="M18 10L8 15.3333L18 20.6667L27.0909 16.2222V22.4444H28V15.3333M11.6364 19.0489V22.6044L18 26L24.3636 22.6044V19.0489L18 22.4444L11.6364 19.0489Z" fill="#DE4A2C"/>
</svg>
