<svg width="21" height="21" viewBox="0 0 21 21" fill="none" xmlns="http://www.w3.org/2000/svg">
<path d="M10.5 0C4.725 0 0 4.725 0 10.5C0 16.275 4.725 21 10.5 21C16.275 21 21 16.275 21 10.5C21 4.725 16.275 0 10.5 0ZM17.325 6.95625C17.85 6.95625 18.2437 7.35 18.7688 7.35C18.375 7.875 16.6688 7.875 16.1438 7.21875C16.5375 7.0875 16.8 6.95625 17.325 6.95625ZM1.3125 10.5C1.3125 9.975 1.3125 9.45 1.44375 8.79375C1.575 8.79375 1.70625 8.925 1.8375 8.925C1.8375 8.925 1.96875 9.05625 1.96875 9.1875C1.96875 9.58125 2.3625 9.84375 2.625 9.84375C3.675 9.975 4.06875 10.8938 4.9875 11.1562C5.25 11.2875 5.11875 11.55 4.9875 11.8125C4.2 12.8625 4.85625 13.65 5.5125 14.3062C6.16875 14.8312 6.16875 15.3562 6.3 16.1438C6.3 17.0625 6.43125 18.1125 6.825 19.0312C3.54375 17.4562 1.3125 14.3063 1.3125 10.5ZM10.5 19.6875C9.58125 19.6875 8.53125 19.5562 7.74375 19.2937C7.6125 19.0312 7.6125 18.7688 7.74375 18.5063C8.26875 17.4563 8.79375 16.5375 9.45 15.6187C9.7125 15.3562 9.975 15.0938 9.975 14.7C9.975 14.4375 10.1062 14.0437 10.2375 13.7812C10.6313 13.125 10.5 12.7313 9.975 12.6C8.925 12.3375 8.4 11.4187 7.6125 11.025C6.825 10.6312 6.0375 10.3687 5.38125 10.7625C5.11875 10.8938 4.725 11.025 4.725 10.6313C4.725 10.1063 4.06875 9.7125 4.2 9.1875C4.06875 9.1875 3.9375 9.1875 3.80625 9.31875C3.675 9.45 3.54375 9.58125 3.28125 9.45C3.01875 9.1875 3.15 8.925 3.15 8.6625C3.28125 8.4 3.4125 8.26875 3.675 8.1375C4.2 8.00625 4.725 8.00625 4.9875 8.6625C5.38125 7.48125 6.16875 6.825 6.95625 6.3C6.95625 6.3 8.00625 5.38125 8.1375 5.38125C8.26875 5.38125 8.4 5.64375 8.6625 5.775C8.925 5.775 9.05625 5.775 9.05625 5.5125C9.1875 4.85625 8.79375 4.06875 8.26875 3.9375C8.26875 3.80625 8.4 3.80625 8.4 3.80625C8.79375 3.675 9.31875 3.4125 9.1875 3.01875C9.1875 2.49375 8.6625 2.23125 8.1375 2.23125C7.875 2.23125 7.6125 2.23125 7.35 2.3625C6.825 2.625 6.16875 2.8875 5.38125 2.8875C6.825 1.8375 8.6625 1.3125 10.5 1.3125H11.55C10.7625 1.44375 9.975 1.70625 9.45 1.96875C10.2375 2.1 10.3687 2.49375 10.1062 3.15C9.975 3.4125 10.1062 3.675 10.3688 3.80625C10.6313 3.9375 10.8937 3.9375 11.025 3.675C11.2875 3.28125 11.8125 3.15 12.2063 3.01875C12.7312 2.8875 13.125 2.625 13.5188 2.1C13.5188 1.96875 13.65 1.96875 13.7812 1.8375C14.5688 2.1 15.3562 2.625 16.1438 3.15C16.0125 3.15 16.0125 3.28125 15.8813 3.28125C15.6188 3.54375 15.225 3.675 15.6187 4.2C15.75 4.4625 15.6188 4.59375 15.4875 4.725C15.225 4.85625 15.0937 4.725 14.9625 4.59375C14.8312 4.4625 14.8313 4.2 14.4375 4.2C14.3062 4.4625 13.9125 4.59375 13.9125 4.9875C14.5688 4.9875 14.4375 5.5125 14.5688 5.90625C13.7812 6.0375 13.5188 6.43125 13.9125 7.0875C14.0438 7.35 13.7812 7.48125 13.65 7.6125C13.125 8.4 12.6 8.925 12.6 9.84375C12.6 10.7625 13.2562 11.6813 14.3062 11.55C15.4875 11.4187 15.4875 11.4187 15.8813 12.4688C15.8813 12.6 16.0125 12.7312 16.0125 12.8625C16.1437 13.125 16.275 13.3875 16.1438 13.65C15.75 14.7 16.275 15.4875 16.6687 16.275C16.8 16.5375 16.9312 16.6688 17.0625 16.8C15.3562 18.6375 13.125 19.6875 10.5 19.6875Z" fill="white"/>
</svg>
