<svg width="18" height="15" viewBox="0 0 18 15" fill="none" xmlns="http://www.w3.org/2000/svg">
<path d="M8.5133 0C10.7712 0 12.9366 0.790176 14.5331 2.1967C16.1297 3.60322 17.0266 5.51088 17.0266 7.5C17.0266 9.48912 16.1297 11.3968 14.5331 12.8033C12.9366 14.2098 10.7712 15 8.5133 15C6.25543 15 4.09004 14.2098 2.49349 12.8033C0.896934 11.3968 0 9.48912 0 7.5C0 5.51088 0.896934 3.60322 2.49349 2.1967C4.09004 0.790176 6.25543 0 8.5133 0ZM9.7902 4.60467C10.4226 4.60467 10.9358 4.21791 10.9358 3.64474C10.9358 3.07157 10.4214 2.68481 9.7902 2.68481C9.15783 2.68481 8.64707 3.07157 8.64707 3.64474C8.64707 4.21791 9.15783 4.60467 9.7902 4.60467ZM10.0127 10.6332C10.0127 10.5185 10.0577 10.2207 10.0322 10.0514L9.03257 11.0649C8.82584 11.2567 8.56681 11.3895 8.4452 11.3542C8.39002 11.3363 8.34391 11.3017 8.31515 11.2565C8.28639 11.2113 8.27688 11.1586 8.28832 11.1078L9.95438 6.47097C10.0906 5.88279 9.71602 5.34605 8.92191 5.27748C8.08402 5.27748 6.85089 6.02636 6.10056 6.97664C6.10056 7.09021 6.07624 7.37304 6.10178 7.54232L7.10019 6.52775C7.30693 6.33812 7.54772 6.2042 7.66933 6.24063C7.72924 6.25957 7.77834 6.29845 7.80608 6.34893C7.83381 6.39941 7.83798 6.45745 7.81769 6.51061L6.16623 11.1249C5.9753 11.6649 6.33648 12.1941 7.21207 12.3141C8.50114 12.3141 9.26242 11.5835 10.014 10.6332H10.0127Z" fill="#8C2036"/>
</svg>
