<svg width="128" height="23" viewBox="0 0 128 23" fill="none" xmlns="http://www.w3.org/2000/svg">
<path d="M0 9.99878C0 4.47593 4.47715 -0.0012207 10 -0.0012207H128V22.9988H10C4.47715 22.9988 0 18.5216 0 12.9988V9.99878Z" fill="#0F9015"/>
<path d="M14.078 15.9988V6.24078H15.352V15.9988H14.078ZM23.1373 15.9988V11.6588C23.1373 10.0908 22.2833 9.29278 20.9953 9.29278C19.6933 9.29278 18.7973 10.1048 18.7973 11.7568V15.9988H17.5233V8.32678H18.7973V9.41878C19.3013 8.62078 20.2253 8.18678 21.2613 8.18678C23.0393 8.18678 24.3973 9.27878 24.3973 11.4768V15.9988H23.1373ZM31.4848 10.8748H33.3608C34.8168 10.8748 35.4328 10.1888 35.4328 9.09678C35.4328 7.96278 34.8168 7.29078 33.3608 7.29078H31.4848V10.8748ZM36.7348 9.09678C36.7348 10.5808 35.7828 11.9248 33.3608 11.9248H31.4848V15.9988H30.2108V6.24078H33.3608C35.6568 6.24078 36.7348 7.50078 36.7348 9.09678ZM39.5922 11.8268V15.9988H38.3182V8.32678H39.5922V9.57278C40.0262 8.71878 40.8522 8.18678 42.0702 8.18678V9.50278H41.7342C40.5162 9.50278 39.5922 10.0488 39.5922 11.8268ZM50.8209 12.1488C50.8209 14.5848 49.0709 16.1248 46.8869 16.1248C44.7169 16.1248 43.0649 14.5848 43.0649 12.1488C43.0649 9.72678 44.7729 8.20078 46.9429 8.20078C49.1269 8.20078 50.8209 9.72678 50.8209 12.1488ZM44.3669 12.1488C44.3669 14.0948 45.5569 15.0048 46.8869 15.0048C48.2169 15.0048 49.5189 14.0948 49.5189 12.1488C49.5189 10.2168 48.2449 9.30678 46.9289 9.30678C45.5849 9.30678 44.3669 10.2168 44.3669 12.1488ZM52.02 12.1348C52.02 9.74078 53.602 8.20078 55.66 8.20078C57.06 8.20078 58.068 8.90078 58.516 9.72678V8.32678H59.804V16.1668C59.804 18.2808 58.39 19.7788 56.136 19.7788C54.12 19.7788 52.678 18.7568 52.426 17.1188H53.686C53.966 18.0428 54.876 18.6728 56.136 18.6728C57.494 18.6728 58.516 17.8048 58.516 16.1668V14.5568C58.054 15.3828 57.06 16.1248 55.66 16.1248C53.602 16.1248 52.02 14.5148 52.02 12.1348ZM58.516 12.1488C58.516 10.3708 57.312 9.30678 55.912 9.30678C54.512 9.30678 53.322 10.3288 53.322 12.1348C53.322 13.9408 54.512 15.0048 55.912 15.0048C57.312 15.0048 58.516 13.9548 58.516 12.1488ZM63.2309 11.8268V15.9988H61.9569V8.32678H63.2309V9.57278C63.6649 8.71878 64.4909 8.18678 65.7089 8.18678V9.50278H65.3729C64.1549 9.50278 63.2309 10.0488 63.2309 11.8268ZM70.4416 9.27878C69.1956 9.27878 68.1596 10.1048 68.0196 11.6028H72.8636C72.8776 10.1048 71.7576 9.27878 70.4416 9.27878ZM74.0256 13.6328C73.6336 15.0328 72.4016 16.1248 70.4976 16.1248C68.3136 16.1248 66.7036 14.5848 66.7036 12.1488C66.7036 9.72678 68.2576 8.20078 70.4976 8.20078C72.7236 8.20078 74.1796 9.76878 74.1796 11.8688C74.1796 12.1488 74.1656 12.3728 74.1376 12.6388H68.0056C68.1036 14.1928 69.1956 15.0468 70.4976 15.0468C71.6456 15.0468 72.3736 14.4588 72.6536 13.6328H74.0256ZM81.3772 13.9128C81.3772 15.1728 80.2712 16.1248 78.5772 16.1248C76.7852 16.1248 75.5252 15.1448 75.4412 13.7448H76.7572C76.8272 14.4868 77.4852 15.0468 78.5632 15.0468C79.5712 15.0468 80.1312 14.5428 80.1312 13.9128C80.1312 12.2048 75.5952 13.1988 75.5952 10.3428C75.5952 9.16678 76.7012 8.20078 78.4092 8.20078C80.1032 8.20078 81.2232 9.11078 81.3072 10.6088H80.0332C79.9772 9.83878 79.3892 9.27878 78.3672 9.27878C77.4292 9.27878 76.8692 9.72678 76.8692 10.3428C76.8692 12.1628 81.3212 11.1688 81.3772 13.9128ZM88.6917 13.9128C88.6917 15.1728 87.5857 16.1248 85.8917 16.1248C84.0997 16.1248 82.8397 15.1448 82.7557 13.7448H84.0717C84.1417 14.4868 84.7997 15.0468 85.8777 15.0468C86.8857 15.0468 87.4457 14.5428 87.4457 13.9128C87.4457 12.2048 82.9097 13.1988 82.9097 10.3428C82.9097 9.16678 84.0157 8.20078 85.7237 8.20078C87.4177 8.20078 88.5377 9.11078 88.6217 10.6088H87.3477C87.2917 9.83878 86.7037 9.27878 85.6817 9.27878C84.7437 9.27878 84.1837 9.72678 84.1837 10.3428C84.1837 12.1628 88.6357 11.1688 88.6917 13.9128Z" fill="white"/>
</svg>
