<svg width="124" height="20" viewBox="0 0 124 20" fill="none" xmlns="http://www.w3.org/2000/svg">
<path fill-rule="evenodd" clip-rule="evenodd" d="M0 10C0 9.57958 0.166634 9.17638 0.463257 8.8791C0.75988 8.58182 1.16219 8.41481 1.58167 8.41481L118.103 8.41481L112.366 2.66585C112.087 2.36535 111.935 1.9679 111.942 1.55723C111.949 1.14655 112.115 0.754726 112.405 0.464292C112.695 0.173858 113.086 0.0074928 113.496 0.000246966C113.905 -0.00699887 114.302 0.14544 114.602 0.425448L123.037 8.8798C123.334 9.17702 123.5 9.57992 123.5 10C123.5 10.4201 123.334 10.823 123.037 11.1202L114.602 19.5745C114.302 19.8546 113.905 20.007 113.496 19.9998C113.086 19.9925 112.695 19.8261 112.405 19.5357C112.115 19.2453 111.949 18.8534 111.942 18.4428C111.935 18.0321 112.087 17.6346 112.366 17.3342L118.103 11.5852L1.58167 11.5852C1.16219 11.5852 0.75988 11.4182 0.463257 11.1209C0.166634 10.8236 0 10.4204 0 10Z" fill="white"/>
</svg>
