<svg width="20" height="20" viewBox="0 0 20 20" fill="none" xmlns="http://www.w3.org/2000/svg">
<path d="M10.1316 0C10.3619 0 10.5828 0.0903058 10.7456 0.251051C10.9085 0.411797 11 0.629814 11 0.857143C11 1.08447 10.9085 1.30249 10.7456 1.46323C10.5828 1.62398 10.3619 1.71429 10.1316 1.71429C7.90516 1.71429 5.76992 2.58724 4.1956 4.14112C2.62129 5.69499 1.73684 7.80249 1.73684 10C1.73684 12.1975 2.62129 14.305 4.1956 15.8589C5.76992 17.4128 7.90516 18.2857 10.1316 18.2857C10.3619 18.2857 10.5828 18.376 10.7456 18.5368C10.9085 18.6975 11 18.9155 11 19.1429C11 19.3702 10.9085 19.5882 10.7456 19.749C10.5828 19.9097 10.3619 20 10.1316 20C7.44452 20 4.86751 18.9464 2.96747 17.0711C1.06743 15.1957 0 12.6522 0 10C0 7.34784 1.06743 4.8043 2.96747 2.92893C4.86751 1.05357 7.44452 0 10.1316 0Z" fill="white"/>
<path d="M15.1622 7.51355C15.0124 7.34294 14.9309 7.11729 14.9348 6.88412C14.9387 6.65096 15.0276 6.4285 15.183 6.2636C15.3383 6.09871 15.5479 6.00425 15.7676 6.00014C15.9872 5.99603 16.1998 6.08258 16.3605 6.24155L19.752 9.84155C19.9108 10.0103 20 10.239 20 10.4776C20 10.7161 19.9108 10.9448 19.752 11.1135L16.3605 14.7135C16.2829 14.802 16.1893 14.8729 16.0853 14.9221C15.9813 14.9713 15.869 14.9977 15.7552 14.9999C15.6413 15.002 15.5283 14.9798 15.4227 14.9345C15.3171 14.8892 15.2212 14.8219 15.1407 14.7364C15.0602 14.6509 14.9967 14.5491 14.9541 14.4371C14.9114 14.325 14.8905 14.205 14.8925 14.0841C14.8945 13.9633 14.9194 13.8441 14.9657 13.7337C15.0121 13.6233 15.0789 13.5239 15.1622 13.4415L17.1067 11.3775H7.84787C7.623 11.3775 7.40734 11.2827 7.24834 11.1139C7.08933 10.9452 7 10.7162 7 10.4776C7 10.2389 7.08933 10.0099 7.24834 9.84115C7.40734 9.67237 7.623 9.57755 7.84787 9.57755H17.1067L15.1622 7.51355Z" fill="white"/>
</svg>
