<svg width="17" height="17" viewBox="0 0 17 17" fill="none" xmlns="http://www.w3.org/2000/svg">
<path d="M8.50016 6.375C7.93658 6.375 7.39607 6.59888 6.99756 6.9974C6.59905 7.39591 6.37516 7.93641 6.37516 8.5C6.37516 9.06358 6.59905 9.60409 6.99756 10.0026C7.39607 10.4011 7.93658 10.625 8.50016 10.625C9.06375 10.625 9.60425 10.4011 10.0028 10.0026C10.4013 9.60409 10.6252 9.06358 10.6252 8.5C10.6252 7.93641 10.4013 7.39591 10.0028 6.9974C9.60425 6.59888 9.06375 6.375 8.50016 6.375ZM8.50016 12.0417C7.56085 12.0417 6.66002 11.6685 5.99583 11.0043C5.33163 10.3401 4.9585 9.43931 4.9585 8.5C4.9585 7.56069 5.33163 6.65985 5.99583 5.99566C6.66002 5.33147 7.56085 4.95833 8.50016 4.95833C9.43947 4.95833 10.3403 5.33147 11.0045 5.99566C11.6687 6.65985 12.0418 7.56069 12.0418 8.5C12.0418 9.43931 11.6687 10.3401 11.0045 11.0043C10.3403 11.6685 9.43947 12.0417 8.50016 12.0417ZM8.50016 3.1875C4.9585 3.1875 1.93391 5.39042 0.708496 8.5C1.93391 11.6096 4.9585 13.8125 8.50016 13.8125C12.0418 13.8125 15.0664 11.6096 16.2918 8.5C15.0664 5.39042 12.0418 3.1875 8.50016 3.1875Z" fill="#7B7F83"/>
</svg>
