<svg width="43" height="44" viewBox="0 0 43 44" fill="none" xmlns="http://www.w3.org/2000/svg">
<path d="M20.772 36.0863C19.8449 34.9305 18.5754 33.2939 18.5754 31.6243V26.3073C18.5754 21.7268 15.2327 18 10.9614 18C6.68934 18 3.37295 21.7268 3.37295 26.3073V31.6243C3.37295 33.2658 1.99537 34.8174 1.1219 36.0212C0.336177 37.1029 -0.283859 37.9575 0.134811 38.8116C0.503034 39.5632 1.42498 39.6597 2.18683 39.6597H6.73897C6.74016 42.0568 8.63688 44 10.9761 44C13.3157 44 15.2125 42.0568 15.2137 39.6597H19.8727C20.3573 39.6597 21.4901 39.6597 21.8802 38.8149C22.2738 37.9595 21.6438 37.1733 20.7719 36.0864L20.772 36.0863ZM10.9753 42.2942C9.55486 42.2942 8.40252 41.1148 8.40054 39.6597H13.5501C13.5481 41.1148 12.3966 42.2942 10.9753 42.2942ZM19.8727 37.9261H2.1868C2.06525 37.9261 1.96359 37.9221 1.87977 37.9168C2.04343 37.657 2.28372 37.3252 2.47915 37.0553C3.4472 35.722 5.06469 33.8398 5.06469 31.6247V26.3077C5.06469 22.6826 7.62278 19.7339 10.9614 19.7339C14.3001 19.7339 16.884 22.6826 16.884 26.3077V31.6247C16.884 33.9151 18.3756 35.8294 19.4652 37.1872C19.6487 37.416 19.8684 37.69 20.0392 37.9241C19.9887 37.9253 19.9331 37.9261 19.8727 37.9261L19.8727 37.9261Z" fill="black"/>
<circle cx="29.5" cy="13.5" r="13.5" fill="#DE4A2C"/>
<path d="M25.88 10.408C25.9333 9.34133 26.3067 8.52 27 7.944C27.704 7.35733 28.6267 7.064 29.768 7.064C30.5467 7.064 31.2133 7.20267 31.768 7.48C32.3227 7.74667 32.7387 8.11467 33.016 8.584C33.304 9.04267 33.448 9.56533 33.448 10.152C33.448 10.824 33.272 11.3947 32.92 11.864C32.5787 12.3227 32.168 12.632 31.688 12.792V12.856C32.3067 13.048 32.7867 13.3893 33.128 13.88C33.48 14.3707 33.656 15 33.656 15.768C33.656 16.408 33.5067 16.9787 33.208 17.48C32.92 17.9813 32.488 18.376 31.912 18.664C31.3467 18.9413 30.664 19.08 29.864 19.08C28.6587 19.08 27.6773 18.776 26.92 18.168C26.1627 17.56 25.7627 16.664 25.72 15.48H27.896C27.9173 16.0027 28.0933 16.424 28.424 16.744C28.7653 17.0533 29.2293 17.208 29.816 17.208C30.36 17.208 30.776 17.0587 31.064 16.76C31.3627 16.4507 31.512 16.056 31.512 15.576C31.512 14.936 31.3093 14.4773 30.904 14.2C30.4987 13.9227 29.8693 13.784 29.016 13.784H28.552V11.944H29.016C30.5307 11.944 31.288 11.4373 31.288 10.424C31.288 9.96533 31.1493 9.608 30.872 9.352C30.6053 9.096 30.216 8.968 29.704 8.968C29.2027 8.968 28.8133 9.10667 28.536 9.384C28.2693 9.65067 28.1147 9.992 28.072 10.408H25.88Z" fill="white"/>
</svg>
