<svg width="23" height="17" viewBox="0 0 23 17" fill="none" xmlns="http://www.w3.org/2000/svg">
<path d="M16.5312 12.75C16.3406 12.75 16.1578 12.8246 16.023 12.9575C15.8882 13.0903 15.8125 13.2705 15.8125 13.4583C15.8125 13.6462 15.8882 13.8264 16.023 13.9592C16.1578 14.092 16.3406 14.1667 16.5312 14.1667H19.4062C19.5969 14.1667 19.7797 14.092 19.9145 13.9592C20.0493 13.8264 20.125 13.6462 20.125 13.4583C20.125 13.2705 20.0493 13.0903 19.9145 12.9575C19.7797 12.8246 19.5969 12.75 19.4062 12.75H16.5312ZM0 3.89583C0 2.86259 0.416489 1.87167 1.15784 1.14106C1.8992 0.410452 2.90469 0 3.95312 0H19.0469C20.0953 0 21.1008 0.410452 21.8422 1.14106C22.5835 1.87167 23 2.86259 23 3.89583V13.1042C23 14.1374 22.5835 15.1283 21.8422 15.8589C21.1008 16.5895 20.0953 17 19.0469 17H3.95312C2.90469 17 1.8992 16.5895 1.15784 15.8589C0.416489 15.1283 0 14.1374 0 13.1042V3.89583ZM3.95312 1.41667C3.28594 1.41667 2.64608 1.67786 2.17431 2.1428C1.70254 2.60773 1.4375 3.23832 1.4375 3.89583V5.66667H21.5625V3.89583C21.5625 3.23832 21.2975 2.60773 20.8257 2.1428C20.3539 1.67786 19.7141 1.41667 19.0469 1.41667H3.95312ZM21.5625 7.08333H1.4375V13.1042C1.4375 14.4727 2.5645 15.5833 3.95312 15.5833H19.0469C19.7141 15.5833 20.3539 15.3221 20.8257 14.8572C21.2975 14.3923 21.5625 13.7617 21.5625 13.1042V7.08333Z" fill="white"/>
</svg>
