<svg width="128" height="23" viewBox="0 0 128 23" fill="none" xmlns="http://www.w3.org/2000/svg">
<path d="M128 9.99878C128 4.47593 123.523 -0.0012207 118 -0.0012207H0V22.9988H118C123.523 22.9988 128 18.5216 128 12.9988V9.99878Z" fill="#DE4A2C"/>
<path d="M29.352 10.8748H31.228C32.684 10.8748 33.3 10.1888 33.3 9.09678C33.3 7.96278 32.684 7.29078 31.228 7.29078H29.352V10.8748ZM34.602 9.09678C34.602 10.5808 33.65 11.9248 31.228 11.9248H29.352V15.9988H28.078V6.24078H31.228C33.524 6.24078 34.602 7.50078 34.602 9.09678ZM39.4474 9.27878C38.2014 9.27878 37.1654 10.1048 37.0254 11.6028H41.8694C41.8834 10.1048 40.7634 9.27878 39.4474 9.27878ZM43.0314 13.6328C42.6394 15.0328 41.4074 16.1248 39.5034 16.1248C37.3194 16.1248 35.7094 14.5848 35.7094 12.1488C35.7094 9.72678 37.2634 8.20078 39.5034 8.20078C41.7294 8.20078 43.1854 9.76878 43.1854 11.8688C43.1854 12.1488 43.1714 12.3728 43.1434 12.6388H37.0114C37.1094 14.1928 38.2014 15.0468 39.5034 15.0468C40.6514 15.0468 41.3794 14.4588 41.6594 13.6328H43.0314ZM50.4811 15.9988V11.6588C50.4811 10.0908 49.6271 9.29278 48.3391 9.29278C47.0371 9.29278 46.1411 10.1048 46.1411 11.7568V15.9988H44.8671V8.32678H46.1411V9.41878C46.6451 8.62078 47.5691 8.18678 48.6051 8.18678C50.3831 8.18678 51.7411 9.27878 51.7411 11.4768V15.9988H50.4811ZM53.3461 12.1348C53.3461 9.74078 54.9281 8.20078 57.0001 8.20078C58.2041 8.20078 59.3101 8.81678 59.8421 9.69878V5.63878H61.1301V15.9988H59.8421V14.5568C59.3801 15.4108 58.3861 16.1248 56.9861 16.1248C54.9281 16.1248 53.3461 14.5148 53.3461 12.1348ZM59.8421 12.1488C59.8421 10.3708 58.6381 9.30678 57.2381 9.30678C55.8381 9.30678 54.6481 10.3288 54.6481 12.1348C54.6481 13.9408 55.8381 15.0048 57.2381 15.0048C58.6381 15.0048 59.8421 13.9548 59.8421 12.1488ZM63.2831 15.9988V8.32678H64.5571V15.9988H63.2831ZM63.9411 7.08078C63.4511 7.08078 63.0731 6.70278 63.0731 6.21278C63.0731 5.72278 63.4511 5.34478 63.9411 5.34478C64.4031 5.34478 64.7811 5.72278 64.7811 6.21278C64.7811 6.70278 64.4031 7.08078 63.9411 7.08078ZM72.3424 15.9988V11.6588C72.3424 10.0908 71.4884 9.29278 70.2004 9.29278C68.8984 9.29278 68.0024 10.1048 68.0024 11.7568V15.9988H66.7284V8.32678H68.0024V9.41878C68.5064 8.62078 69.4304 8.18678 70.4664 8.18678C72.2444 8.18678 73.6024 9.27878 73.6024 11.4768V15.9988H72.3424ZM75.2075 12.1348C75.2075 9.74078 76.7895 8.20078 78.8475 8.20078C80.2475 8.20078 81.2555 8.90078 81.7035 9.72678V8.32678H82.9915V16.1668C82.9915 18.2808 81.5775 19.7788 79.3235 19.7788C77.3075 19.7788 75.8655 18.7568 75.6135 17.1188H76.8735C77.1535 18.0428 78.0635 18.6728 79.3235 18.6728C80.6815 18.6728 81.7035 17.8048 81.7035 16.1668V14.5568C81.2415 15.3828 80.2475 16.1248 78.8475 16.1248C76.7895 16.1248 75.2075 14.5148 75.2075 12.1348ZM81.7035 12.1488C81.7035 10.3708 80.4995 9.30678 79.0995 9.30678C77.6995 9.30678 76.5095 10.3288 76.5095 12.1348C76.5095 13.9408 77.6995 15.0048 79.0995 15.0048C80.4995 15.0048 81.7035 13.9548 81.7035 12.1488Z" fill="white"/>
</svg>
