<svg width="9" height="8" viewBox="0 0 9 8" fill="none" xmlns="http://www.w3.org/2000/svg">
<path d="M0.450271 0.958275H8.5505C8.63251 0.95854 8.7129 0.981856 8.78301 1.02571C8.85312 1.06957 8.91031 1.13231 8.9484 1.20717C8.9865 1.28203 9.00406 1.36619 8.99921 1.45058C8.99436 1.53497 8.96727 1.6164 8.92086 1.6861L4.87075 7.71653C4.70289 7.96656 4.29878 7.96656 4.13048 7.71653L0.0803605 1.6861C0.0334803 1.61655 0.00598872 1.53508 0.000872541 1.45055C-0.00424364 1.36601 0.0132113 1.28165 0.0513409 1.20663C0.0894705 1.13161 0.146816 1.06879 0.217148 1.02501C0.28748 0.981221 0.368108 0.958141 0.450271 0.958275Z" fill="black"/>
</svg>
