<svg width="136" height="44" viewBox="0 0 136 44" fill="none" xmlns="http://www.w3.org/2000/svg">
<path d="M0 22C0 9.84974 9.84974 0 22 0H136V44H22C9.84973 44 0 34.1503 0 22Z" fill="#DE4A2C"/>
<path d="M28.48 24.96C28.48 26.544 27.184 28.112 24.768 28.112C22.528 28.112 20.944 26.864 20.912 25.024H22.464C22.56 25.952 23.216 26.88 24.768 26.88C26.176 26.88 27.008 26.08 27.008 25.024C27.008 22.016 20.976 23.936 20.976 19.792C20.976 17.952 22.464 16.704 24.672 16.704C26.8 16.704 28.192 17.872 28.368 19.568H26.768C26.672 18.816 25.968 17.968 24.608 17.952C23.408 17.92 22.464 18.544 22.464 19.744C22.464 22.624 28.48 20.832 28.48 24.96ZM34.3506 20.32C32.9266 20.32 31.7426 21.264 31.5826 22.976H37.1186C37.1346 21.264 35.8546 20.32 34.3506 20.32ZM38.4466 25.296C37.9986 26.896 36.5906 28.144 34.4146 28.144C31.9186 28.144 30.0786 26.384 30.0786 23.6C30.0786 20.832 31.8546 19.088 34.4146 19.088C36.9586 19.088 38.6226 20.88 38.6226 23.28C38.6226 23.6 38.6066 23.856 38.5746 24.16H31.5666C31.6786 25.936 32.9266 26.912 34.4146 26.912C35.7266 26.912 36.5586 26.24 36.8786 25.296H38.4466ZM40.8645 25.6V20.432H39.7285V19.232H40.8645V17.024H42.3205V19.232H44.6085V20.432H42.3205V25.6C42.3205 26.464 42.6405 26.768 43.5365 26.768H44.6085V28H43.2965C41.7445 28 40.8645 27.36 40.8645 25.6ZM46.6926 25.6V20.432H45.5566V19.232H46.6926V17.024H48.1486V19.232H50.4366V20.432H48.1486V25.6C48.1486 26.464 48.4686 26.768 49.3646 26.768H50.4366V28H49.1246C47.5726 28 46.6926 27.36 46.6926 25.6ZM52.2008 28V19.232H53.6568V28H52.2008ZM52.9528 17.808C52.3928 17.808 51.9608 17.376 51.9608 16.816C51.9608 16.256 52.3928 15.824 52.9528 15.824C53.4808 15.824 53.9128 16.256 53.9128 16.816C53.9128 17.376 53.4808 17.808 52.9528 17.808ZM62.5543 28V23.04C62.5543 21.248 61.5783 20.336 60.1063 20.336C58.6183 20.336 57.5943 21.264 57.5943 23.152V28H56.1383V19.232H57.5943V20.48C58.1703 19.568 59.2263 19.072 60.4103 19.072C62.4423 19.072 63.9943 20.32 63.9943 22.832V28H62.5543ZM65.8286 23.584C65.8286 20.848 67.6366 19.088 69.9886 19.088C71.5886 19.088 72.7406 19.888 73.2526 20.832V19.232H74.7246V28.192C74.7246 30.608 73.1086 32.32 70.5326 32.32C68.2286 32.32 66.5806 31.152 66.2926 29.28H67.7326C68.0526 30.336 69.0926 31.056 70.5326 31.056C72.0846 31.056 73.2526 30.064 73.2526 28.192V26.352C72.7246 27.296 71.5886 28.144 69.9886 28.144C67.6366 28.144 65.8286 26.304 65.8286 23.584ZM73.2526 23.6C73.2526 21.568 71.8766 20.352 70.2766 20.352C68.6766 20.352 67.3166 21.52 67.3166 23.584C67.3166 25.648 68.6766 26.864 70.2766 26.864C71.8766 26.864 73.2526 25.664 73.2526 23.6ZM83.4891 25.616C83.4891 27.056 82.2251 28.144 80.2891 28.144C78.2411 28.144 76.8011 27.024 76.7051 25.424H78.2091C78.2891 26.272 79.0411 26.912 80.2731 26.912C81.4251 26.912 82.0651 26.336 82.0651 25.616C82.0651 23.664 76.8811 24.8 76.8811 21.536C76.8811 20.192 78.1451 19.088 80.0971 19.088C82.0331 19.088 83.3131 20.128 83.4091 21.84H81.9531C81.8891 20.96 81.2171 20.32 80.0491 20.32C78.9771 20.32 78.3371 20.832 78.3371 21.536C78.3371 23.616 83.4251 22.48 83.4891 25.616Z" fill="white"/>
<path d="M113.993 22.5988V21.3933L115.477 20.0695C115.75 19.8237 115.929 19.4873 115.983 19.1196C116.037 18.7519 115.961 18.3767 115.77 18.0603L113.947 14.9085C113.812 14.6692 113.617 14.4704 113.382 14.3321C113.148 14.1938 112.882 14.1208 112.611 14.1206C112.443 14.1192 112.276 14.1459 112.116 14.1993L110.239 14.8455C109.915 14.6251 109.577 14.4276 109.227 14.2545L108.833 12.2689C108.763 11.9061 108.569 11.5802 108.287 11.3483C108.004 11.1164 107.651 10.9932 107.288 11.0003H103.673C103.31 10.9932 102.957 11.1164 102.674 11.3483C102.392 11.5802 102.199 11.9061 102.128 12.2689L101.734 14.2545C101.382 14.4284 101.041 14.6258 100.714 14.8455L98.8757 14.1678C98.7145 14.125 98.5475 14.109 98.3813 14.1206C98.1104 14.1208 97.8443 14.1938 97.6097 14.3321C97.3752 14.4704 97.1804 14.6692 97.0449 14.9085L95.2218 18.0603C95.0415 18.3762 94.9745 18.7463 95.0323 19.1071C95.0901 19.4679 95.2691 19.797 95.5386 20.038L96.9986 21.4012V22.6067L95.5386 23.9305C95.2614 24.1732 95.0776 24.5081 95.0196 24.876C94.9616 25.2438 95.0333 25.6207 95.2218 25.9397L97.0449 29.0915C97.1804 29.3308 97.3752 29.5296 97.6097 29.6679C97.8443 29.8062 98.1104 29.8792 98.3813 29.8794C98.5492 29.8808 98.7162 29.8541 98.8757 29.8007L100.753 29.1545C101.077 29.3749 101.415 29.5724 101.765 29.7455L102.159 31.7311C102.229 32.0939 102.423 32.4198 102.705 32.6517C102.988 32.8836 103.341 33.0068 103.704 32.9997H107.35C107.712 33.0068 108.066 32.8836 108.348 32.6517C108.631 32.4198 108.824 32.0939 108.895 31.7311L109.289 29.7455C109.641 29.5716 109.982 29.3742 110.309 29.1545L112.178 29.8007C112.338 29.8541 112.505 29.8808 112.672 29.8794C112.943 29.8792 113.209 29.8062 113.444 29.6679C113.679 29.5296 113.873 29.3308 114.009 29.0915L115.77 25.9397C115.95 25.6238 116.017 25.2537 115.96 24.8929C115.902 24.5321 115.723 24.203 115.453 23.962L113.993 22.5988ZM112.611 28.3036L109.961 27.3895C109.34 27.9249 108.632 28.3437 107.868 28.6266L107.319 31.4553H103.673L103.124 28.6581C102.366 28.3673 101.661 27.9492 101.039 27.4211L98.3813 28.3036L96.5582 25.1518L98.6594 23.2607C98.5166 22.4451 98.5166 21.6101 98.6594 20.7944L96.5582 18.8482L98.3813 15.6964L101.031 16.6105C101.652 16.0751 102.36 15.6563 103.124 15.3734L103.673 12.5447H107.319L107.868 15.3419C108.626 15.6327 109.331 16.0508 109.953 16.5789L112.611 15.6964L114.434 18.8482L112.333 20.7393C112.475 21.5549 112.475 22.3899 112.333 23.2056L114.434 25.1518L112.611 28.3036Z" fill="white"/>
<path d="M105.5 26.9997C104.61 26.9997 103.74 26.7065 103 26.1571C102.26 25.6077 101.683 24.8268 101.343 23.9132C101.002 22.9996 100.913 21.9943 101.086 21.0244C101.26 20.0546 101.689 19.1637 102.318 18.4644C102.947 17.7652 103.749 17.289 104.622 17.0961C105.495 16.9032 106.4 17.0022 107.222 17.3806C108.044 17.759 108.747 18.3999 109.241 19.2221C109.736 20.0443 110 21.011 110 21.9999C110.006 22.6583 109.894 23.3115 109.669 23.9211C109.445 24.5308 109.114 25.0846 108.695 25.5502C108.276 26.0158 107.778 26.3839 107.229 26.6328C106.68 26.8817 106.092 27.0064 105.5 26.9997ZM105.5 18.6666C105.103 18.6564 104.709 18.7356 104.341 18.8994C103.973 19.0633 103.638 19.3085 103.358 19.6201C103.078 19.9317 102.857 20.3032 102.71 20.7123C102.562 21.1213 102.491 21.5593 102.5 21.9999C102.491 22.4404 102.562 22.8784 102.71 23.2875C102.857 23.6965 103.078 24.0681 103.358 24.3797C103.638 24.6913 103.973 24.9364 104.341 25.1003C104.709 25.2642 105.103 25.3434 105.5 25.3331C105.896 25.3434 106.291 25.2642 106.659 25.1003C107.027 24.9364 107.361 24.6913 107.642 24.3797C107.922 24.0681 108.143 23.6965 108.29 23.2875C108.438 22.8784 108.509 22.4404 108.5 21.9999C108.509 21.5593 108.438 21.1213 108.29 20.7123C108.143 20.3032 107.922 19.9317 107.642 19.6201C107.361 19.3085 107.027 19.0633 106.659 18.8994C106.291 18.7356 105.896 18.6564 105.5 18.6666Z" fill="white"/>
</svg>
