<svg width="169" height="30" viewBox="0 0 169 30" fill="none" xmlns="http://www.w3.org/2000/svg">
<mask id="path-1-inside-1_686_7640" fill="white">
<path d="M0 15C0 6.71573 6.71573 0 15 0H169V30H15C6.71573 30 0 23.2843 0 15Z"/>
</mask>
<path d="M-2 15C-2 5.61116 5.61116 -2 15 -2H169V2H15C7.8203 2 2 7.8203 2 15H-2ZM169 32H15C5.61116 32 -2 24.3888 -2 15H2C2 22.1797 7.8203 28 15 28H169V32ZM15 32C5.61116 32 -2 24.3888 -2 15C-2 5.61116 5.61116 -2 15 -2V2C7.8203 2 2 7.8203 2 15C2 22.1797 7.8203 28 15 28V32ZM169 0V30V0Z" fill="#DE4A2C" mask="url(#path-1-inside-1_686_7640)"/>
<path d="M33.172 20.098C32.528 20.098 31.9493 19.986 31.436 19.762C30.932 19.5287 30.5353 19.2113 30.246 18.81C29.9567 18.3993 29.8073 17.928 29.798 17.396H31.156C31.2027 17.8533 31.3893 18.2407 31.716 18.558C32.052 18.866 32.5373 19.02 33.172 19.02C33.7787 19.02 34.2547 18.8707 34.6 18.572C34.9547 18.264 35.132 17.872 35.132 17.396C35.132 17.0227 35.0293 16.7193 34.824 16.486C34.6187 16.2527 34.362 16.0753 34.054 15.954C33.746 15.8327 33.3307 15.702 32.808 15.562C32.164 15.394 31.646 15.226 31.254 15.058C30.8713 14.89 30.54 14.6287 30.26 14.274C29.9893 13.91 29.854 13.4247 29.854 12.818C29.854 12.286 29.9893 11.8147 30.26 11.404C30.5307 10.9933 30.9087 10.676 31.394 10.452C31.8887 10.228 32.4533 10.116 33.088 10.116C34.0027 10.116 34.7493 10.3447 35.328 10.802C35.916 11.2593 36.2473 11.866 36.322 12.622H34.922C34.8753 12.2487 34.6793 11.922 34.334 11.642C33.9887 11.3527 33.5313 11.208 32.962 11.208C32.43 11.208 31.996 11.348 31.66 11.628C31.324 11.8987 31.156 12.2813 31.156 12.776C31.156 13.1307 31.254 13.42 31.45 13.644C31.6553 13.868 31.9027 14.0407 32.192 14.162C32.4907 14.274 32.906 14.4047 33.438 14.554C34.082 14.7313 34.6 14.9087 34.992 15.086C35.384 15.254 35.72 15.52 36 15.884C36.28 16.2387 36.42 16.724 36.42 17.34C36.42 17.816 36.294 18.264 36.042 18.684C35.79 19.104 35.4167 19.4447 34.922 19.706C34.4273 19.9673 33.844 20.098 33.172 20.098ZM39.5688 13.378V17.9C39.5688 18.2733 39.6481 18.5393 39.8068 18.698C39.9655 18.8473 40.2408 18.922 40.6328 18.922H41.5708V20H40.4228C39.7135 20 39.1815 19.8367 38.8268 19.51C38.4721 19.1833 38.2948 18.6467 38.2948 17.9V13.378H37.3008V12.328H38.2948V10.396H39.5688V12.328H41.5708V13.378H39.5688ZM42.3584 16.136C42.3584 15.352 42.5171 14.666 42.8344 14.078C43.1517 13.4807 43.5857 13.0187 44.1364 12.692C44.6964 12.3653 45.3171 12.202 45.9984 12.202C46.6704 12.202 47.2537 12.3467 47.7484 12.636C48.2431 12.9253 48.6117 13.2893 48.8544 13.728V12.328H50.1424V20H48.8544V18.572C48.6024 19.02 48.2244 19.3933 47.7204 19.692C47.2257 19.9813 46.6471 20.126 45.9844 20.126C45.3031 20.126 44.6871 19.958 44.1364 19.622C43.5857 19.286 43.1517 18.8147 42.8344 18.208C42.5171 17.6013 42.3584 16.9107 42.3584 16.136ZM48.8544 16.15C48.8544 15.5713 48.7377 15.0673 48.5044 14.638C48.2711 14.2087 47.9537 13.882 47.5524 13.658C47.1604 13.4247 46.7264 13.308 46.2504 13.308C45.7744 13.308 45.3404 13.42 44.9484 13.644C44.5564 13.868 44.2437 14.1947 44.0104 14.624C43.7771 15.0533 43.6604 15.5573 43.6604 16.136C43.6604 16.724 43.7771 17.2373 44.0104 17.676C44.2437 18.1053 44.5564 18.4367 44.9484 18.67C45.3404 18.894 45.7744 19.006 46.2504 19.006C46.7264 19.006 47.1604 18.894 47.5524 18.67C47.9537 18.4367 48.2711 18.1053 48.5044 17.676C48.7377 17.2373 48.8544 16.7287 48.8544 16.15ZM53.2893 13.574C53.5133 13.1353 53.8307 12.7947 54.2413 12.552C54.6613 12.3093 55.17 12.188 55.7673 12.188V13.504H55.4313C54.0033 13.504 53.2893 14.2787 53.2893 15.828V20H52.0153V12.328H53.2893V13.574ZM58.512 13.378V17.9C58.512 18.2733 58.5913 18.5393 58.75 18.698C58.9087 18.8473 59.184 18.922 59.576 18.922H60.514V20H59.366C58.6567 20 58.1247 19.8367 57.77 19.51C57.4153 19.1833 57.238 18.6467 57.238 17.9V13.378H56.244V12.328H57.238V10.396H58.512V12.328H60.514V13.378H58.512ZM72.902 20H71.628L66.504 12.23V20H65.23V10.228H66.504L71.628 17.984V10.228H72.902V20ZM78.1398 20.126C77.4211 20.126 76.7678 19.9627 76.1798 19.636C75.6011 19.3093 75.1438 18.8473 74.8078 18.25C74.4811 17.6433 74.3178 16.9433 74.3178 16.15C74.3178 15.366 74.4858 14.6753 74.8218 14.078C75.1671 13.4713 75.6338 13.0093 76.2218 12.692C76.8098 12.3653 77.4678 12.202 78.1958 12.202C78.9238 12.202 79.5818 12.3653 80.1698 12.692C80.7578 13.0093 81.2198 13.4667 81.5558 14.064C81.9011 14.6613 82.0738 15.3567 82.0738 16.15C82.0738 16.9433 81.8964 17.6433 81.5418 18.25C81.1964 18.8473 80.7251 19.3093 80.1278 19.636C79.5304 19.9627 78.8678 20.126 78.1398 20.126ZM78.1398 19.006C78.5971 19.006 79.0264 18.8987 79.4278 18.684C79.8291 18.4693 80.1511 18.1473 80.3938 17.718C80.6458 17.2887 80.7718 16.766 80.7718 16.15C80.7718 15.534 80.6504 15.0113 80.4078 14.582C80.1651 14.1527 79.8478 13.8353 79.4558 13.63C79.0638 13.4153 78.6391 13.308 78.1818 13.308C77.7151 13.308 77.2858 13.4153 76.8938 13.63C76.5111 13.8353 76.2031 14.1527 75.9698 14.582C75.7364 15.0113 75.6198 15.534 75.6198 16.15C75.6198 16.7753 75.7318 17.3027 75.9558 17.732C76.1891 18.1613 76.4971 18.4833 76.8798 18.698C77.2624 18.9033 77.6824 19.006 78.1398 19.006ZM93.6889 12.328L91.2949 20H89.9789L88.1309 13.91L86.2829 20H84.9669L82.5589 12.328H83.8609L85.6249 18.768L87.5289 12.328H88.8309L90.6929 18.782L92.4289 12.328H93.6889Z" fill="white"/>
</svg>
