<svg width="130" height="56" viewBox="0 0 130 56" fill="none" xmlns="http://www.w3.org/2000/svg">
<path d="M0 0H130V41C130 49.2843 123.284 56 115 56H15C6.71573 56 0 49.2843 0 41V0Z" fill="#0F9015"/>
<path d="M19.992 34V22.768H22.728V34H19.992ZM30.8708 34V29.152C30.8708 27.936 30.1988 27.264 29.1588 27.264C28.1188 27.264 27.4468 27.936 27.4468 29.152V34H24.7108V25.072H27.4468V26.256C27.9908 25.504 28.9508 24.976 30.1508 24.976C32.2148 24.976 33.5908 26.384 33.5908 28.784V34H30.8708ZM41.6186 27.792H43.1066C44.1946 27.792 44.6586 27.248 44.6586 26.384C44.6586 25.52 44.1946 24.976 43.1066 24.976H41.6186V27.792ZM47.4426 26.384C47.4426 28.24 46.1786 29.968 43.3146 29.968H41.6186V34H38.8826V22.768H43.3146C46.0666 22.768 47.4426 24.32 47.4426 26.384ZM51.603 29.856V34H48.867V25.072H51.603V26.56C52.227 25.616 53.203 24.976 54.403 24.976V27.872H53.651C52.355 27.872 51.603 28.32 51.603 29.856ZM64.4468 29.536C64.4468 32.368 62.3988 34.128 59.7748 34.128C57.1508 34.128 55.1668 32.368 55.1668 29.536C55.1668 26.704 57.1988 24.944 59.8068 24.944C62.4308 24.944 64.4468 26.704 64.4468 29.536ZM57.9508 29.536C57.9508 31.04 58.7828 31.76 59.7748 31.76C60.7508 31.76 61.6628 31.04 61.6628 29.536C61.6628 28.016 60.7668 27.312 59.8068 27.312C58.8148 27.312 57.9508 28.016 57.9508 29.536ZM65.3543 29.52C65.3543 26.704 67.0983 24.944 69.2903 24.944C70.6023 24.944 71.5623 25.536 72.0423 26.336V25.072H74.7783V33.984C74.7783 36.368 73.4023 38.4 70.3143 38.4C67.6583 38.4 65.9303 37.056 65.6903 34.928H68.3943C68.5703 35.6 69.2423 36.032 70.1863 36.032C71.2263 36.032 72.0423 35.488 72.0423 33.984V32.72C71.5463 33.504 70.6023 34.128 69.2903 34.128C67.0983 34.128 65.3543 32.336 65.3543 29.52ZM72.0423 29.536C72.0423 28.112 71.1303 27.328 70.0903 27.328C69.0663 27.328 68.1383 28.096 68.1383 29.52C68.1383 30.944 69.0663 31.744 70.0903 31.744C71.1303 31.744 72.0423 30.96 72.0423 29.536ZM79.4936 29.856V34H76.7576V25.072H79.4936V26.56C80.1176 25.616 81.0936 24.976 82.2936 24.976V27.872H81.5416C80.2456 27.872 79.4936 28.32 79.4936 29.856ZM87.5374 27.136C86.6414 27.136 85.9534 27.68 85.7934 28.672H89.2174C89.2174 27.696 88.4494 27.136 87.5374 27.136ZM91.8094 31.04C91.3774 32.784 89.7934 34.128 87.5694 34.128C84.9454 34.128 83.0574 32.368 83.0574 29.536C83.0574 26.704 84.9134 24.944 87.5694 24.944C90.1774 24.944 92.0174 26.672 92.0174 29.392C92.0174 29.648 92.0014 29.92 91.9694 30.192H85.7774C85.8734 31.36 86.5934 31.904 87.4734 31.904C88.2414 31.904 88.6734 31.52 88.8974 31.04H91.8094ZM100.709 31.408C100.709 32.96 99.3328 34.128 97.0928 34.128C94.7088 34.128 93.1088 32.8 92.9808 31.072H95.6848C95.7488 31.696 96.3088 32.112 97.0608 32.112C97.7648 32.112 98.1328 31.792 98.1328 31.392C98.1328 29.952 93.2688 30.992 93.2688 27.712C93.2688 26.192 94.5648 24.944 96.9008 24.944C99.2048 24.944 100.485 26.224 100.661 27.984H98.1328C98.0528 27.376 97.5888 26.976 96.8208 26.976C96.1808 26.976 95.8288 27.232 95.8288 27.664C95.8288 29.088 100.661 28.08 100.709 31.408ZM109.631 31.408C109.631 32.96 108.255 34.128 106.015 34.128C103.631 34.128 102.031 32.8 101.903 31.072H104.607C104.671 31.696 105.231 32.112 105.983 32.112C106.687 32.112 107.055 31.792 107.055 31.392C107.055 29.952 102.191 30.992 102.191 27.712C102.191 26.192 103.487 24.944 105.823 24.944C108.127 24.944 109.407 26.224 109.583 27.984H107.055C106.975 27.376 106.511 26.976 105.743 26.976C105.103 26.976 104.751 27.232 104.751 27.664C104.751 29.088 109.583 28.08 109.631 31.408Z" fill="white"/>
</svg>
