<svg width="178" height="128" viewBox="0 0 178 128" fill="none" xmlns="http://www.w3.org/2000/svg">
<rect x="0.5" y="0.5" width="177" height="126.728" rx="7.5" stroke="#E6E6E6"/>
<rect x="1.86328" y="1.86194" width="174.276" height="124.004" rx="6" fill="#E6E6E6"/>
<path d="M101.8 107.8H98.6C98.6 108.394 98.7655 108.977 99.0779 109.482C99.3904 109.988 99.8374 110.396 100.369 110.662C100.9 110.928 101.496 111.04 102.087 110.987C102.679 110.934 103.245 110.717 103.72 110.36L101.8 107.8ZM114.6 98.2L116.52 95.64C115.966 95.2246 115.292 95 114.6 95C113.908 95 113.234 95.2246 112.68 95.64L114.6 98.2ZM127.4 107.8L125.48 110.36C125.955 110.717 126.521 110.934 127.113 110.987C127.705 111.04 128.3 110.928 128.831 110.662C129.363 110.396 129.81 109.988 130.122 109.482C130.435 108.977 130.6 108.394 130.6 107.8H127.4ZM114.6 85.4C110.357 85.4 106.287 83.7143 103.286 80.7137C100.286 77.7131 98.6 73.6435 98.6 69.4H92.2C92.2 75.3409 94.56 81.0384 98.7608 85.2392C102.962 89.44 108.659 91.8 114.6 91.8V85.4ZM130.6 69.4C130.6 73.6435 128.914 77.7131 125.914 80.7137C122.913 83.7143 118.843 85.4 114.6 85.4V91.8C120.541 91.8 126.238 89.44 130.439 85.2392C134.64 81.0384 137 75.3409 137 69.4H130.6ZM114.6 53.4C118.843 53.4 122.913 55.0857 125.914 58.0863C128.914 61.0869 130.6 65.1565 130.6 69.4H137C137 63.4592 134.64 57.7616 130.439 53.5608C126.238 49.36 120.541 47 114.6 47V53.4ZM114.6 47C108.659 47 102.962 49.36 98.7608 53.5608C94.56 57.7616 92.2 63.4592 92.2 69.4H98.6C98.6 65.1565 100.286 61.0869 103.286 58.0863C106.287 55.0857 110.357 53.4 114.6 53.4V47ZM98.6 82.2V107.8H105V82.2H98.6ZM103.72 110.36L116.52 100.76L112.68 95.64L99.88 105.24L103.72 110.36ZM112.68 100.76L125.48 110.36L129.32 105.24L116.52 95.64L112.68 100.76ZM130.6 107.8V82.2H124.2V107.8H130.6ZM137 47V24.6H130.6V47H137ZM127.4 15H50.6V21.4H127.4V15ZM41 24.6V101.4H47.4V24.6H41ZM50.6 111H92.2V104.6H50.6V111ZM41 101.4C41 103.946 42.0114 106.388 43.8118 108.188C45.6121 109.989 48.0539 111 50.6 111V104.6C49.7513 104.6 48.9374 104.263 48.3373 103.663C47.7371 103.063 47.4 102.249 47.4 101.4H41ZM50.6 15C48.0539 15 45.6121 16.0114 43.8118 17.8118C42.0114 19.6121 41 22.0539 41 24.6H47.4C47.4 23.7513 47.7371 22.9374 48.3373 22.3373C48.9374 21.7371 49.7513 21.4 50.6 21.4V15ZM137 24.6C137 22.0539 135.989 19.6121 134.188 17.8118C132.388 16.0114 129.946 15 127.4 15V21.4C128.249 21.4 129.063 21.7371 129.663 22.3373C130.263 22.9374 130.6 23.7513 130.6 24.6H137ZM60.2 47H92.2V40.6H60.2V47ZM60.2 66.2H79.4V59.8H60.2V66.2Z" fill="#535352" fill-opacity="0.2"/>
<rect x="2" y="50" width="174" height="26" fill="#1C2745"/>
<path d="M65.432 61.032C65.432 61.992 65.1173 62.7653 64.488 63.352C63.8587 63.9387 62.9147 64.232 61.656 64.232H59.4V69H58.28V57.816H61.656C62.904 57.816 63.8427 58.1093 64.472 58.696C65.112 59.2827 65.432 60.0613 65.432 61.032ZM61.656 63.272C63.4053 63.272 64.28 62.5253 64.28 61.032C64.28 60.2853 64.072 59.72 63.656 59.336C63.24 58.952 62.5733 58.76 61.656 58.76H59.4V63.272H61.656ZM75.2153 64.184C75.2153 64.568 75.2046 64.8613 75.1833 65.064H67.9353C67.9673 65.7253 68.1273 66.2907 68.4153 66.76C68.7033 67.2293 69.0819 67.5867 69.5513 67.832C70.0206 68.0667 70.5326 68.184 71.0873 68.184C71.8126 68.184 72.4206 68.008 72.9113 67.656C73.4126 67.304 73.7433 66.8293 73.9033 66.232H75.0873C74.8739 67.0853 74.4153 67.784 73.7113 68.328C73.0179 68.8613 72.1433 69.128 71.0873 69.128C70.2659 69.128 69.5299 68.9467 68.8793 68.584C68.2286 68.2107 67.7166 67.688 67.3433 67.016C66.9806 66.3333 66.7993 65.5387 66.7993 64.632C66.7993 63.7253 66.9806 62.9307 67.3433 62.248C67.7059 61.5653 68.2126 61.0427 68.8633 60.68C69.5139 60.3173 70.2553 60.136 71.0873 60.136C71.9193 60.136 72.6446 60.3173 73.2633 60.68C73.8926 61.0427 74.3726 61.5333 74.7033 62.152C75.0446 62.76 75.2153 63.4373 75.2153 64.184ZM74.0793 64.152C74.0899 63.5013 73.9566 62.9467 73.6793 62.488C73.4126 62.0293 73.0446 61.6827 72.5753 61.448C72.1059 61.2133 71.5939 61.096 71.0393 61.096C70.2073 61.096 69.4979 61.3627 68.9113 61.896C68.3246 62.4293 67.9993 63.1813 67.9353 64.152H74.0793ZM81.3604 60.104C82.4057 60.104 83.259 60.4293 83.9204 61.08C84.5817 61.72 84.9124 62.6533 84.9124 63.88V69H83.8084V64.008C83.8084 63.0587 83.5684 62.3333 83.0884 61.832C82.619 61.3307 81.9737 61.08 81.1524 61.08C80.3097 61.08 79.6377 61.3467 79.1364 61.88C78.635 62.4133 78.3844 63.1973 78.3844 64.232V69H77.2644V60.264H78.3844V61.752C78.6617 61.2187 79.0617 60.8133 79.5844 60.536C80.107 60.248 80.699 60.104 81.3604 60.104ZM86.8774 64.616C86.8774 63.72 87.0587 62.936 87.4214 62.264C87.784 61.5813 88.28 61.0587 88.9094 60.696C89.5494 60.3227 90.2694 60.136 91.0694 60.136C91.8374 60.136 92.5307 60.3227 93.1494 60.696C93.768 61.0693 94.2214 61.5547 94.5094 62.152V57.16H95.6294V69H94.5094V67.048C94.2427 67.656 93.8054 68.1573 93.1974 68.552C92.5894 68.936 91.8747 69.128 91.0534 69.128C90.2534 69.128 89.5334 68.9413 88.8934 68.568C88.264 68.1947 87.768 67.6667 87.4054 66.984C87.0534 66.3013 86.8774 65.512 86.8774 64.616ZM94.5094 64.632C94.5094 63.928 94.3654 63.3093 94.0774 62.776C93.7894 62.2427 93.3947 61.832 92.8934 61.544C92.4027 61.256 91.8587 61.112 91.2614 61.112C90.6427 61.112 90.088 61.2507 89.5974 61.528C89.1067 61.8053 88.7174 62.2107 88.4294 62.744C88.152 63.2667 88.0134 63.8907 88.0134 64.616C88.0134 65.3307 88.152 65.96 88.4294 66.504C88.7174 67.0373 89.1067 67.448 89.5974 67.736C90.088 68.0133 90.6427 68.152 91.2614 68.152C91.8587 68.152 92.4027 68.008 92.8934 67.72C93.3947 67.432 93.7894 67.0213 94.0774 66.488C94.3654 65.9547 94.5094 65.336 94.5094 64.632ZM98.7463 58.616C98.5223 58.616 98.3303 58.536 98.1703 58.376C98.0103 58.216 97.9303 58.0187 97.9303 57.784C97.9303 57.5493 98.0103 57.3573 98.1703 57.208C98.3303 57.048 98.5223 56.968 98.7463 56.968C98.9703 56.968 99.1623 57.048 99.3223 57.208C99.4823 57.3573 99.5623 57.5493 99.5623 57.784C99.5623 58.0187 99.4823 58.216 99.3223 58.376C99.1623 58.536 98.9703 58.616 98.7463 58.616ZM99.3063 60.264V69H98.1863V60.264H99.3063ZM105.939 60.104C106.984 60.104 107.837 60.4293 108.499 61.08C109.16 61.72 109.491 62.6533 109.491 63.88V69H108.387V64.008C108.387 63.0587 108.147 62.3333 107.667 61.832C107.197 61.3307 106.552 61.08 105.731 61.08C104.888 61.08 104.216 61.3467 103.715 61.88C103.213 62.4133 102.963 63.1973 102.963 64.232V69H101.843V60.264H102.963V61.752C103.24 61.2187 103.64 60.8133 104.163 60.536C104.685 60.248 105.277 60.104 105.939 60.104ZM115.632 60.136C116.453 60.136 117.168 60.328 117.776 60.712C118.384 61.096 118.821 61.5813 119.088 62.168V60.264H120.208V69.224C120.208 70.024 120.032 70.7333 119.68 71.352C119.338 71.9707 118.858 72.4453 118.24 72.776C117.621 73.1173 116.917 73.288 116.128 73.288C115.008 73.288 114.074 73.0213 113.328 72.488C112.592 71.9547 112.133 71.2293 111.952 70.312H113.056C113.248 70.92 113.61 71.4053 114.144 71.768C114.688 72.1307 115.349 72.312 116.128 72.312C116.693 72.312 117.2 72.1893 117.648 71.944C118.096 71.7093 118.448 71.3573 118.704 70.888C118.96 70.4187 119.088 69.864 119.088 69.224V67.064C118.81 67.6613 118.368 68.1573 117.76 68.552C117.162 68.936 116.453 69.128 115.632 69.128C114.832 69.128 114.112 68.9413 113.472 68.568C112.842 68.1947 112.346 67.6667 111.984 66.984C111.632 66.3013 111.456 65.512 111.456 64.616C111.456 63.72 111.632 62.936 111.984 62.264C112.346 61.5813 112.842 61.0587 113.472 60.696C114.112 60.3227 114.832 60.136 115.632 60.136ZM119.088 64.632C119.088 63.928 118.944 63.3093 118.656 62.776C118.368 62.2427 117.973 61.832 117.472 61.544C116.981 61.256 116.437 61.112 115.84 61.112C115.221 61.112 114.666 61.2507 114.176 61.528C113.685 61.8053 113.296 62.2107 113.008 62.744C112.73 63.2667 112.592 63.8907 112.592 64.616C112.592 65.3307 112.73 65.96 113.008 66.504C113.296 67.0373 113.685 67.448 114.176 67.736C114.666 68.0133 115.221 68.152 115.84 68.152C116.437 68.152 116.981 68.008 117.472 67.72C117.973 67.432 118.368 67.0213 118.656 66.488C118.944 65.9547 119.088 65.336 119.088 64.632Z" fill="white"/>
</svg>
