<svg width="144" height="38" viewBox="0 0 144 38" fill="none" xmlns="http://www.w3.org/2000/svg">
<path d="M0 19C0 8.50659 8.50659 0 19 0H125C135.493 0 144 8.50659 144 19C144 29.4934 135.493 38 125 38H19C8.50659 38 0 29.4934 0 19Z" fill="#8C2036"/>
<path d="M32.656 13.848V20.904C32.656 21.896 32.896 22.632 33.376 23.112C33.8667 23.592 34.544 23.832 35.408 23.832C36.2613 23.832 36.928 23.592 37.408 23.112C37.8987 22.632 38.144 21.896 38.144 20.904V13.848H39.6V20.888C39.6 21.816 39.4133 22.6 39.04 23.24C38.6667 23.8693 38.16 24.3387 37.52 24.648C36.8907 24.9573 36.1813 25.112 35.392 25.112C34.6027 25.112 33.888 24.9573 33.248 24.648C32.6187 24.3387 32.1173 23.8693 31.744 23.24C31.3813 22.6 31.2 21.816 31.2 20.888V13.848H32.656ZM43.4849 17.848C43.7729 17.3467 44.1995 16.9307 44.7649 16.6C45.3409 16.2587 46.0075 16.088 46.7649 16.088C47.5435 16.088 48.2475 16.2747 48.8769 16.648C49.5169 17.0213 50.0182 17.5493 50.3809 18.232C50.7435 18.904 50.9249 19.688 50.9249 20.584C50.9249 21.4693 50.7435 22.2587 50.3809 22.952C50.0182 23.6453 49.5169 24.184 48.8769 24.568C48.2475 24.952 47.5435 25.144 46.7649 25.144C46.0182 25.144 45.3569 24.9787 44.7809 24.648C44.2155 24.3067 43.7835 23.8853 43.4849 23.384V29.16H42.0289V16.232H43.4849V17.848ZM49.4369 20.584C49.4369 19.9227 49.3035 19.3467 49.0369 18.856C48.7702 18.3653 48.4075 17.992 47.9489 17.736C47.5009 17.48 47.0049 17.352 46.4609 17.352C45.9275 17.352 45.4315 17.4853 44.9729 17.752C44.5249 18.008 44.1622 18.3867 43.8849 18.888C43.6182 19.3787 43.4849 19.9493 43.4849 20.6C43.4849 21.2613 43.6182 21.8427 43.8849 22.344C44.1622 22.8347 44.5249 23.2133 44.9729 23.48C45.4315 23.736 45.9275 23.864 46.4609 23.864C47.0049 23.864 47.5009 23.736 47.9489 23.48C48.4075 23.2133 48.7702 22.8347 49.0369 22.344C49.3035 21.8427 49.4369 21.256 49.4369 20.584ZM54.2974 13.16V25H52.8414V13.16H54.2974ZM60.6029 25.144C59.7815 25.144 59.0349 24.9573 58.3629 24.584C57.7015 24.2107 57.1789 23.6827 56.7949 23C56.4215 22.3067 56.2349 21.5067 56.2349 20.6C56.2349 19.704 56.4269 18.9147 56.8109 18.232C57.2055 17.5387 57.7389 17.0107 58.4109 16.648C59.0829 16.2747 59.8349 16.088 60.6669 16.088C61.4989 16.088 62.2509 16.2747 62.9229 16.648C63.5949 17.0107 64.1229 17.5333 64.5069 18.216C64.9015 18.8987 65.0989 19.6933 65.0989 20.6C65.0989 21.5067 64.8962 22.3067 64.4909 23C64.0962 23.6827 63.5575 24.2107 62.8749 24.584C62.1922 24.9573 61.4349 25.144 60.6029 25.144ZM60.6029 23.864C61.1255 23.864 61.6162 23.7413 62.0749 23.496C62.5335 23.2507 62.9015 22.8827 63.1789 22.392C63.4669 21.9013 63.6109 21.304 63.6109 20.6C63.6109 19.896 63.4722 19.2987 63.1949 18.808C62.9175 18.3173 62.5549 17.9547 62.1069 17.72C61.6589 17.4747 61.1735 17.352 60.6509 17.352C60.1175 17.352 59.6269 17.4747 59.1789 17.72C58.7415 17.9547 58.3895 18.3173 58.1229 18.808C57.8562 19.2987 57.7229 19.896 57.7229 20.6C57.7229 21.3147 57.8509 21.9173 58.1069 22.408C58.3735 22.8987 58.7255 23.2667 59.1629 23.512C59.6002 23.7467 60.0802 23.864 60.6029 23.864ZM66.4693 20.584C66.4693 19.688 66.6506 18.904 67.0133 18.232C67.3759 17.5493 67.8719 17.0213 68.5013 16.648C69.1413 16.2747 69.8506 16.088 70.6293 16.088C71.3973 16.088 72.0639 16.2533 72.6293 16.584C73.1946 16.9147 73.6159 17.3307 73.8933 17.832V16.232H75.3653V25H73.8933V23.368C73.6053 23.88 73.1733 24.3067 72.5973 24.648C72.0319 24.9787 71.3706 25.144 70.6133 25.144C69.8346 25.144 69.1306 24.952 68.5013 24.568C67.8719 24.184 67.3759 23.6453 67.0133 22.952C66.6506 22.2587 66.4693 21.4693 66.4693 20.584ZM73.8933 20.6C73.8933 19.9387 73.7599 19.3627 73.4933 18.872C73.2266 18.3813 72.8639 18.008 72.4053 17.752C71.9573 17.4853 71.4613 17.352 70.9173 17.352C70.3733 17.352 69.8773 17.48 69.4293 17.736C68.9813 17.992 68.6239 18.3653 68.3573 18.856C68.0906 19.3467 67.9573 19.9227 67.9573 20.584C67.9573 21.256 68.0906 21.8427 68.3573 22.344C68.6239 22.8347 68.9813 23.2133 69.4293 23.48C69.8773 23.736 70.3733 23.864 70.9173 23.864C71.4613 23.864 71.9573 23.736 72.4053 23.48C72.8639 23.2133 73.2266 22.8347 73.4933 22.344C73.7599 21.8427 73.8933 21.2613 73.8933 20.6ZM77.2818 20.584C77.2818 19.688 77.4631 18.904 77.8258 18.232C78.1884 17.5493 78.6844 17.0213 79.3138 16.648C79.9538 16.2747 80.6684 16.088 81.4578 16.088C82.1404 16.088 82.7751 16.248 83.3618 16.568C83.9484 16.8773 84.3964 17.288 84.7058 17.8V13.16H86.1778V25H84.7058V23.352C84.4178 23.8747 83.9911 24.3067 83.4258 24.648C82.8604 24.9787 82.1991 25.144 81.4418 25.144C80.6631 25.144 79.9538 24.952 79.3138 24.568C78.6844 24.184 78.1884 23.6453 77.8258 22.952C77.4631 22.2587 77.2818 21.4693 77.2818 20.584ZM84.7058 20.6C84.7058 19.9387 84.5724 19.3627 84.3058 18.872C84.0391 18.3813 83.6764 18.008 83.2178 17.752C82.7698 17.4853 82.2738 17.352 81.7298 17.352C81.1858 17.352 80.6898 17.48 80.2418 17.736C79.7938 17.992 79.4364 18.3653 79.1698 18.856C78.9031 19.3467 78.7698 19.9227 78.7698 20.584C78.7698 21.256 78.9031 21.8427 79.1698 22.344C79.4364 22.8347 79.7938 23.2133 80.2418 23.48C80.6898 23.736 81.1858 23.864 81.7298 23.864C82.2738 23.864 82.7698 23.736 83.2178 23.48C83.6764 23.2133 84.0391 22.8347 84.3058 22.344C84.5724 21.8427 84.7058 21.2613 84.7058 20.6Z" fill="white"/>
<path d="M113.429 26.8H98.5714C98.4199 26.8 98.2745 26.8632 98.1674 26.9757C98.0602 27.0883 98 27.2409 98 27.4C98 27.5591 98.0602 27.7117 98.1674 27.8243C98.2745 27.9368 98.4199 28 98.5714 28H113.429C113.58 28 113.725 27.9368 113.833 27.8243C113.94 27.7117 114 27.5591 114 27.4C114 27.2409 113.94 27.0883 113.833 26.9757C113.725 26.8632 113.58 26.8 113.429 26.8ZM100.749 17.2L105.429 12.298V24.688C105.429 24.8471 105.489 24.9997 105.596 25.1123C105.703 25.2248 105.848 25.288 106 25.288C106.152 25.288 106.297 25.2248 106.404 25.1123C106.511 24.9997 106.571 24.8471 106.571 24.688V12.298L111.251 17.2C111.361 17.2983 111.501 17.3497 111.645 17.3438C111.789 17.338 111.925 17.2754 112.027 17.1685C112.129 17.0617 112.189 16.9184 112.194 16.7674C112.2 16.6164 112.151 16.4688 112.057 16.354L106 10L99.9371 16.366C99.8747 16.4193 99.8236 16.4859 99.7873 16.5614C99.7511 16.6368 99.7304 16.7195 99.7267 16.804C99.723 16.8884 99.7363 16.9727 99.7658 17.0514C99.7953 17.1301 99.8402 17.2013 99.8978 17.2604C99.9553 17.3196 100.024 17.3653 100.1 17.3945C100.175 17.4238 100.256 17.436 100.336 17.4303C100.416 17.4246 100.495 17.4011 100.566 17.3614C100.637 17.3217 100.699 17.2667 100.749 17.2Z" fill="white"/>
</svg>
