<svg width="232" height="38" viewBox="0 0 232 38" fill="none" xmlns="http://www.w3.org/2000/svg">
<path d="M0 19C0 8.50659 8.50659 0 19 0H213C223.493 0 232 8.50659 232 19C232 29.4934 223.493 38 213 38H19C8.50659 38 0 29.4934 0 19Z" fill="#8C2036"/>
<path d="M32.656 13.848V20.904C32.656 21.896 32.896 22.632 33.376 23.112C33.8667 23.592 34.544 23.832 35.408 23.832C36.2613 23.832 36.928 23.592 37.408 23.112C37.8987 22.632 38.144 21.896 38.144 20.904V13.848H39.6V20.888C39.6 21.816 39.4133 22.6 39.04 23.24C38.6667 23.8693 38.16 24.3387 37.52 24.648C36.8907 24.9573 36.1813 25.112 35.392 25.112C34.6027 25.112 33.888 24.9573 33.248 24.648C32.6187 24.3387 32.1173 23.8693 31.744 23.24C31.3813 22.6 31.2 21.816 31.2 20.888V13.848H32.656ZM43.4849 17.848C43.7729 17.3467 44.1995 16.9307 44.7649 16.6C45.3409 16.2587 46.0075 16.088 46.7649 16.088C47.5435 16.088 48.2475 16.2747 48.8769 16.648C49.5169 17.0213 50.0182 17.5493 50.3809 18.232C50.7435 18.904 50.9249 19.688 50.9249 20.584C50.9249 21.4693 50.7435 22.2587 50.3809 22.952C50.0182 23.6453 49.5169 24.184 48.8769 24.568C48.2475 24.952 47.5435 25.144 46.7649 25.144C46.0182 25.144 45.3569 24.9787 44.7809 24.648C44.2155 24.3067 43.7835 23.8853 43.4849 23.384V29.16H42.0289V16.232H43.4849V17.848ZM49.4369 20.584C49.4369 19.9227 49.3035 19.3467 49.0369 18.856C48.7702 18.3653 48.4075 17.992 47.9489 17.736C47.5009 17.48 47.0049 17.352 46.4609 17.352C45.9275 17.352 45.4315 17.4853 44.9729 17.752C44.5249 18.008 44.1622 18.3867 43.8849 18.888C43.6182 19.3787 43.4849 19.9493 43.4849 20.6C43.4849 21.2613 43.6182 21.8427 43.8849 22.344C44.1622 22.8347 44.5249 23.2133 44.9729 23.48C45.4315 23.736 45.9275 23.864 46.4609 23.864C47.0049 23.864 47.5009 23.736 47.9489 23.48C48.4075 23.2133 48.7702 22.8347 49.0369 22.344C49.3035 21.8427 49.4369 21.256 49.4369 20.584ZM54.2974 13.16V25H52.8414V13.16H54.2974ZM60.6029 25.144C59.7815 25.144 59.0349 24.9573 58.3629 24.584C57.7015 24.2107 57.1789 23.6827 56.7949 23C56.4215 22.3067 56.2349 21.5067 56.2349 20.6C56.2349 19.704 56.4269 18.9147 56.8109 18.232C57.2055 17.5387 57.7389 17.0107 58.4109 16.648C59.0829 16.2747 59.8349 16.088 60.6669 16.088C61.4989 16.088 62.2509 16.2747 62.9229 16.648C63.5949 17.0107 64.1229 17.5333 64.5069 18.216C64.9015 18.8987 65.0989 19.6933 65.0989 20.6C65.0989 21.5067 64.8962 22.3067 64.4909 23C64.0962 23.6827 63.5575 24.2107 62.8749 24.584C62.1922 24.9573 61.4349 25.144 60.6029 25.144ZM60.6029 23.864C61.1255 23.864 61.6162 23.7413 62.0749 23.496C62.5335 23.2507 62.9015 22.8827 63.1789 22.392C63.4669 21.9013 63.6109 21.304 63.6109 20.6C63.6109 19.896 63.4722 19.2987 63.1949 18.808C62.9175 18.3173 62.5549 17.9547 62.1069 17.72C61.6589 17.4747 61.1735 17.352 60.6509 17.352C60.1175 17.352 59.6269 17.4747 59.1789 17.72C58.7415 17.9547 58.3895 18.3173 58.1229 18.808C57.8562 19.2987 57.7229 19.896 57.7229 20.6C57.7229 21.3147 57.8509 21.9173 58.1069 22.408C58.3735 22.8987 58.7255 23.2667 59.1629 23.512C59.6002 23.7467 60.0802 23.864 60.6029 23.864ZM66.4693 20.584C66.4693 19.688 66.6506 18.904 67.0133 18.232C67.3759 17.5493 67.8719 17.0213 68.5013 16.648C69.1413 16.2747 69.8506 16.088 70.6293 16.088C71.3973 16.088 72.0639 16.2533 72.6293 16.584C73.1946 16.9147 73.6159 17.3307 73.8933 17.832V16.232H75.3653V25H73.8933V23.368C73.6053 23.88 73.1733 24.3067 72.5973 24.648C72.0319 24.9787 71.3706 25.144 70.6133 25.144C69.8346 25.144 69.1306 24.952 68.5013 24.568C67.8719 24.184 67.3759 23.6453 67.0133 22.952C66.6506 22.2587 66.4693 21.4693 66.4693 20.584ZM73.8933 20.6C73.8933 19.9387 73.7599 19.3627 73.4933 18.872C73.2266 18.3813 72.8639 18.008 72.4053 17.752C71.9573 17.4853 71.4613 17.352 70.9173 17.352C70.3733 17.352 69.8773 17.48 69.4293 17.736C68.9813 17.992 68.6239 18.3653 68.3573 18.856C68.0906 19.3467 67.9573 19.9227 67.9573 20.584C67.9573 21.256 68.0906 21.8427 68.3573 22.344C68.6239 22.8347 68.9813 23.2133 69.4293 23.48C69.8773 23.736 70.3733 23.864 70.9173 23.864C71.4613 23.864 71.9573 23.736 72.4053 23.48C72.8639 23.2133 73.2266 22.8347 73.4933 22.344C73.7599 21.8427 73.8933 21.2613 73.8933 20.6ZM77.2818 20.584C77.2818 19.688 77.4631 18.904 77.8258 18.232C78.1884 17.5493 78.6844 17.0213 79.3138 16.648C79.9538 16.2747 80.6684 16.088 81.4578 16.088C82.1404 16.088 82.7751 16.248 83.3618 16.568C83.9484 16.8773 84.3964 17.288 84.7058 17.8V13.16H86.1778V25H84.7058V23.352C84.4178 23.8747 83.9911 24.3067 83.4258 24.648C82.8604 24.9787 82.1991 25.144 81.4418 25.144C80.6631 25.144 79.9538 24.952 79.3138 24.568C78.6844 24.184 78.1884 23.6453 77.8258 22.952C77.4631 22.2587 77.2818 21.4693 77.2818 20.584ZM84.7058 20.6C84.7058 19.9387 84.5724 19.3627 84.3058 18.872C84.0391 18.3813 83.6764 18.008 83.2178 17.752C82.7698 17.4853 82.2738 17.352 81.7298 17.352C81.1858 17.352 80.6898 17.48 80.2418 17.736C79.7938 17.992 79.4364 18.3653 79.1698 18.856C78.9031 19.3467 78.7698 19.9227 78.7698 20.584C78.7698 21.256 78.9031 21.8427 79.1698 22.344C79.4364 22.8347 79.7938 23.2133 80.2418 23.48C80.6898 23.736 81.1858 23.864 81.7298 23.864C82.2738 23.864 82.7698 23.736 83.2178 23.48C83.6764 23.2133 84.0391 22.8347 84.3058 22.344C84.5724 21.8427 84.7058 21.2613 84.7058 20.6ZM96.3759 13.848C97.5919 13.848 98.6425 14.0773 99.5279 14.536C100.424 14.984 101.107 15.6293 101.576 16.472C102.056 17.3147 102.296 18.3067 102.296 19.448C102.296 20.5893 102.056 21.5813 101.576 22.424C101.107 23.256 100.424 23.896 99.5279 24.344C98.6425 24.7813 97.5919 25 96.3759 25H92.9039V13.848H96.3759ZM96.3759 23.8C97.8159 23.8 98.9145 23.4213 99.6719 22.664C100.429 21.896 100.808 20.824 100.808 19.448C100.808 18.0613 100.424 16.9787 99.6559 16.2C98.8985 15.4213 97.8052 15.032 96.3759 15.032H94.3599V23.8H96.3759ZM108.04 25.144C107.219 25.144 106.472 24.9573 105.8 24.584C105.139 24.2107 104.616 23.6827 104.232 23C103.859 22.3067 103.672 21.5067 103.672 20.6C103.672 19.704 103.864 18.9147 104.248 18.232C104.643 17.5387 105.176 17.0107 105.848 16.648C106.52 16.2747 107.272 16.088 108.104 16.088C108.936 16.088 109.688 16.2747 110.36 16.648C111.032 17.0107 111.56 17.5333 111.944 18.216C112.339 18.8987 112.536 19.6933 112.536 20.6C112.536 21.5067 112.334 22.3067 111.928 23C111.534 23.6827 110.995 24.2107 110.312 24.584C109.63 24.9573 108.872 25.144 108.04 25.144ZM108.04 23.864C108.563 23.864 109.054 23.7413 109.512 23.496C109.971 23.2507 110.339 22.8827 110.616 22.392C110.904 21.9013 111.048 21.304 111.048 20.6C111.048 19.896 110.91 19.2987 110.632 18.808C110.355 18.3173 109.992 17.9547 109.544 17.72C109.096 17.4747 108.611 17.352 108.088 17.352C107.555 17.352 107.064 17.4747 106.616 17.72C106.179 17.9547 105.827 18.3173 105.56 18.808C105.294 19.2987 105.16 19.896 105.16 20.6C105.16 21.3147 105.288 21.9173 105.544 22.408C105.811 22.8987 106.163 23.2667 106.6 23.512C107.038 23.7467 107.518 23.864 108.04 23.864ZM113.907 20.6C113.907 19.6933 114.088 18.904 114.451 18.232C114.813 17.5493 115.315 17.0213 115.955 16.648C116.605 16.2747 117.347 16.088 118.179 16.088C119.256 16.088 120.141 16.3493 120.835 16.872C121.539 17.3947 122.003 18.12 122.227 19.048H120.659C120.509 18.5147 120.216 18.0933 119.779 17.784C119.352 17.4747 118.819 17.32 118.179 17.32C117.347 17.32 116.675 17.608 116.163 18.184C115.651 18.7493 115.395 19.5547 115.395 20.6C115.395 21.656 115.651 22.472 116.163 23.048C116.675 23.624 117.347 23.912 118.179 23.912C118.819 23.912 119.352 23.7627 119.779 23.464C120.205 23.1653 120.499 22.7387 120.659 22.184H122.227C121.992 23.08 121.523 23.8 120.819 24.344C120.115 24.8773 119.235 25.144 118.179 25.144C117.347 25.144 116.605 24.9573 115.955 24.584C115.315 24.2107 114.813 23.6827 114.451 23C114.088 22.3173 113.907 21.5173 113.907 20.6ZM131.946 16.232V25H130.49V23.704C130.212 24.152 129.823 24.504 129.322 24.76C128.831 25.0053 128.287 25.128 127.69 25.128C127.007 25.128 126.394 24.9893 125.85 24.712C125.306 24.424 124.874 23.9973 124.554 23.432C124.244 22.8667 124.09 22.1787 124.09 21.368V16.232H125.53V21.176C125.53 22.04 125.748 22.7067 126.186 23.176C126.623 23.6347 127.22 23.864 127.978 23.864C128.756 23.864 129.37 23.624 129.818 23.144C130.266 22.664 130.49 21.9653 130.49 21.048V16.232H131.946ZM144.948 16.072C145.631 16.072 146.239 16.216 146.772 16.504C147.305 16.7813 147.727 17.2027 148.036 17.768C148.345 18.3333 148.5 19.0213 148.5 19.832V25H147.06V20.04C147.06 19.1653 146.841 18.4987 146.404 18.04C145.977 17.5707 145.396 17.336 144.66 17.336C143.903 17.336 143.3 17.5813 142.852 18.072C142.404 18.552 142.18 19.2507 142.18 20.168V25H140.74V20.04C140.74 19.1653 140.521 18.4987 140.084 18.04C139.657 17.5707 139.076 17.336 138.34 17.336C137.583 17.336 136.98 17.5813 136.532 18.072C136.084 18.552 135.86 19.2507 135.86 20.168V25H134.404V16.232H135.86V17.496C136.148 17.0373 136.532 16.6853 137.012 16.44C137.503 16.1947 138.041 16.072 138.628 16.072C139.364 16.072 140.015 16.2373 140.58 16.568C141.145 16.8987 141.567 17.384 141.844 18.024C142.089 17.4053 142.495 16.9253 143.06 16.584C143.625 16.2427 144.255 16.072 144.948 16.072ZM158.888 20.28C158.888 20.5573 158.872 20.8507 158.84 21.16H151.832C151.886 22.024 152.179 22.7013 152.712 23.192C153.256 23.672 153.912 23.912 154.68 23.912C155.31 23.912 155.832 23.768 156.248 23.48C156.675 23.1813 156.974 22.7867 157.144 22.296H158.712C158.478 23.1387 158.008 23.8267 157.304 24.36C156.6 24.8827 155.726 25.144 154.68 25.144C153.848 25.144 153.102 24.9573 152.44 24.584C151.79 24.2107 151.278 23.6827 150.904 23C150.531 22.3067 150.344 21.5067 150.344 20.6C150.344 19.6933 150.526 18.8987 150.888 18.216C151.251 17.5333 151.758 17.0107 152.408 16.648C153.07 16.2747 153.827 16.088 154.68 16.088C155.512 16.088 156.248 16.2693 156.888 16.632C157.528 16.9947 158.019 17.496 158.36 18.136C158.712 18.7653 158.888 19.48 158.888 20.28ZM157.384 19.976C157.384 19.4213 157.262 18.9467 157.016 18.552C156.771 18.1467 156.435 17.8427 156.008 17.64C155.592 17.4267 155.128 17.32 154.616 17.32C153.88 17.32 153.251 17.5547 152.728 18.024C152.216 18.4933 151.923 19.144 151.848 19.976H157.384ZM165.082 16.072C166.149 16.072 167.013 16.3973 167.674 17.048C168.335 17.688 168.666 18.616 168.666 19.832V25H167.226V20.04C167.226 19.1653 167.007 18.4987 166.57 18.04C166.133 17.5707 165.535 17.336 164.778 17.336C164.01 17.336 163.397 17.576 162.938 18.056C162.49 18.536 162.266 19.2347 162.266 20.152V25H160.81V16.232H162.266V17.48C162.554 17.032 162.943 16.6853 163.434 16.44C163.935 16.1947 164.485 16.072 165.082 16.072ZM172.821 17.432V22.6C172.821 23.0267 172.911 23.3307 173.093 23.512C173.274 23.6827 173.589 23.768 174.036 23.768H175.109V25H173.797C172.986 25 172.378 24.8133 171.973 24.44C171.567 24.0667 171.365 23.4533 171.365 22.6V17.432H170.229V16.232H171.365V14.024H172.821V16.232H175.109V17.432H172.821Z" fill="white"/>
<path d="M201.429 26.8H186.571C186.42 26.8 186.275 26.8632 186.167 26.9757C186.06 27.0883 186 27.2409 186 27.4C186 27.5591 186.06 27.7117 186.167 27.8243C186.275 27.9368 186.42 28 186.571 28H201.429C201.58 28 201.725 27.9368 201.833 27.8243C201.94 27.7117 202 27.5591 202 27.4C202 27.2409 201.94 27.0883 201.833 26.9757C201.725 26.8632 201.58 26.8 201.429 26.8ZM188.749 17.2L193.429 12.298V24.688C193.429 24.8471 193.489 24.9997 193.596 25.1123C193.703 25.2248 193.848 25.288 194 25.288C194.152 25.288 194.297 25.2248 194.404 25.1123C194.511 24.9997 194.571 24.8471 194.571 24.688V12.298L199.251 17.2C199.361 17.2983 199.501 17.3497 199.645 17.3438C199.789 17.338 199.925 17.2754 200.027 17.1685C200.129 17.0617 200.189 16.9184 200.194 16.7674C200.2 16.6164 200.151 16.4688 200.057 16.354L194 10L187.937 16.366C187.875 16.4193 187.824 16.4859 187.787 16.5614C187.751 16.6368 187.73 16.7195 187.727 16.804C187.723 16.8884 187.736 16.9727 187.766 17.0514C187.795 17.1301 187.84 17.2013 187.898 17.2604C187.955 17.3196 188.024 17.3653 188.1 17.3945C188.175 17.4238 188.256 17.436 188.336 17.4303C188.416 17.4246 188.495 17.4011 188.566 17.3614C188.637 17.3217 188.699 17.2667 188.749 17.2Z" fill="white"/>
</svg>
