<svg width="213" height="38" viewBox="0 0 213 38" fill="none" xmlns="http://www.w3.org/2000/svg">
<path d="M0 19C0 8.50659 8.50659 0 19 0H194C204.493 0 213 8.50659 213 19C213 29.4934 204.493 38 194 38H19C8.50659 38 0 29.4934 0 19Z" fill="#8C2036"/>
<path d="M31.2 20.888V13.848H32.656V20.904C32.656 22.952 33.76 23.832 35.408 23.832C37.056 23.832 38.144 22.952 38.144 20.904V13.848H39.6V20.888C39.6 23.784 37.696 25.112 35.392 25.112C33.088 25.112 31.2 23.784 31.2 20.888ZM43.4849 17.848C44.0129 16.92 45.1649 16.088 46.7649 16.088C49.1169 16.088 50.9249 17.848 50.9249 20.584C50.9249 23.304 49.1169 25.144 46.7649 25.144C45.1649 25.144 44.0289 24.28 43.4849 23.384V29.16H42.0289V16.232H43.4849V17.848ZM49.4369 20.584C49.4369 18.52 48.0769 17.352 46.4609 17.352C44.8769 17.352 43.4849 18.568 43.4849 20.6C43.4849 22.664 44.8769 23.864 46.4609 23.864C48.0769 23.864 49.4369 22.648 49.4369 20.584ZM52.8414 25V13.16H54.2974V25H52.8414ZM65.0989 20.6C65.0989 23.384 63.0989 25.144 60.6029 25.144C58.1229 25.144 56.2349 23.384 56.2349 20.6C56.2349 17.832 58.1869 16.088 60.6669 16.088C63.1629 16.088 65.0989 17.832 65.0989 20.6ZM57.7229 20.6C57.7229 22.824 59.0829 23.864 60.6029 23.864C62.1229 23.864 63.6109 22.824 63.6109 20.6C63.6109 18.392 62.1549 17.352 60.6509 17.352C59.1149 17.352 57.7229 18.392 57.7229 20.6ZM66.4693 20.584C66.4693 17.848 68.2773 16.088 70.6293 16.088C72.2613 16.088 73.3813 16.92 73.8933 17.832V16.232H75.3653V25H73.8933V23.368C73.3653 24.312 72.2293 25.144 70.6133 25.144C68.2773 25.144 66.4693 23.304 66.4693 20.584ZM73.8933 20.6C73.8933 18.568 72.5173 17.352 70.9173 17.352C69.3173 17.352 67.9573 18.52 67.9573 20.584C67.9573 22.648 69.3173 23.864 70.9173 23.864C72.5173 23.864 73.8933 22.664 73.8933 20.6ZM77.2818 20.584C77.2818 17.848 79.0898 16.088 81.4578 16.088C82.8338 16.088 84.0978 16.792 84.7058 17.8V13.16H86.1778V25H84.7058V23.352C84.1778 24.328 83.0418 25.144 81.4418 25.144C79.0898 25.144 77.2818 23.304 77.2818 20.584ZM84.7058 20.6C84.7058 18.568 83.3298 17.352 81.7298 17.352C80.1298 17.352 78.7698 18.52 78.7698 20.584C78.7698 22.648 80.1298 23.864 81.7298 23.864C83.3298 23.864 84.7058 22.664 84.7058 20.6ZM98.8719 17.128C98.8719 15.864 98.1679 15.048 96.5039 15.048H94.3599V19.272H96.5039C98.1519 19.272 98.8719 18.376 98.8719 17.128ZM92.9039 13.848H96.5039C99.1279 13.848 100.376 15.304 100.376 17.128C100.376 18.552 99.5919 19.912 97.7199 20.328L100.52 25H98.7759L96.1199 20.44H94.3599V25H92.9039V13.848ZM106.366 17.32C104.942 17.32 103.758 18.264 103.598 19.976H109.134C109.15 18.264 107.87 17.32 106.366 17.32ZM110.462 22.296C110.014 23.896 108.606 25.144 106.43 25.144C103.934 25.144 102.094 23.384 102.094 20.6C102.094 17.832 103.87 16.088 106.43 16.088C108.974 16.088 110.638 17.88 110.638 20.28C110.638 20.6 110.622 20.856 110.59 21.16H103.582C103.694 22.936 104.942 23.912 106.43 23.912C107.742 23.912 108.574 23.24 108.894 22.296H110.462ZM118.864 22.616C118.864 24.056 117.6 25.144 115.664 25.144C113.616 25.144 112.176 24.024 112.08 22.424H113.584C113.664 23.272 114.416 23.912 115.648 23.912C116.8 23.912 117.44 23.336 117.44 22.616C117.44 20.664 112.256 21.8 112.256 18.536C112.256 17.192 113.52 16.088 115.472 16.088C117.408 16.088 118.688 17.128 118.784 18.84H117.328C117.264 17.96 116.592 17.32 115.424 17.32C114.352 17.32 113.712 17.832 113.712 18.536C113.712 20.616 118.8 19.48 118.864 22.616ZM128.696 16.232V25H127.24V23.704C126.68 24.616 125.608 25.128 124.44 25.128C122.424 25.128 120.84 23.88 120.84 21.368V16.232H122.28V21.176C122.28 22.952 123.256 23.864 124.728 23.864C126.232 23.864 127.24 22.936 127.24 21.048V16.232H128.696ZM143.81 25V20.04C143.81 18.248 142.85 17.336 141.41 17.336C139.938 17.336 138.93 18.28 138.93 20.168V25H137.49V20.04C137.49 18.248 136.53 17.336 135.09 17.336C133.618 17.336 132.61 18.28 132.61 20.168V25H131.154V16.232H132.61V17.496C133.186 16.568 134.226 16.072 135.378 16.072C136.818 16.072 138.018 16.712 138.594 18.024C139.106 16.76 140.354 16.072 141.698 16.072C143.698 16.072 145.25 17.32 145.25 19.832V25H143.81ZM151.366 17.32C149.942 17.32 148.758 18.264 148.598 19.976H154.134C154.15 18.264 152.87 17.32 151.366 17.32ZM155.462 22.296C155.014 23.896 153.606 25.144 151.43 25.144C148.934 25.144 147.094 23.384 147.094 20.6C147.094 17.832 148.87 16.088 151.43 16.088C153.974 16.088 155.638 17.88 155.638 20.28C155.638 20.6 155.622 20.856 155.59 21.16H148.582C148.694 22.936 149.942 23.912 151.43 23.912C152.742 23.912 153.574 23.24 153.894 22.296H155.462Z" fill="white"/>
<path d="M182.429 26.8H167.571C167.42 26.8 167.275 26.8632 167.167 26.9757C167.06 27.0883 167 27.2409 167 27.4C167 27.5591 167.06 27.7117 167.167 27.8243C167.275 27.9368 167.42 28 167.571 28H182.429C182.58 28 182.725 27.9368 182.833 27.8243C182.94 27.7117 183 27.5591 183 27.4C183 27.2409 182.94 27.0883 182.833 26.9757C182.725 26.8632 182.58 26.8 182.429 26.8ZM169.749 17.2L174.429 12.298V24.688C174.429 24.8471 174.489 24.9997 174.596 25.1123C174.703 25.2248 174.848 25.288 175 25.288C175.152 25.288 175.297 25.2248 175.404 25.1123C175.511 24.9997 175.571 24.8471 175.571 24.688V12.298L180.251 17.2C180.361 17.2983 180.501 17.3497 180.645 17.3438C180.789 17.338 180.925 17.2754 181.027 17.1685C181.129 17.0617 181.189 16.9184 181.194 16.7674C181.2 16.6164 181.151 16.4688 181.057 16.354L175 10L168.937 16.366C168.875 16.4193 168.824 16.4859 168.787 16.5614C168.751 16.6368 168.73 16.7195 168.727 16.804C168.723 16.8884 168.736 16.9727 168.766 17.0514C168.795 17.1301 168.84 17.2013 168.898 17.2604C168.955 17.3196 169.024 17.3653 169.1 17.3945C169.175 17.4238 169.256 17.436 169.336 17.4303C169.416 17.4246 169.495 17.4011 169.566 17.3614C169.637 17.3217 169.699 17.2667 169.749 17.2Z" fill="white"/>
</svg>
