<svg width="141" height="36" viewBox="0 0 141 36" fill="none" xmlns="http://www.w3.org/2000/svg">
<g clip-path="url(#clip0_4489_284)">
<path d="M3.18619 13.1382V34.5401H0V13.1382H3.18619Z" fill="#F05025"/>
<path d="M33.2946 19.4454H36.3867V34.5401H33.3554L33.2005 32.0928C32.1772 34.02 29.8263 34.9398 27.94 34.9398C23.4871 34.9726 20.1128 32.1256 20.1128 26.9791C20.1128 21.8325 23.6088 19.1115 28.0009 19.1115C30.1692 19.1115 32.238 20.1243 33.2005 21.838L33.2946 19.4509V19.4454ZM23.3045 26.9791C23.3045 30.0999 25.5338 31.9997 28.2553 31.9997C34.8434 31.9997 34.8434 21.9858 28.2553 21.9858C25.5338 21.9858 23.3045 23.8857 23.3045 26.9791Z" fill="#F05025"/>
<path d="M12.9549 31.9668C10.1726 31.9668 8.2531 30.4667 7.97653 28.1726H18.9844C18.9401 27.7894 18.9125 27.3952 18.9125 26.9791C18.9125 25.5063 19.2167 24.2361 19.7422 23.1575C18.5806 20.4035 15.9863 19.0512 12.6784 19.0512C7.91568 19.0512 4.66864 22.3253 4.66864 26.9188C4.66864 31.7588 7.88802 34.9124 12.8996 34.9124C15.2506 34.9124 17.8781 34.0528 19.4601 32.3391L17.3857 30.3462C16.4564 31.3865 14.5093 31.9668 12.9605 31.9668H12.9549ZM12.7669 21.8654C15.3335 21.8654 17.0981 23.1192 17.2862 25.5118H8.03737C8.53522 23.1246 10.4491 21.8654 12.7724 21.8654H12.7669Z" fill="#F05025"/>
<path d="M60.7976 34.5401V26.459C60.7976 23.8583 59.3151 22.1118 56.6821 22.1118C54.0491 22.1118 52.4117 24.1649 52.4117 26.6451V34.5456H49.2255V19.4181H52.1351L52.3232 21.6245C53.778 20.0039 55.4762 19.2045 57.4565 19.2045C61.1682 19.2045 64.017 21.8052 64.017 26.4316V34.5456H60.7976V34.5401Z" fill="#F05025"/>
<path d="M76.9222 19.4126L80.573 31.2934L84.3456 19.4126H87.9024L82.5478 34.6004H78.8361L77.0439 29.5797L75.5614 24.3128L74.0458 29.5797L72.2535 34.6004H68.5418L63.1596 19.4126H66.7496L70.5221 31.2934L74.173 19.4126H76.9277H76.9222Z" fill="#F05025"/>
<path d="M110.715 22.2322C108.519 22.2322 106.599 23.5791 106.599 26.3659V34.5401H103.413V19.4454H106.383L106.599 21.4383C107.711 19.5111 109.442 19.1115 111.085 19.1115C111.932 19.1115 112.761 19.2812 113.475 19.5714C113.475 19.5714 112.772 19.752 111.837 20.6499C110.98 21.4767 110.715 22.2377 110.715 22.2377V22.2322Z" fill="#F05025"/>
<path d="M126.966 13.1382V34.5401H123.968L123.78 32.153C122.574 34.0802 120.533 34.8467 118.492 34.8467C114.067 34.8467 110.698 31.9668 110.698 26.9791C110.698 21.9913 114.006 19.1115 118.431 19.1115C120.29 19.1115 122.796 20.0313 123.78 21.8052V13.1382H126.966ZM113.884 26.9791C113.884 30.0123 116.019 31.9066 118.713 31.9066C121.407 31.9066 123.57 29.9466 123.57 26.9791C123.57 24.0116 121.374 22.0789 118.713 22.0789C116.053 22.0789 113.884 23.8857 113.884 26.9791Z" fill="#F05025"/>
<path d="M114.924 26.1688C115.068 26.1414 115.217 26.114 115.361 26.0812C115.699 26.01 116.03 25.9279 116.346 25.7691C116.689 25.5994 116.921 25.3311 117.07 24.9862C117.231 24.6084 117.314 24.2142 117.391 23.8145C117.397 23.7817 117.402 23.7488 117.413 23.716C117.413 23.716 117.419 23.7105 117.424 23.705C117.474 23.924 117.513 24.1375 117.568 24.3511C117.629 24.6139 117.712 24.8712 117.834 25.1121C118.005 25.4516 118.276 25.676 118.619 25.8239C118.979 25.9772 119.355 26.0538 119.737 26.1305C119.792 26.1414 119.847 26.1524 119.903 26.1633C119.903 26.1633 119.908 26.1688 119.919 26.1743C119.753 26.2071 119.593 26.24 119.432 26.2728C119.112 26.344 118.796 26.4261 118.503 26.5685C118.155 26.7382 117.922 27.0119 117.773 27.3623C117.624 27.7182 117.541 28.096 117.469 28.4738C117.458 28.5231 117.447 28.5778 117.424 28.6326C117.408 28.5504 117.391 28.4683 117.375 28.3862C117.303 28.0358 117.225 27.6908 117.081 27.3569C116.91 26.9572 116.628 26.6725 116.219 26.5082C115.837 26.3495 115.433 26.2728 115.029 26.1907C114.996 26.1852 114.968 26.1797 114.935 26.1743C114.935 26.1743 114.935 26.1688 114.935 26.1633L114.924 26.1688Z" fill="#F05025"/>
<path d="M121.739 28.7749C121.556 28.8132 121.391 28.8406 121.225 28.8899C121.064 28.9392 120.904 28.9939 120.754 29.076C120.517 29.202 120.389 29.421 120.317 29.6673C120.251 29.8863 120.201 30.1108 120.14 30.3408C120.118 30.2313 120.102 30.1272 120.074 30.0232C120.03 29.8535 119.986 29.6838 119.919 29.525C119.797 29.2184 119.554 29.0322 119.244 28.9446C119.023 28.8789 118.796 28.8297 118.564 28.7694C118.652 28.753 118.735 28.7366 118.818 28.7147C118.984 28.6709 119.145 28.6326 119.305 28.5833C119.659 28.4683 119.875 28.2165 119.98 27.8715C120.035 27.6744 120.08 27.4718 120.129 27.2693C120.129 27.2528 120.14 27.2309 120.146 27.209C120.196 27.4171 120.24 27.6142 120.29 27.8058C120.334 27.9756 120.406 28.1398 120.522 28.2767C120.66 28.4464 120.848 28.5504 121.059 28.6052C121.258 28.6599 121.462 28.7037 121.667 28.753C121.684 28.753 121.706 28.764 121.739 28.7694V28.7749Z" fill="#F05025"/>
<path d="M134.534 25.4789C132.586 25.2928 131.253 24.8055 131.226 23.5517C131.226 22.3581 132.526 21.7121 134.473 21.7449C135.988 21.7449 137.288 22.0515 138.494 23.152L140.286 21.0715C138.583 19.5713 136.757 19.0512 134.406 19.0512C131.563 19.0512 128.067 20.305 128.067 23.6448C128.1 26.9845 131.408 27.8989 134.285 28.1781C136.542 28.3916 137.841 28.9118 137.814 30.2586C137.781 31.6657 136.082 32.2187 134.567 32.2187C132.775 32.1858 130.639 31.5452 129.218 29.9849L129.118 30.1163V33.5874C130.783 34.6934 132.647 35.0055 134.506 35.0055C138.467 35.0055 140.972 33.0454 141 30.2312C141.033 26.344 137.349 25.7308 134.534 25.4844V25.4789Z" fill="#F05025"/>
<path d="M99.043 19.4454L98.9489 21.8325C97.992 20.1188 95.9176 19.106 93.7492 19.106C91.7579 19.106 89.9601 19.6863 88.5772 20.7923L85.9718 28.4792C86.5692 32.6676 89.6891 34.9617 93.6884 34.9343C95.5747 34.9343 97.9256 34.0145 98.9489 32.0873L99.1038 34.5346H102.135V19.4399H99.043V19.4454ZM94.0037 31.9997C91.2822 31.9997 89.0529 30.0998 89.0529 26.9791C89.0529 23.8583 91.2822 21.9858 94.0037 21.9858C100.592 21.9858 100.592 31.9997 94.0037 31.9997Z" fill="#F05025"/>
<path d="M47.7375 19.3961C47.1457 19.2155 46.4985 19.106 45.8402 19.106C44.2029 19.106 42.4659 19.5056 41.3541 21.4328L41.1384 19.4399H38.1679V34.5346H41.3541V26.3604C41.3541 23.5736 43.2736 22.2267 45.4696 22.2267C46.4321 22.2267 47.1014 22.4348 47.7431 22.8454V19.3907L47.7375 19.3961Z" fill="#F05025"/>
<path d="M43.0469 14.7587H41.9904L40.4249 10.5758L39.2522 6.8582L38.0408 10.5977L36.4754 14.7642H35.4188L31.9727 5.19379H33.0292L35.9443 13.6637L38.8982 5.19379H39.5841L42.5214 13.6637L45.4199 5.19379H46.4765L43.0524 14.7642L43.0469 14.7587Z" fill="#1B2F5B"/>
<path d="M46.3603 9.87495C46.3603 7.00603 48.5508 4.93646 51.2723 4.93646C53.9939 4.93646 56.4222 6.58445 56.0461 10.3239H47.3339C47.5275 12.5741 49.2699 13.8882 51.2668 13.8882C52.5391 13.8882 54.0271 13.3844 54.7517 12.4373L55.4376 12.9793C54.4973 14.2002 52.8157 14.8189 51.2668 14.8189C48.5453 14.8189 46.3548 12.9191 46.3548 9.88042L46.3603 9.87495ZM55.1887 9.48622C55.1666 7.121 53.6011 5.80699 51.2723 5.80699C49.2754 5.80699 47.5551 7.1429 47.3394 9.48622H55.1887Z" fill="#1B2F5B"/>
<path d="M66.7552 2.29749V5.18283H71.529L71.5345 6.02051H66.7608L66.7552 11.8076C66.7552 13.1052 67.0318 14.0141 68.5364 14.0141C69.0066 14.0141 69.5321 13.8608 70.0244 13.6253L70.3563 14.4028C69.7478 14.693 69.1449 14.8846 68.5364 14.8846C66.4787 14.8846 65.8149 13.6856 65.8149 11.8022V6.00956H63.7682V5.17736H65.8149V2.39604L66.7552 2.29749Z" fill="#1B2F5B"/>
<path d="M71.529 14.7587V6.02598H72.4749V5.19378H71.5345V4.27945C71.529 2.37961 72.2924 1.00537 74.422 1.00537C75.1466 1.00537 75.7938 1.25722 76.3415 1.66238L75.8713 2.35771C75.3403 2.04563 74.9696 1.8759 74.3833 1.8759C73.1719 1.8759 72.4638 2.60956 72.4638 4.27945V5.19378H75.6611V6.02598H72.4694V14.7587H71.5235H71.529Z" fill="#1B2F5B"/>
<path d="M75.1909 10.0118C75.1909 6.96766 77.3814 5.03497 80.1029 5.03497C82.8245 5.03497 85.015 6.97314 85.015 10.0118C85.015 13.0504 82.8245 14.9119 80.1029 14.9119C77.3814 14.9119 75.1909 13.0504 75.1909 10.0118ZM84.0801 10.0118C84.0801 7.53159 82.299 5.92193 80.1085 5.92193C77.918 5.92193 76.1368 7.53159 76.1368 10.0118C76.1368 12.492 77.918 13.9812 80.1085 13.9812C82.299 13.9812 84.0801 12.492 84.0801 10.0118Z" fill="#1B2F5B"/>
<path d="M87.1723 5.18284L87.211 6.88558C87.8195 5.58799 89.1858 5.08429 90.4193 5.08429C91.144 5.06239 91.8465 5.25949 92.4937 5.64822L92.0622 6.42567C91.5533 6.1136 90.9836 5.98219 90.4193 5.98219C88.6161 6.00409 87.2276 7.43308 87.2276 9.17962V14.7587H86.2707V5.18284H87.1723Z" fill="#1B2F5B"/>
<path d="M101.66 1.19153V14.7532H100.719V12.6398C99.9171 14.0907 98.3295 14.9065 96.6866 14.9065C93.9872 14.9065 91.852 13.1435 91.852 9.96802C91.852 6.79249 94.0038 5.02953 96.7087 5.02953C98.3738 5.02953 99.9392 5.72486 100.719 7.27977V1.19153H101.66ZM92.7924 9.97349C92.7924 12.6289 94.5736 13.9867 96.7475 13.9867C98.9214 13.9867 100.703 12.3387 100.703 9.95707C100.703 7.57543 98.9822 5.94386 96.7475 5.94386C94.5127 5.94386 92.7924 7.27977 92.7924 9.97349Z" fill="#1B2F5B"/>
<path d="M60.8254 9.42598C59.614 9.21246 57.9268 8.9606 57.8881 7.67944C57.8494 6.45851 59.2987 5.89458 60.8033 5.91648C61.6275 5.91648 62.3853 6.00956 63.1321 6.43661V5.473C62.4351 5.1664 61.6496 5.02405 60.8033 5.02405C58.8451 5.00215 56.9478 5.81793 56.9643 7.69587C56.9865 9.61213 58.8451 9.96254 60.7203 10.2746C62.3079 10.5265 63.912 10.8002 63.8733 12.1745C63.8124 13.6856 62.0313 13.9976 60.8586 13.9976C59.5642 13.9976 58.1204 13.5158 57.3128 12.3716L56.6103 12.9902C57.4511 14.2714 59.1383 14.9065 60.8365 14.9065C62.5346 14.9065 64.7528 14.3426 64.8081 12.2347C64.9077 10.0063 62.5346 9.71616 60.8143 9.42598H60.8254Z" fill="#1B2F5B"/>
</g>
<defs>
<clipPath id="clip0_4489_284">
<rect width="141" height="36" fill="white"/>
</clipPath>
</defs>
</svg>
