<svg width="251" height="63" viewBox="0 0 251 63" fill="none" xmlns="http://www.w3.org/2000/svg">
<g clip-path="url(#clip0_447_8688)">
<path fill-rule="evenodd" clip-rule="evenodd" d="M235.044 25.2628C235.044 24.3383 235.118 23.7467 235.415 23.451C235.638 23.2289 236.343 22.9703 237.606 22.9703C240.019 22.9703 241.801 23.6727 243.212 25.0042C244.772 26.4466 245.737 28.8872 245.737 31.8457C245.737 37.3563 242.655 41.0176 238.014 41.0176C235.527 41.0176 235.044 40.2042 235.044 37.911V25.2628ZM228.026 21.6388V22.7482C230.365 22.9703 230.7 23.1552 230.7 25.8916V38.1328C230.7 40.9067 230.365 41.0547 227.766 41.3133V42.4231H236.343C240.502 42.4231 243.992 41.5354 246.443 39.7601C249.004 37.8739 250.638 35.1003 250.638 31.1801C250.638 28.1108 249.339 25.8547 247.668 24.3383C245.514 22.4152 242.284 21.6388 238.163 21.6388H228.026ZM213.212 32.2527V24.4123C213.212 23.7839 213.249 23.4138 213.472 23.2289C213.732 23.044 214.177 22.8959 215.031 22.8959C216.887 22.8959 218.93 24.1166 218.93 27.5557C218.93 29.183 218.447 30.4405 217.333 31.4019C216.628 32.0306 215.44 32.2527 214.029 32.2527H213.212ZM226.578 41.6463C225.836 41.3502 225.316 41.0547 224.648 40.3148C223.979 39.6492 223.274 38.5769 222.086 36.8385C221.12 35.3592 219.895 33.2512 219.45 32.3267C221.603 31.4762 223.497 29.9598 223.497 27.1122C223.497 25.1151 222.605 23.6727 221.343 22.8222C220.007 21.9345 218.335 21.6388 215.365 21.6388H206.231V22.7482C208.645 22.9331 208.979 23.3029 208.979 25.8916V38.1328C208.979 40.7586 208.571 41.0547 206.12 41.3133V42.4231H216.034V41.3133C213.546 41.0547 213.212 40.7586 213.212 38.1328V33.5102H213.843C214.883 33.5102 215.514 33.9171 216.071 34.8414C217.036 36.5427 217.89 38.2808 218.744 39.5755C220.081 41.5723 221.343 42.4968 225.501 42.7189H226.393L226.578 41.6463ZM192.085 22.5261C196.058 22.5261 198.917 26.2614 198.917 32.6594C198.917 38.5769 196.17 41.5354 192.902 41.5354C188.521 41.5354 185.81 36.9497 185.81 31.4762C185.81 25.8179 188.669 22.5261 192.048 22.5261H192.085ZM192.679 21.1212C185.03 21.1212 180.835 26.4466 180.835 32.0306C180.835 38.2068 185.588 42.9406 192.271 42.9406C198.657 42.9406 203.929 38.7247 203.929 31.772C203.929 25.4849 198.806 21.1212 192.716 21.1212H192.679ZM178.422 26.5947C178.273 24.7081 178.124 22.1935 178.087 21.6388H162.456V22.7854C164.906 23.0071 165.241 23.192 165.241 26.1505V37.8002C165.241 40.9067 164.906 41.0916 162.456 41.3133V42.4231H172.815V41.3133C169.882 41.0916 169.585 40.9067 169.585 37.8002V32.8814H172.258C175.228 32.8814 175.6 33.1404 175.934 35.2852H177.122V28.8504H175.934C175.563 30.9215 175.228 31.217 172.258 31.217H169.585V24.2274C169.585 23.118 169.733 23.044 170.884 23.044H172.518C174.411 23.044 175.265 23.3029 175.934 24.0057C176.528 24.5972 176.973 25.5586 177.27 26.8164L178.422 26.5947ZM160.302 27.1491C160.154 25.1151 159.968 22.1935 159.931 20.8251H159.151C158.557 21.4167 158.149 21.6388 157.221 21.6388H143.743C142.815 21.6388 142.369 21.5647 141.886 20.8251H141.069C140.995 22.4524 140.81 24.8562 140.698 27.2231H141.886C142.294 25.633 142.74 24.4864 143.297 23.9313C143.743 23.451 144.299 23.044 147.27 23.044H148.309V38.1328C148.309 40.9067 147.975 41.0916 145.191 41.3133V42.4231H155.958V41.3133C153.025 41.0916 152.691 40.9067 152.691 38.1328V23.044H154.139C156.255 23.044 157.035 23.2657 157.666 23.8208C158.223 24.4495 158.743 25.5586 159.114 27.2231L160.302 27.1491ZM138.025 26.5947C137.765 24.5604 137.505 23.1552 137.431 21.9717C136.874 21.7868 134.98 21.1212 132.789 21.1212C128.26 21.1212 125.326 23.8576 125.326 27.408C125.326 30.4777 127.592 32.2155 131.007 33.8797C133.458 35.1003 134.943 36.2837 134.943 38.17C134.943 40.2411 133.643 41.6095 131.638 41.6095C128.52 41.6095 126.515 37.8739 125.921 35.8399L124.77 36.2097C124.992 38.17 125.438 40.9435 125.735 41.7203C126.143 41.9052 126.774 42.1638 127.703 42.4599C128.668 42.7557 129.819 42.9406 131.007 42.9406C135.76 42.9406 138.99 40.019 138.99 36.3578C138.99 33.1772 136.651 31.4019 133.161 29.7749C130.265 28.3694 129.076 27.3708 129.076 25.5958C129.076 23.7839 130.376 22.4152 132.307 22.4152C134.943 22.4152 136.243 24.8193 136.874 26.8533L138.025 26.5947ZM121.985 36.8016C121.391 38.244 120.797 39.2794 120.128 39.9822C119.386 40.8327 118.161 41.0176 116.527 41.0176C115.302 41.0176 114.076 40.9804 113.482 40.6846C112.814 40.426 112.702 39.5755 112.702 38.0219V32.6225H114.967C117.715 32.6225 118.198 32.7337 118.606 35.0263H119.794V28.5543H118.606C118.198 30.7734 117.715 30.9584 114.967 30.9584H112.702V24.1537C112.702 23.118 112.777 23.044 114.076 23.044H115.747C117.492 23.044 118.383 23.3029 118.94 23.8576C119.534 24.4123 120.017 25.5586 120.314 26.6684L121.502 26.5203C121.354 24.4123 121.205 22.1935 121.168 21.6388H105.611V22.7482C107.987 22.9331 108.321 23.0808 108.321 25.9284V38.1328C108.321 40.9067 107.987 41.0547 105.128 41.3133V42.4231H121.985C122.282 41.4614 122.95 38.5395 123.173 37.0605L121.985 36.8016ZM103.94 21.6388H96.217V22.7482C98.8902 23.0071 99.0387 23.5618 98.5563 25.4481C98.1107 27.2603 96.7738 32.3267 95.4372 36.3206H95.3631C93.5064 31.6611 91.6501 26.7052 89.7567 21.8237H88.16C86.6004 26.7792 84.9297 31.698 83.3331 36.2097H83.2589C82.108 32.6594 76.0929 13.6507 74.979 9.87823V24.2274C77.281 31.5871 79.806 39.538 80.8084 42.7926H82.5533C84.1499 38.1328 85.858 33.3621 87.6029 28.4437H87.6773C89.571 33.3621 91.2788 37.9851 93.0981 42.7926H94.843C97.628 33.8428 99.5588 28.2588 100.301 26.2614C101.192 23.5618 101.749 23.0808 103.94 22.7482V21.6388Z" fill="#1C2745"/>
<path fill-rule="evenodd" clip-rule="evenodd" d="M87.728 52.1932V52.3396C87.6245 52.4433 87.2076 52.8266 87.2076 53.6211V58.6721C87.2076 61.0721 85.9448 62.6477 82.9438 62.6477C79.9278 62.6477 78.6654 61.0721 78.6654 58.6721V53.6211C78.6654 52.8266 78.2501 52.4433 78.1597 52.3396V52.1932H81.5778V52.3396C81.4877 52.4433 81.0725 52.8266 81.0725 53.6211V59.1575C81.0725 60.3372 81.5478 61.309 82.9438 61.309C84.3251 61.309 84.8005 60.3372 84.8005 59.1575V53.6211C84.8005 52.8266 84.3852 52.4433 84.2967 52.3396V52.1932H87.728Z" fill="#535352"/>
<path fill-rule="evenodd" clip-rule="evenodd" d="M102.258 52.1932V52.3396C102.167 52.4137 101.9 52.723 101.9 53.2525V62.5016H101.201L94.5159 55.8154V61.4403C94.5159 61.9701 94.8146 62.2795 94.9027 62.3535V62.5016H92.6442V62.3535C92.7343 62.2795 93.001 61.9701 93.001 61.4403V53.6211C93.001 52.8266 92.5857 52.4433 92.481 52.3396V52.1932H94.5159L100.384 58.0686V53.2525C100.384 52.723 100.117 52.4137 100.029 52.3396V52.1932H102.258Z" fill="#535352"/>
<path fill-rule="evenodd" clip-rule="evenodd" d="M109.921 53.6211V61.0721C109.921 61.8685 110.336 62.2515 110.441 62.3536V62.5013H107.008V62.3536C107.098 62.2515 107.514 61.8685 107.514 61.0721V53.6211C107.514 52.8267 107.098 52.4433 107.008 52.3397V52.1932H110.441V52.3397C110.336 52.4433 109.921 52.8267 109.921 53.6211Z" fill="#535352"/>
<path fill-rule="evenodd" clip-rule="evenodd" d="M120.943 57.1114V57.2579L120.498 58.3484H115.193V58.2003L115.58 57.1114H120.943Z" fill="#535352"/>
<path fill-rule="evenodd" clip-rule="evenodd" d="M134.268 56.8912C133.942 54.7265 132.634 53.0768 130.614 53.371C128.533 53.6952 128.148 55.845 128.445 57.73C128.772 59.8944 130.08 61.544 132.1 61.235C134.18 60.926 134.565 58.7758 134.268 56.8912ZM131.683 62.6478C127.821 62.7073 125.741 60.3225 125.711 57.3615C125.666 54.4156 127.925 52.0011 131.104 51.9715C134.967 51.912 136.973 54.299 137.003 57.243C137.047 60.204 134.862 62.6185 131.683 62.6478Z" fill="#535352"/>
<path fill-rule="evenodd" clip-rule="evenodd" d="M151.396 52.1932V52.3396C151.306 52.4137 151.039 52.723 151.039 53.2525V62.5016H150.34L143.655 55.8154V61.4403C143.655 61.9701 143.953 62.2795 144.042 62.3535V62.5016H141.783V62.3535C141.873 62.2795 142.14 61.9701 142.14 61.4403V53.6211C142.14 52.8266 141.725 52.4433 141.62 52.3396V52.1932H143.655L149.523 58.0686V53.2525C149.523 52.723 149.256 52.4137 149.168 52.3396V52.1932H151.396Z" fill="#535352"/>
<path fill-rule="evenodd" clip-rule="evenodd" d="M163.488 60.2629L162.894 62.6037H162.775C162.598 62.4868 162.137 62.5013 162.002 62.5013H156.148V62.3536C156.239 62.2515 156.654 61.8685 156.654 61.0721V53.6211C156.654 52.8267 156.239 52.4433 156.148 52.3397V52.1932H159.567V52.3397C159.461 52.4433 159.046 52.8267 159.046 53.6211V60.9701H162.002C162.879 60.9701 163.252 60.3221 163.325 60.2185L163.488 60.2629Z" fill="#535352"/>
<path fill-rule="evenodd" clip-rule="evenodd" d="M170.855 53.6211V61.0721C170.855 61.8685 171.27 62.2515 171.375 62.3536V62.5013H167.942V62.3536C168.032 62.2515 168.448 61.8685 168.448 61.0721V53.6211C168.448 52.8267 168.032 52.4433 167.942 52.3397V52.1932H171.375V52.3397C171.27 52.4433 170.855 52.8267 170.855 53.6211Z" fill="#535352"/>
<path fill-rule="evenodd" clip-rule="evenodd" d="M185.904 52.1932V52.3396C185.814 52.4137 185.547 52.723 185.547 53.2525V62.5016H184.848L178.163 55.8154V61.4403C178.163 61.9701 178.461 62.2795 178.55 62.3535V62.5016H176.291V62.3535C176.381 62.2795 176.648 61.9701 176.648 61.4403V53.6211C176.648 52.8266 176.233 52.4433 176.127 52.3396V52.1932H178.163L184.031 58.0686V53.2525C184.031 52.723 183.764 52.4137 183.676 52.3396V52.1932H185.904Z" fill="#535352"/>
<path fill-rule="evenodd" clip-rule="evenodd" d="M198.145 60.2629L197.551 62.6037H197.433C197.254 62.4868 196.659 62.5013 196.659 62.5013H190.657V62.3536C190.747 62.2515 191.162 61.8685 191.162 61.0721V53.6211C191.162 52.8267 190.747 52.4433 190.657 52.3397V52.1932H195.753C195.753 52.1932 196.659 52.2084 196.822 52.06H196.927V54.46H196.822C196.794 54.3283 196.6 53.7248 195.753 53.7248H193.554V56.1244H195.931C196.125 56.1244 196.273 56.0208 196.347 55.9191H196.407V57.8037H196.347C196.273 57.7001 196.125 57.5964 195.931 57.5964H193.554V60.9701H196.659C197.536 60.9701 197.908 60.3221 197.981 60.2185L198.145 60.2629Z" fill="#535352"/>
<path fill-rule="evenodd" clip-rule="evenodd" d="M35.9449 20.1539V40.2749C26.3421 37.5958 18.2197 36.2114 15.4312 35.776L18.8915 29.7772L35.03 20.5719L35.9449 20.1539Z" fill="#DE4A2C"/>
<path fill-rule="evenodd" clip-rule="evenodd" d="M63.9968 48.8531C56.0698 45.5009 47.6302 43.8506 46.6303 43.6622C42.9958 42.3568 39.377 41.2339 35.9448 40.276V20.1553L42.3048 17.2551C42.6633 17.446 43.0243 17.6454 43.3852 17.8577C43.5066 17.9261 43.6261 17.9992 43.7459 18.0719C43.8654 18.1428 43.9871 18.2152 44.1066 18.2924C44.1935 18.346 44.2807 18.3998 44.3676 18.4556C44.7174 18.6761 45.0675 18.9098 45.4151 19.1521C45.5109 19.2185 45.6042 19.285 45.7 19.3515C46.4887 19.915 47.2756 20.5324 48.0515 21.2074L63.9968 48.8531Z" fill="#BE432B"/>
<path fill-rule="evenodd" clip-rule="evenodd" d="M35.9447 0.220215V14.736C32.8517 13.8893 30.1284 13.643 28.2222 13.6024" fill="#1C2745"/>
<path fill-rule="evenodd" clip-rule="evenodd" d="M48.0512 21.2063C47.2752 20.5313 46.4884 19.9139 45.6994 19.3503C45.6038 19.2839 45.5102 19.2177 45.4147 19.1512C45.0668 18.9087 44.7167 18.6753 44.3669 18.4545C44.28 18.3987 44.1931 18.3452 44.1062 18.2916C43.9864 18.2144 43.8651 18.1417 43.7453 18.0708C43.6258 17.9977 43.5063 17.9249 43.3846 17.8566C43.0236 17.6443 42.6629 17.4452 42.3042 17.2543L45.0496 16.0025L48.0512 21.2063Z" fill="#621826"/>
<path fill-rule="evenodd" clip-rule="evenodd" d="M45.0496 16.0027L42.3045 17.2545C42.0308 17.1086 41.7567 16.9672 41.4829 16.8343C41.235 16.7121 40.9874 16.5942 40.7418 16.4808C40.6133 16.4226 40.4875 16.3646 40.3613 16.3092C40.2354 16.2512 40.107 16.1977 39.9808 16.1441C39.3921 15.8912 38.8071 15.664 38.2334 15.458C38.1094 15.4133 37.9877 15.3705 37.866 15.3295C37.7357 15.2848 37.6053 15.2397 37.475 15.1966C37.3444 15.1541 37.2163 15.1134 37.0882 15.0725C36.9597 15.0318 36.8313 14.9931 36.7032 14.9547C36.4489 14.8775 36.1946 14.8044 35.9448 14.7361V0.21991L45.0496 16.0027Z" fill="#13192F"/>
<path fill-rule="evenodd" clip-rule="evenodd" d="M35.9447 14.7359V20.1539L20.3364 27.2717L28.2222 13.6022C30.1283 13.6429 32.8517 13.8895 35.9447 14.7359Z" fill="#535352"/>
<path fill-rule="evenodd" clip-rule="evenodd" d="M42.3045 17.2543L35.9448 20.1539V14.7359C36.195 14.8046 36.4489 14.8773 36.7032 14.9545C36.8316 14.9929 36.9597 15.0317 37.0882 15.0723C37.2163 15.1133 37.3447 15.1539 37.475 15.1967C37.6053 15.2396 37.7357 15.2846 37.866 15.3297C37.9877 15.3706 38.1098 15.4132 38.2334 15.4582C38.8075 15.6639 39.3921 15.8913 39.9811 16.1443C40.107 16.1978 40.2354 16.2511 40.3613 16.309C40.4875 16.3648 40.6137 16.4224 40.7418 16.4807C40.9874 16.5941 41.235 16.7119 41.4829 16.8341C41.757 16.967 42.0308 17.1085 42.3045 17.2543Z" fill="#414140"/>
<path fill-rule="evenodd" clip-rule="evenodd" d="M35.9457 41.638L35.9448 40.275C26.3423 37.5959 18.2195 36.2111 15.431 35.7761L0.259766 62.0802L35.9457 41.638Z" fill="#8C2036"/>
<path fill-rule="evenodd" clip-rule="evenodd" d="M71.6279 62.08H71.3976L35.9448 41.657V40.2748C46.0259 43.0909 57.739 47.3324 66.6224 53.4043L71.6279 62.08Z" fill="#621826"/>
<path fill-rule="evenodd" clip-rule="evenodd" d="M0.258789 62.0797H71.6278L35.9444 41.5972L0.258789 62.0797Z" fill="#1C2745"/>
</g>
<defs>
<clipPath id="clip0_447_8688">
<rect width="251" height="63" fill="white"/>
</clipPath>
</defs>
</svg>
